<?xml version="1.0" encoding="UTF-8"?>
<svg id="_レイヤー_1" data-name="レイヤー 1" xmlns="http://www.w3.org/2000/svg" viewBox="0 0 230.13 193.86">
  <defs>
    <style>
      .cls-1 {
        fill: none;
        stroke: #000;
      }
    </style>
  </defs>
  <path class="cls-1" d="M103.12,92.81s-1.44-1.76-.96-2.89c.48-1.13.64-4.65.96-4.81.32-.16,0-1.93,0-1.93l-2.59-3.21v-1.89l.67-1.64v-5.32s3.85-1.42,3.85-1.42c0,0,4.17-2.73,4.81-2.89.65-.16,3.31-1.06,3.63-1.22.32-.16,1.5-1.35,1.5-1.35l.65-1.28,4.82-.96,1.33.5,6.37,7.21s-.26.51-.12,2.29c.18,2.34-.02,3.48-.84,4.44-.23.27-.96.96-.96.96v4.81s.74,3.69.69,4.67c-.03.68-.69,3.03-.69,3.03,0,0-3.06.85-3.85.96-.98.14-2.72,1.23-3.85,1.92-.49.3-2.44,2.14-3.05,2.41-.29.13,0,0-.8.48-.8.48-3.82,1.48-3.85,1.93-.02.31-.84-.81-1.64-1.37-1.9-1.32-3.81-1.52-4.13-1.52s-1.92-1.93-1.92-1.93Z"/>
  <path class="cls-1" d="M88.15,72.37s1.12-1.68,1.6-2.96c.48-1.28.42-1.44,2.39-2.2,1.28-.5,4.3-2.1,4.3-2.1l.61,2.43.64,1.44,3.51,2.64s.32,3.53,0,4.81c-.32,1.28-.83,2.26-.67,3.06.16.8,1.14,1.88,1.14,1.88l1.51,2.17s-.18,3.3-.57,4.27c-.27.67-1.07,2.93-.1,4.05.76.87,1.91,1.95,2.05,2.51.15.56,1.45.35,1.45.35l3.98,2.08s-4.29.65-4.94.81c-.64.16-1.92.65-2.89,0-.96-.64-3.04-1.85-3.85-1.93-1.44-.13-1.41-.22-3.85-.96,0,0-.9,2.12-1.38,2.76-.48.65-1.16,3.85-2.47,3.98-1.53.15-2.41.8-2.89.96-.48.16-3.37,1.44-3.85,1.92-.48.48-2.89.96-2.89.96,0,0-2.09-1.28-1.93-1.93s-.29-3.08-.13-3.4c.16-.32-.79-1.57-.79-1.73s.6-3.53.92-4.49c.32-.96-.32-2.41,0-2.89.32-.48-1.93-1.92-1.93-1.92l-1.17,1.96s-.75-.2-1.72-1c-.96-.8-2.41-1.89-2.89-2.89-.16-.32.96-4.81.96-4.81,0,0,3.69-2.41,3.85-2.89.16-.48,4.17-2.09,3.85-1.93-.32.16,1.28.22,1.6-.1.32-.32,2.03-.59,2.03-.59l1.26-1.71,1.62-1.28,1.63-1.36Z"/>
  <path class="cls-1" d="M136.81,89.92s-.16,7.22,0,7.7c.16.48.48,3.37.96,3.85.48.48.96,2.89.96,2.89,0,0,1.61,3.85,1.93,3.85s2.09,4.33,2.89,4.81c.8.48,2.61,2.32,2.61,2.32l-4.54-3.28-4.5-3.55-2.23-1.27s-2.32,1.1-3.52,2.61c-.69.88-5.31.59-6.11.28-.8-.32-6.9-1.61-6.74-1.93.16-.32-1.29-1.57-1.92-2.89-.42-.88-2.89-2.89-2.89-2.89,0,0-3.2-.32-2.89-.96.32-.64,0-1.92,0-1.92v-1.93c0-.48,5.26-2.68,5.26-2.68,0,0,1.92-1.69,1.53-1.41-.49.36,1.98-.96,2.3-1.44.32-.48,3.47-1.19,3.47-1.19l2.84-.99.53-2.03v-2.67s-.53-2.2-.53-3.96-.48-3.69,0-3.85c.48-.16,1.7-1.5,1.92-2.89.12-.71,0-4.81,0-4.81,0,0,3.03,4.16,3.42,4.44.99.72,1.4,1.33,1.4,1.33,0,0,1.51-.46,2.6-1.63,1.22-1.32,2.22-2.22,2.7-2.22s2.24-.32,2.41,0c.16.32,2.89,1.93,2.89,1.93,0,0,0,3.69-.96,4.81-.96,1.13-2.72,4.17-2.89,4.81-.16.65-.48,4.01-.96,3.85-.48-.16-1.92,2.89-1.92,2.89Z"/>
  <path class="cls-1" d="M81.44,105.32c.48,0,3.38-1.44,4.35-1.93.96-.48,3.53-2.09,3.85-1.93.32.16,1.13.65,1.93-.96l1.92-3.85c.48-.96.32-2.09.96-1.93.64.16,4.79.9,5.27,1.38.48.48,2.42,1.72,3.1,1.78,1.75.16,2.82-.22,4.33-.47.35-.06,1.94-.69,2.25-.52.32.16,1.41.72,1.41.72v3.85s-.21.7,1.23.7c1.92,0,2.84,1.6,2.46,1.94-.4.36-.49,1.04.16,2.17.64,1.13,2.01,3.49,1.69,3.97-.32.48.55,2.45.23,2.77-.32.32-3.82-.46-4.56-.14-2.26.95-4.03-.71-5.63.57-1.61,1.28-3.12,1.02-4.25.54-1.13-.48-3.53-2.41-4.81-2.89-1.28-.48-4.46-1.92-4.81-1.93-1.87-.03-3.21,1.61-2.89.96l-1.3.8c.58-.05-3.04.28-4.48-.8-.98-.74-1.93-1.93-1.93-1.93,0,0-.98-2.89-.5-2.89Z"/>
  <path class="cls-1" d="M138.74,116.88s-3.69,4.01-4.81,4.81c-1.13.8-1.76,2.57-1.93,2.89-.16.32-.48,2.09,0,2.89.48.8.32,6.9,0,6.74-.32-.16-.16.96-1.93,1.93-1.76.96-6.58,1.92-6.74,1.92s-1.76,1.28-2.89,2.89c-1.13,1.61-1.93,2.89-1.93,2.89l-1.92,1.92-2.89-1.92s-1.19-1.7-.96-1.93c.4-.4,1.28-.48,1.93-.96.64-.48,1.44-2.57.96-4.81-.48-2.24-.64-1.76,0-2.89.65-1.12,0-1.92,0-1.92,0,0-2.24-.8-1.92-.96.32-.16,1.13-1.28,1.92-1.93.8-.64,1.44-2.57,1.93-2.89.48-.32,1.76-.96,2.89-1.92,1.12-.96,3.21-1.61,2.89-2.89-.32-1.28-2.89-2.89-2.89-2.89h-1.93l-.96,1.93-.96-4.81c-.16-.8.41-2.36.09-2.2-.32.16-.53-4.13-.53-4.13l.18.75s-.06-1.27-1.34-2.55l-.88-2.35.95-.86,3.45,4.6s4.47,1.43,5.63,1.61c.57.09,1.49.91,3.1.59,1.61-.32,2.66.69,3.79-.28,1.12-.96,3.85-2.89,3.85-2.89l1.93.96c-.32-.16,4.65,4.01,4.81,3.85s3.85,2.89,3.85,2.89v.96h-.96c-.96,0-3.69,1.44-3.85.96-.16-.48-1.93,0-1.93,0Z"/>
  <path class="cls-1" d="M89,110.53s2.49-1.57,3.53-1.36c1.04.21,4.18,1.52,4.81,1.93.63.4,2.88,1.73,3.21,1.94,1.01.64,1.88,1.05,2.44,1.34.73.37,1.51-.2,2.04-.4.53-.19,1.56-.5,1.92-.96.37-.46,3.61.82,4.82,0,1.2-.82,2.89,0,2.89,0h1.92s-.08,2.8.37,3.78c.45.98-2.3,1.99-2.3,1.99,0,0-.6.75-.96.96-.37.21-.14,4.03-.96,3.65-.82-.38-.67-1.47-2.21-2.22-1.54-.75-2.61-1.43-2.61-1.43,0,0-3.93.32-3.85,0,.08-.32.09,1.03-.36,1.43-.45.4-.04,1.13-1.57.49-1.55-.65-1.4-.21-3.85-.96-2.44-.75-3.67-2.02-3.85-2.89-.18-.87-.66.17-1.92-.96-1.26-1.14-1.39-.49-1.87-1.53-.41-.88-1.98-2.32-1.98-2.32l.32-2.49Z"/>
  <path class="cls-1" d="M93.49,122.65l.96-2.89-.22-2.29s.58,1.97,4.43,3.41c.35.13,2.58.31,2.58.31l1.97.92.85-2.36s2.89,0,3.25.21c.37.21,1.34-.44,2.52.75l1.94,1.54.95,1.35s-2.48.44-2.89.96c-.4.52-1.7,2.25-.96,2.89.74.64.65,3.19.96,3.85.31.66,1.93,1.92,1.93,1.92,0,0-.84,0-.96.96-.12.95-.21,2.7-.96,2.89-.75.19-1.93-1.92-1.93-1.92,0,0-.8-2.06-.96-2.89-.16-.83-1.92-1.93-1.92-1.93,0,0-1.55.13-1.92,0-.38-.13-2.92.12-3.85.96-.93.85-3.41,1.24-3.85,1.92-.44.68-.96,2.89-.96,2.89l-1.92.96s-1.89-.33-1.93-1.92c-.04-1.6-.89-3.44-.13-4.63.75-1.19.13-2.11.13-2.11,0,0-.52-1.42-1.19-1.59-.66-.17-1.47-1.3-1.47-1.3l2.66-1.92,2.89-.96Z"/>
</svg>