<?xml version="1.0" encoding="UTF-8"?>
<svg id="_レイヤー_1" data-name="レイヤー 1" xmlns="http://www.w3.org/2000/svg" viewBox="0 0 230.13 193.86">
  <defs>
    <style>
      .cls-1 {
        fill: none;
        stroke: #000;
      }
    </style>
  </defs>
  <path class="cls-1" d="M115.56,45.72s-.33-.68,0-1.92c.33-1.24,3.85-2.89,3.85-2.89,0,0,1.79,3.58,2.89,2.89,1.1-.69,1.47-1.97,1.93-2.89.45-.91,0-1.93,0-1.93l1.93-2.89s-.36-.33,0-.96c.36-.63-.35-1.2,1.93-1.92,2.27-.72,3.05.72,3.85,0,.8-.72,1.4-1.3,1.92-1.93.52-.63,3.16-.66,3.85,0,.69.65,2.51,1.82,2.89.96.38-.86.64-.42.96,0,.33.42.68,2.89.96,3.85.28.96,1.01,1.69,1.92,2.89.92,1.19.56,2.94,1.93,2.89,1.37-.05,1.93.96,1.93.96,0,0-.02,1.44-.27,2.14-.19.53.34.88-1.77.78-2.11-.1-2.73-.34-3.36.1-.64.44-1.03,2.04-2.31,2.76-1.28.71-2.14,1.32-2.23,2.12-.09.8.57,1.21.3,1.73s-1.1,1.3-1.01,2.12c.1.83.73,1.35,1.01,1.73.28.37.23,3.75,0,4.81-.08.38-3.04,0-3.85-.96-.81-.95-1.76-1.7-1.93-.96-.16.74-2.97.37-3.85,1.93-.89,1.56-3.24,4.23-2.89,4.81.36.59-.96-2.89-.96-2.89,0,0-1.23-2.3-.96-2.89.27-.59-.96-.96-.96-.96l-.96-.96s.64-1.52.96-1.92c.32-.41,1.16-1.98,1.93-1.93.77.06.52.03,1.93-.96,1.41-.99,1.71-.66,1.93-1.93.21-1.26-.96-2.89-.96-2.89,0,0-1.18-.71-1.93,0-.74.71-1.93,1.93-1.93,1.93l-1.93-1.93-.96-.96s-2.06-1.41-1.93-.96c.13.44-.96.96-.96.96l-1.92.96s-1.29-.44-.96-.96c.33-.52,0-1.93,0-1.93Z"/>
  <path class="cls-1" d="M154.07,43.79s3.79-1.14,3.85-1.92c.06-.78,1.22-3.17,1.92-2.89.7.28,2.7,1.38,2.89,1.93.19.55.82,2.12.96,2.89.14.77-.33,2.26,0,2.89.33.63,1.5,2.22,0,2.89-1.5.66-2.89.96-2.89.96,0,0-.19.94-.96.96-.77.02-2.71,2.46-1.92,2.89.79.42,2.89.96,2.89.96l2.89-.96s.5.59.96.96c.46.38,1.56.54,1.93,0,.37-.54.1-2.58.96-1.92.87.65,1.89,1.55,1.92,1.92.04.38-1.88,1.73-1.92,2.89-.05,1.16-.22,1.42.96,1.92,1.18.51,1.57-.78,1.93.96.36,1.74-.72,1.66,0,2.89.72,1.23,1.3,2.53,1.93,2.89.63.36.75.47.96.96s-1.32,2.54-1.93,2.89c-.61.35-.94.53-1.63.83-.69.3-1.81.1-2.22-.47-.42-.57-.74-1.42-1.2-1.23-.56.24-2.65,1.83-2.65,1.83,0,0-3.29.47-4.81.96-1.04.34-.99-.07-1.64-.94-.26-.35-1.22-2.35-1.25-1.95-.03.4-1.93,1.93-1.93,1.93,0,0-1.54-.39-1.93-.96-.39-.57-.22.06-.96-1.92-.84-2.25-1.56-1.6-1.93-3.85-.37-2.28.56-2.89-.96-4.81-.84-1.06-1.1-2.73-1.55-2.84-.64-.15-3.27-.05-3.27-.05,0,0-1.06-1.67-.96-.29.1,1.39.96,4.14.96,4.14,0,0,1.58.19,1.08.56-.5.37-3.33,3.07-3.97,2.33-.61-.73-1.93-2.89-1.93-2.89v-4.81s-1.29-1.07-.96-1.93c.33-.86,1.06-2.51,1.06-2.51,0,0-1.21-1.17.51-2.41,2.2-1.6.76-.29,2.36-1.8.98-.93,1.49-2.19,2.09-2.06.6.12,3.62.12,3.62.12l.64-.3.32-2.58h3.85l1.93.96Z"/>
  <path class="cls-1" d="M105.94,52.46c.62-.03,1.76.48,1.93-.96.16-1.44-1.36-2.69-.96-2.89.39-.2-1.31-.54,0-1.93,1.31-1.39,2.82-3.29,2.89-2.89.07.4,2.32.42,1.93.96-.39.54.67,2.31.96,2.89.29.58.17,1.71.96.96.79-.75,1.78-.76,1.78-.76,0,0,.46.55,1.11.76.64.21,2.38-1.23,2.38-1.23l.71-.75s2.37,1.08,2.68,1.97c.32.89,1.42,1.79,1.93,1.93.47.12,2.23-2.13,2.23-2.13,0,0,1.62.21,2.17,1.14.52.89.39,1.02.42,1.96.03.93-1.38,1.22-2.34,2.14-.99.95-2.11.72-2.8,1.75-.67,1-1.13,1.81-1.13,1.81,0,0-.12.89-.72,1.12-.6.23-.48-.08-1.17-.22-.68-.13-1.48-.81-1.48-.81,0,0,.13,0-.96.96-1.1.97-2.02-.33-1.92.96.1,1.29-.64,1.46,0,1.93.64.46,1.56.64,1.92,1.93.37,1.28,0,1.92,0,1.92,0,0-1.15-1.18-2.65-1.04-1.5.13-1,.35-2.17-.88-1.28-1.36-1.59-2.18-1.93-2.89-.35-.75-1.19-2.07-1.19-2.07,0,0-1.49-.27-2.18-.57-1.4-.62-2.69-2.77-2.69-2.77,0,0-.35-2.26.28-2.29Z"/>
  <path class="cls-1" d="M117.49,68.82c.6-.29,3.53.2,4.81.96,1.28.76,1.29,1.63,1.93,1.93.64.3.83,2,0,2.89-.83.89-4.81,2.89-4.81,2.89,0,0-3.53.26-2.89-.96.64-1.22,2.11-.8,1.92-1.92-.18-1.13-.96-2.89-.96-2.89,0,0-.51-1.31-.96-.96-.45.35-.11,1.49-1.93,1.93-1.82.43-2.68.39-2.89.96-.21.57-2.45,3.84-2.89,3.85-.43,0-2.78,3.84-2.89,1.92-.11-1.91.93-2.67.96-3.85.03-1.18.89-2.5,0-3.85-.89-1.35-2.15-2.05-2.89-2.89-.74-.84-3.39-2.74-2.89-2.89.5-.14,1.92-2.89,1.92-2.89v-1.93s1.43,1.56,1.93,1.93c.49.36-.21.19.96,1.92,1.17,1.73,2.31,2.4,1.93,2.89-.39.49.85.34.96.96.12.63,1.36,1.48,1.93.96.57-.52,2.73-.04,1.93-1.92-.81-1.89-2.31-2.24-1.93-2.89.39-.64-.96-1.92-.96-1.92,0,0-.44-1.84-1.93-1.93-1.48-.09-1.93-.96-1.93-.96,0,0-1.18-.79-1.93-.96-.74-.17-1.93-.96-1.93-.96,0,0-.36.5-.96,0-.61-.5-2.15-1.52-1.93-1.92.22-.41.97-2.45.96-2.89,0-.44.96-2.89.96-2.89l1.92.96,2.89.96s-.81,1.78,0,2.89c.81,1.11,1.93,1.93,1.93,1.93l1.9.66s.6-.12.99.31c.39.42.76,1.6,1.23,2.8.47,1.19,2.62,2.98,2.62,2.98,0,0,1.46-.13,1.93,0,.46.14,1.92.96,1.92.96,0,0-.37.38,0,.96.37.59-1.56,3.18-.96,2.89Z"/>
  <path class="cls-1" d="M128.08,87.11s.19,1.85-.96,2.89c-1.16,1.04-2.61.8-2.89,1.93-.28,1.12-.96,2.89-.96,2.89,2.27.28,2.14.36,3.85,0,1.41-.3,1.99-.53,2.89-.96.9-.43,1.4.63,1.93.96.29.18-.48.28,1.92.96,1.57.44,3.43,1.91,4.81.96,1.39-.94,1.05-2.11,2.89-2.2,1.81-.09,2.66-.41,3.21-.84.55-.43,1.61-2.65,1.61-2.65,0,0-.41-1.99-.46-2.69-.05-.69-.35-1.44-.81-3.28-.3-1.19-1.04-2.13-1.56-2.89-.37-.54-1.03-1.82-1.03-1.82l2.4-2.31s.94-.95,2.07-2.13c1.14-1.17,1.13-1.7,1.59-2.51.5-.88,1.64-2.68,1.64-2.68l.96-1.92-.96-1.93s-1.09-1.46-.96-1.93c.13-.46.06-1.66,0-2.89-.06-1.23-.4-.97-.96-1.93-.56-.95-1.05-2.86-1.93-2.89-1.08-.03-2.75.45-2.89,0-.13-.45-.96-.96-.96-.96l.96,4.81s1.78-.1.92.84c-.89.98-1.57,1.1-2.23,1.58-.52.38-1.01.92-1.33.65-1.69-1.42-1.73-2.98-2.18-3.07-.45-.09-1.41.07-2.54-.21-.67-.17-.69-.16-1.32-.75-.63-.59-.79-1.59-1.51-1.25-.85.4-1.45.8-2.25.99-.6.14-1.82.65-2.16,1.47-.34.83-.33.09-1.47,2.12-1.25,2.21-1.35,2.22-1.27,2.45.42,1.22.93,1.71,1.93,2.89.99,1.18,1.03,1.4,1.93,1.92.9.53,1.4.94.96,1.93-.43.98-.21,2.23-.96,2.89-.75.65-4.81,2.89-4.81,2.89,0,0,3.74.95,4.81,0,1.08-.95,3.05-2.53,2.89-1.93-.16.61-.3,1.22-.96,1.93-.66.7-1.91,1.14-1.93,1.93-.02.79-.63,2.06-.96,2.89-.34.83-.96,3.85-.96,3.85Z"/>
  <path class="cls-1" d="M120.38,84.23s0-1.16.96-1.93c.96-.77,1.93-.96,1.93-.96h2.89v1.93s-1.46,1.56-1.93,1.92c-.46.37-2.89.96-2.89.96l-.96-1.92Z"/>
  <path class="cls-1" d="M112.68,85.19s-.37-1.75.96-2.89c1.34-1.14,2.89-1.93,2.89-1.93,0,0,.55.31.96,0,.41-.31.6.22.96.96.37.74,1.19,1.93.96,2.89-.23.96-.96,2.89-.96,2.89,0,0-.46,1.94-.96,1.93-.5,0-1.16.93-1.93,1.92-.77.99-2.89,1.93-2.89,1.93,0,0-1.3-1.45-.96-1.93.34-.47.96-2.89.96-2.89v-2.89Z"/>
  <path class="cls-1" d="M156,108.29s1.13,4.19,0,4.81-2.18,1.4-1.93,1.92c.25.53.3,1.58,0,2.89-.3,1.31.38,2.27-.96,2.89-1.35.62-4.63-1.21-4.63-1.21,0,0-.15-.48-.19-2.65-.02-1.03,0-4.81,0-4.81l-4.64-2.15s.21-.23-.24-1.05c-.45-.83-2.26-1.82-2.26-1.82l-2.49.21.96-2.89-3.45-3.99-.89-2.66-1.43-2.01,1.93.96,2.47.2s1.6-1.46,2.34-2.12c.74-.66,2.94.2,3.85-.96.92-1.17,2.39-2.51,1.93-3.85-.46-1.34-1.56-6.84-1.93-6.74-.37.09-1.92-2.89-1.92-2.89,0,0,1.38-1.53,1.92-1.93.55-.39,2.85-2.44,2.89-2.89.04-.44,1.71-2.51,1.92-2.89.53-.96.96-1.93.96-1.93l.96-1.92s1.46,2.63,1.94,2.57c.48-.07.82.6,1.35.16.44-.37,1.52-1.77,1.52-1.77l1.9,2.97s4.92-1.16,5.8-1.04c.88.12,2.7-2.14,2.89-1.93.18.21,1.3,1.93,1.93,1.93.96,0,2.08-.62,1.76-.23-.59.71-2.13,3.97-2.73,4.08-.6.11-1.61,1.36-1.93,1.93-.32.57-1.52,3.01-1.93,2.89-.4-.12.59,1.6,0,1.93-.59.33-2.81,3.45-2.89,4.81-.08,1.37-.75,1.76-.96,3.85-.21,2.09-2.17,4.33-1.92,5.78.24,1.44-.7,1.59-.96,2.89-.26,1.3-.96,8.67-.96,8.67Z"/>
  <path class="cls-1" d="M118.45,125.62c-.29-.22-.6-3.25-.96-3.85-.21-.36-1.93-1.93-1.93-1.93,0,0-.41-1.31.96-.96l3.85.96s-.64-1.68,0-2.89c.64-1.21,1.74-.81,1.93-1.92s0-2.46,0-2.89-2.02-2.42-1.93-2.89c.1-.46-1.19-1.56-1.93-1.93-.73-.37-1.92-1.92-1.92-1.92,0,0,1.74-1.2,1.92-1.92.18-.72.37-2.49,0-2.89-.37-.39-.96-.96-.96-.96v-1.92l-.96-1.93s1.01.35,1.92,0c.92-.34,2.29-1.03,2.89-.96.6.07,1.93,0,1.93,0l2.41.23,3-.64s1.86-1.07,2.3-.56c1.03,1.2,2.89,1.92,2.89,1.92,0,0,.4.45,1.28,1.76.5.75.04.79.64,2.09.61,1.3,1.05,2.1,1.93,2.89.88.79,1.93,1.93,1.93,1.93l-.96,2.89s2.56-.55,2.89,0c.33.55,1.71,1.31,1.92,1.93.4,1.16.72.95,1.44,1.33,1.33.69,1.5.69,1.5.69l1.87.87v3.85s-.12,2.77.19,3.61c.15.4-2.48-.7-3.07-.72-.6-.02-1.97.48-1.93.96.05.48,0,1.93,0,1.93,0,0,1.78.59,1.93.96.24.6,0,3.85,0,3.85,0,0-.05.04-.96,0-.92-.04-.74-.23-1.92.96-1.18,1.19-1.66,2.02-2.89,2.89-1.23.87-1.93,0-1.93,0l-1.93.96-1.93,1.93s-1.4.28-1.92,0c-.41-.22,2.14-4.22,1.92-3.85-.02.03-.03.05-.03.05,0,0,.9-1.56.99-1.97.11-.45.96-2.89.96-2.89v-3.85s-.7-.81-.96-1.92c-.26-1.12,0-2.89,0-2.89h-3.85v-2.89h2.89s.31.75.96.96c.66.21.96-.96.96-.96l.96-1.93s-1.48.28-1.93-.96c-.44-1.24-1.93-1.93-1.93-1.93l-1.93.96s-1.13,4.24-.96,4.81c.16.58-.96,1.93-.96,1.93,0,0-1.41-.4-.96.96.44,1.36.75,2.41.96,2.89.21.48-1.13.81,0,1.93,1.13,1.12.25,2.83.96,2.89.71.06,2.04.59,1.93.96-.12.38.66,1.28,0,1.93-.66.64-3.38,1.28-3.85.96-.47-.32-.96-1.93-.96-1.93,0,0-.22-2.35-.96-1.92-.74.42-4.81.96-4.81.96,0,0-2.57.24-2.89,0Z"/>
  <path class="cls-1" d="M55.99,143.96l3.85-.96.96-1.93,1.93-1.92-3.85-2.89h2.89s2.36,2.37,2.89,1.92c.53-.44,2.89-1.92,2.89-1.92l1.92-3.85,1.93-2.89s1.59.9,1.93,1.92c.34,1.03-.75,3.28-.96,3.85-.21.57-.03,2.58-.96,2.89-.94.31-2.39,2.22-2.89,1.93-.5-.3-2.27.34-2.89.96l-2.89,2.89s-.47.62-1.93.96c-1.45.34-.85.08-.96.96-.12.89.96,1.93.96,1.93,0,0-3.2.33-2.89.96.31.63-.96,3.85-.96,3.85l1.92.96-1.92,1.92h-1.93l-1.92-1.92,1.92-2.89.96-1.92-.96-2.89.96-1.92Z"/>
  <polyline class="cls-1" points="107.08 186.14 107.17 129.08 74.44 96.08 26.01 96.01"/>
</svg>