<?xml version="1.0" encoding="UTF-8"?>
<svg id="_レイヤー_1" data-name="レイヤー 1" xmlns="http://www.w3.org/2000/svg" viewBox="0 0 230.13 193.86">
  <defs>
    <style>
      .cls-1 {
        fill: none;
        stroke: #000;
      }
    </style>
  </defs>
  <path class="cls-1" d="M139.9,88.74s-2.02,2.33-1.93,2.89c.1.56.36,2.41,0,2.89-.36.48-.48,1.69,0,1.92.48.23.71.5,1.93,1.93,1.21,1.43,1.36.67,2.89,1.93,1.53,1.25,2.2,1.92,2.89,1.93.69,0,3.18.24,2.89.96-.29.72.52.92,0,1.92-.52,1-2.34,2.34-1.93,2.89.41.55.12,2,0,1.93-.12-.08-1.22-.55-1.93-.96-.7-.41-2.72-1.67-2.89-.96-.17.7-2.43,2.11-3.85,2.89-1.42.78-2.32.08-3.85.96-1.53.88-2.8,1.13-2.89,1.93-.09.79-1.08,1.69-.96,1.92.12.23.04,2.5,0,2.89-.04.38.1,2.96-.96,2.89-1.06-.07-2.82.24-2.89.96-.07.72-1.35,1.63-1.93,2.89-.58,1.26-.66,2.53-.96,2.89-.3.36,0,1.92,0,1.92,0,0-1.7.74-1.93.75-.45.02.36-1.22-1.22-2.8-1.82-1.83-2.46-1.47-2.64-1.8-.4-.75,0-1.18,0-1.92,0-.74,1.5-2.6,1.93-2.89.93-.63.6.27,1.93-.96,1.1-1.03,1.09-1.93,1.93-1.92.84,0,2.02-.49,1.93-.96-.1-.47-1.68-4.36-.96-4.81.71-.45,2.22-1.57,1.93-1.93-.3-.35-.71-1.13-.96-1.92-.25-.79-.86-2.16-.96-2.89-.1-.75-.18-2.27.33-2.05.51.22,3.84.03,3.52-.84-.32-.88.63-1.38,0-1.93-.63-.55-2.81-1.58-3.19-1.8-.54-.31-2.01-.15-1.62-1.09,1.35-3.28.42-3.01.96-2.89-.42-.1-1.89-1.39-1.72-1.72.2-.39-.35-1.26-.21-2.13.2-1.29,1.74-2.31,2.05-2.45.8-.36,1.9-.44,2.49-.84.22-.15-.59-1.45,2.94-.61,1.32.32,3.72-3.36,3.72-3.36,0,0,.56-.95.55-1.57-.02-1,.42-2.05.44-2.65.02-.61.24-3.04.34-2.96.1.08-.3-.78-.74-.87-.43-.1,2.1-2.2,2.1-2.2l.56.18,2.26,2.41s.38.03,1.7,1.08c1.54,1.24,1.58,1.48,1.58,1.48,0,0,.95,1.36,1.21,1.77.26.41,0,1.93,0,1.93,0,0-1.52,1.15-1.93.96-.41-.19-.68.44-.96.96-.28.52-.96,3.85-.96,3.85Z"/>
  <path class="cls-1" d="M115.83,82.01c.12-.64.7-2.31.96-3.85.26-1.54,0-2.89,0-2.89l-1.93-.96.96-1.93s-.13-1.49,0-1.93c.12-.43,1.89-1.56,2.89-2.89.98-1.3,2.89-2.53,2.89-2.53,0,0-.23-.6,1.86-1,1.36-.26,2.55-1.37,2.55-1.37,0,0,2.21-1.36.64-3.84-.26-.41,1.69-.89,1.69-.89,0,0,2.69,2.52,2.89,2.89.4.75.91,1.06.96,1.93.05.87.05.51.96.96.91.45,1.14,2.87,1.14,2.87,0,0,1.06.53.78.98-.28.44,0,1.93,0,1.93,0,0,0,1.12-.96,1.93-.96.81-.94.18-1.12,1.62-.18,1.44.62,2.99,1.12,3.19.5.2,1.24.36.96,1.93-.28,1.57-.96,5.78-.96,5.78l-1.75,2.26-2.1,1.59s-2.63-.72-2.89,0c-.26.72-2.38,1.28-2.38,1.28,0,0-1.22.08-1.8.52-.18.14-1.88-.41-2.68-.26-1.45.28-1.9-1.11-1.9-1.11,0,0-1.55-.06-1.84-.44s.52-.74.18-2.12c-.34-1.37-.18-2.69-.18-2.69,0,0-1.09-.33-.96-.96Z"/>
  <path class="cls-1" d="M89.64,70.14s.43-.4,1.38-1.47c.95-1.07,2.91-1.56,2.67-3.04-.24-1.47-.31-2.12-1.37-1.67-1.06.45-2.81,1.76-2.81,1.76l-.63-2.01s.25-3.37.07-3.32c-.18.05-.32-.74.73-1.01,1.05-.27,2.61-.54,4.01-1.44,1.41-.9,1.99-.47,2.89-.96.9-.49,2.89-1.93,2.89-1.93,0,0-.11,1.14.96,1.93,1.07.79,2.96,1.23,1.92,1.92-1.04.69-2.91-.78-2.89.96.02,1.74-.75,3.22,0,3.85.75.64,1.45,1.47,1.92.96.47-.51,1.55-1.51,1.93-1.92.37-.41,1.93,0,1.93,0,0,0-.49.93-.21,1.7.15.41-.31,1.58,1.41,3.34.75.77.65,1.37,1.69,1.69,1.01.31,2.34.02,2.89,0,.55-.02,1.2,2.14,1.2,2.14l3.61-1.17-.02,1.69-.95,2.16,1.93.96s.17.89.06,2.45c-.17,2.41-1.16,3.44-1.18,4.05-.04.88.57.44,1.12,1.2.35.48-.44,1.06,0,1.92.44.87,0,2.89,0,2.89,0,0,.9.16,2.04.84,2.09,1.24-.23.2.62.6l4.62.44s-1.29.88-1.5,1.97c-.21,1.09,1.03,2.76-.96,1.92-1.99-.84-3.98,1.12-4.81.96-.84-.15-1.37-.31-1.93-.96-.56-.66-1.46-.72-1.93-2.89s-1.19-2.97-1.93-3.85c-.73-.88-1.46-.92-1.46-.92,0,0-1.66.18-2.4-.05-.73-.23-2.87-2.74-3.49-3.13-.46-.29.08-1.77-.36-2.65-.59-1.18-1.12-1.48-1.93-1.92-.81-.44-2.41-.94-2.89-.96-.48-.03-.24-.32-1.38-.73-1.55-.56-2.08-.77-2.84-1.2-2.6-1.49-4.58-4.04-4.58-4.04l-.06-1.07Z"/>
  <path class="cls-1" d="M112.94,100.3s.07-.48.14-1.18c.09-1.07.14-2.63-.14-3.64-.46-1.67-.15-3.52-.15-3.52l.15-1.29s.71,2.45,2.3,3.26c2.06,1.04,1.93.55,2.97.11,1.13-.47,2.11-.68,2.11-.68,0,0,2.19-.15,2.46.41q.26.55.45.76c.85.94,1.27.95,1.27.95l-.9,3.46s.14.16.98.33c1.64.35,3.95,2.24,3.95,2.24l-.19,1.67s-.4.92-1.93.96c-1.32.03-1.98-.73-1.93.96.06,1.69.64,2.35.65,2.98,0,.64,1.01,2.41,1.01,2.41,0,0,.4.7-.19,1.19-.57.48-1.71.88-1.65,1.78.06.9,1.12,3.52,1.14,4.15.03.84-2.05.14-2.67,1.24-.91,1.61-2.34,2.48-3.1,2.61-.67.11-1.78,2.34-1.78,2.34l-4.96-.42s-1.56-.34-1.93-.96c-.37-.63-.65-1.77-.96-3.85-.32-2.08-1.42-4.36-.96-4.81.99-.99,1.13-1.98,1.84-2.16,1.83-.46,2.98-.73,2.98-.73,0,0-2.06-3.07-1.93-3.85.14-.78.39-1.65.39-1.65,0,0,.69-.91.85-1.51.15-.58-.27-3.58-.27-3.58Z"/>
  <path class="cls-1" d="M96.58,107.04s1.59.13,2.89-.96c1.3-1.1,1.92-.65,2.89-2.89.97-2.23,1.96-1.35,1.93-2.89-.04-1.54.04-2.87,0-3.85-.04-.98,0-2.89,0-2.89,0,0-.62-1.78-.29-3.03.33-1.25.38-2.19.29-2.75-.09-.56.12-1.47-.02-2.56-.2-1.53-.83-2.58-.83-2.58l.85.32s2.15,2.98,2.89,2.89c.74-.1,2.89,0,2.89,0,0,0,2.04,2.05,2.36,3.09.32,1.04.32,3.49.32,3.49,0,0-.18,1.61.07,2.45.21.71.42.69.33,2.08-.1,1.4-.23,2.68-.2,3.33.04.65.27,3.58.27,3.58l-1.23,2.19s-3.42-.02-3.85,0c-.82.04-1.68.24-1.68.24,0,0-1.79,1.58-2.51,1.56-.5-.02-2.19.22-2.19.22,0,0-1.79.16-2.76-.02-1.41-.26-2.44.62-2.82.84-.39.22-1.51-.92-1.51-.92l1.92-.96Z"/>
  <path class="cls-1" d="M100.43,127.25s2.33,1.24,2.89,1.92c.56.68-.38,3.35,0,3.85.37.5,2.66,1.34,2.89,1.92.23.59,1.42,2.17,1.93,1.92.51-.24.41.89,1.93.96,1.51.08,3.45.93,3.85.96.4.03.7.06,1.93-.96,1.22-1.02,1.99-.82,2.89-1.92s1.49-.73,1.93-1.93c.43-1.19.78-3.82.78-3.82l-1.03-2.08-2.73-2.02.07-2.25s-5.54-.15-6.52-1.15c-.62-.64-.65-1.46-.65-1.46l-.56-2.93-.75-2.75-.34-1.57s.52-.48,1.19-1.67c.63-1.12,3.8-1.4,3.8-1.4,0,0-.46-.83-.87-1.39-1.65-2.25-1.05-3.42-1.05-3.42l-3.37-.14c-2.66,0-4.21,2.17-4.08,2,0,0-1.5-.2-2.18.07-.67.27-4.81,0-4.81,0l-2.89,1.93s.57,2.02.96,1.93c.39-.1.25.37.96.96.71.59,2.41,1.98,1.93,1.92-.48-.06-1.93.96-1.93.96,0,0-.71,1.4,0,1.92.71.53.96,1.93.96,1.93,0,0-1.22.76-1.93.96-.7.2-1.04-.29-.96.96.08,1.25,1.94,2.51,1.92,2.89-.02.38,2.04,1.28,1.93,1.92-.12.65,1.93.96,1.93.96Z"/>
  <path class="cls-1" d="M120.65,74.3s3.15-2.04,2.89-2.89c-.26-.85,0-.96,0-.96,0,0-.29-1.4,0-1.92.29-.52,1.73-.49,1.93-.96.19-.47.96-.96.96-.96,0,0,1.5-.21,1.93.96.42,1.18.4,1.76.96,1.93.56.16,1.37,1.12.96,1.93-.4.81.12,1.58-.96,1.92-1.09.35-2.49,1.49-2.89,1.92-.39.43-1.62,1.22-1.93,1.93-.31.7-1.93,1.92-1.93,1.92h-1.93v1.93l-.96,2.89-.96-.96-.2-3.06,1.17-3.68.96-1.92Z"/>
  <path class="cls-1" d="M74.44,62.75s1.49-2.62,1.92-2.89c.43-.27,1.95.64,1.93,0-.03-.64,8.76.27,8.66,0-.1-.27,1.74-.46,1.93,0,.18.46,0,3.22,0,3.85s.28,2.48.96,1.93c.68-.56,2.89-1.93,2.89-1.93,0,0,.92.6.96,1.93.01.5.14,1.12-.96,1.92-1.11.81-2.37,1.35-2.42,1.88-.05.53-1.52.62-.47,1.98,1.05,1.36,1.98,2.41,2.89,2.89.91.48,1.73,1.21,2.87,1.58.96.31,2.1.98,2.9,1.31.8.34,2.42.67,2.89.96.47.29,1.55,1.37,1.93,1.92.37.56,0,1.1,0,1.93,0,.83.96,2.89.96,2.89,0,0-.14,1.98,0,2.89.14.91-.42,3.96-.96,4.81-.54.86-.39,1.53-1.93,1.92-1.54.4-3.6-.12-3.85.96-.25,1.08-2.23,2.22-2.89,1.93-.66-.3-2.38-.53-2.89-.96-.51-.43-1.97-.49-2.89-1.92-.91-1.43-2.89-2.89-2.89-2.89h-3.85s-5.57.47-6.74.96c-1.16.49-2.05,2.17-2.89.96-.84-1.2-1.93-3.85-1.93-3.85,0,0-.91-1.41-1.05-4.3-.06-1.25.39-2.83,2.01-4.37,1.41-1.33,2.71-2.94,2.89-3.85.26-1.36,0-2.4.56-3.42.41-.74,1.11-.83,1.57-1.81.54-1.14,1.15-2.07-.2-3.44-1.22-1.23-2.62-2.57-2.45-3.13.16-.56.53-2.64.53-2.64Z"/>
  <path class="cls-1" d="M82.14,108s.96-1.66,1.93-2.89c.96-1.23,1.69-1.98,2.89-2.89,1.19-.91,3.85-2.89,3.85-2.89l1.93-.96s-1.65,2.1-1.93,2.89c-.28.79-1.92,2.89-1.92,2.89v1.92c0,.73.1,1.47.96,1.92.87.45.96,1.93.96,1.93,0,0-1.01.28-1.92.96-.91.68-2.21.51-1.93.96.28.45-1.38,1.66-1.92.96-.55-.69-1.93-2.89-1.93-2.89h-.96v-1.93Z"/>
</svg>