<?xml version="1.0" encoding="UTF-8"?>
<svg id="_レイヤー_1" data-name="レイヤー 1" xmlns="http://www.w3.org/2000/svg" viewBox="0 0 230.13 193.86">
  <defs>
    <style>
      .cls-1 {
        fill: none;
        stroke: #000;
      }
    </style>
  </defs>
  <path class="cls-1" d="M70.45,109.79l4.81-3.85,3.85-.96s2.15-2.33,1.93-1.92c-.22.4,1.15-1.88,1.93-1.92.78-.05,1.89-.23,2.89-.96,1-.73,2.95-.73,2.89-1.93-.06-1.19-.67-6.61,0-6.74.67-.13,2.08.21,1.93-.96s.98-2.59.96-2.89c-.02-.3,1.93-.96,1.93-.96l1.92-3.85s.12.15.96.96c.85.81,3.75,4.25,3.85,4.81.11.57,1.1,2,2.89,1.93,1.79-.08,3.35-2.13,3.85-1.93.5.2,4.01,1.18,4.81.96.81-.21,3.85-2.89,3.85-2.89l1.8.9c.64,2.98.86,2.94,1.35,4.39.31.92-2.62.49-2.62.49,0,0-2.99-.2-5.41.67-2.34.84-5.36,1.19-6.86,1.26-1.23.06-.94.63-1.75,1.92-.99,1.58-2.08,3.91-2.29,4.96-.21,1.05-.61,1.59-1.26,2.45-1.01,1.34-1.72,1.47-2.22,2.22-.45.68-1.15,1.21-2.18,1.01-1.03-.2-1.67-.04-1.67-.04,0,0,.54,2.1.81,2.67.32.65.72,2.22.15,3.11-.58.9-1.84.4-2.23,1.19-.38.79-.49.58-1.17,1.71-.71,1.18-2.79,1.68-3.34,1.91-.56.23-.77,2.72-.45,3.37.42.88,2.23.07,2.36.57.12.5-.94,3.76-.94,3.76,0,0-2.39.51-3.85,0-1.46-.51-2.89-2.89-2.89-2.89,0,0-.33-.46,0-.96.33-.5-.96-2.89-.96-2.89l.96-1.93,1.93-1.93-.96-1.92s-1.57,2.37-1.93.96c-.36-1.41-.96-2.89-.96-2.89v-1.93l.96-1.92h-.96s-1.16-.94-1.93,0c-.76.94-2.44,3.19-2.89,2.89-.44-.3-2.89.96-2.89.96l-.96-.96Z"/>
  <path class="cls-1" d="M88.74,130.97h-2.89l1.93-2.89v-2.89s.4-.92.62-1.65c.12-.41.34-2.2.34-2.2,0,0-2.64.16-2.58-.77.07-1.03.07-3.31.65-3.08.59.23,2.89-.96,2.89-.96,0,0,1.03-2.4,1.93-2.89.9-.49,1.3-.52,1.93-.96.62-.44.12-3.14,0-2.89-.12.25-.96-2.89-.96-2.89h2.89l1.93-1.93,1.93-1.92.96-2.89s1.55-3.12,1.93-3.85c.38-.73,1.1-2.02,1.93-1.93.83.1,5.42-.56,5.78-.96.36-.4,5.78-.96,5.78-.96h2.89s2.37.09,2.89.96c.52.88,3.85,2.89,3.85,2.89l1.93-1.93h1.93s-.22,3.21.96,3.85c1.18.64,3.12.37,2.89.96-.23.6-.19,2.05-.26,3.16-.07,1.08-.58,1.42,1.46,1.45,2.47.04,3.72.19,3.72.19,0,0-1.48,1.95-2.04,2.9-.56.94-1.46,3.1-1.92,3.85-.46.75-1.1,2.28-.96,2.89.13.61-.96.96-.96.96,0,0-.55.35-1.93-1.92-1.38-2.27-.46-2.32-1.93-3.85-1.46-1.53-2.48-1.41-2.89-1.92-.4-.52-.98-2.05-2.89-1.93-1.91.13-3.85-.96-3.85-.96,0,0-2.78,1.2-2.89.96-.11-.24-1.64.16-2.89.96-1.25.81-2.05,1.4-1.93,1.93.13.53-.59.48-.96.96-.38.48-3.85.96-3.85.96,0,0-.64,1.4-.96,1.92-.17.29-.29.02-.28,0,.01,0,.1.17.28.95.41,1.75.04,2.46-.96,3.85-1,1.39-2.4,2.01-2.89,2.89-.49.88-.89-.41-.96.96-.08,1.38.53,2.75-.96,2.89-1.49.14-2.18.97-1.93,1.93.25.95.3,1.43,0,1.92-.3.49-.96.96-.96.96,0,0-.66,1.4,0,1.92.66.53,3.83,2.69,2.89,2.89-.94.2-5.21-.85-4.81-.96,0,0-1.49.21-1.92.96-.43.75-2.89,0-2.89,0l-.96-1.92Z"/>
  <path class="cls-1" d="M115.7,78.98s3.42-.4,3.85-.96,2.88-1.38,3.85-2.89,1.14.05,2.89,0c1.74-.05,3.03.96,3.85,0,.82-.96,1.93-.96,1.93-.96,0,0,3.49,2.48,3.85,2.89.36.4,2.13,1.79,2.89,1.92.76.14,2.89.96,2.89.96l-.96,2.89s-.63-.81-1.84-1.84c-.32-.27-3.59.73-4.66.8-1.7.12-2.02-.08-2.76,1.2-.55.94-1.32,1.76-1.32,1.76l-2.52-.65-1.02-.59-3.81.45s-.8.93-1.75,1.45c-.84.46-2.85,1.48-2.85,1.48l-.58.75-1.93-.96s-1.17-1.87,0-2.89,2.31-2.93,1.93-2.89c-.39.04-1.93-1.93-1.93-1.93Z"/>
  <path class="cls-1" d="M146.5,81.87c-.36,1.09-2.76,2.77-1.93,3.85.84,1.08,1.37,1.13,1.93,1.93.56.8.82,2.23.96,2.89.14.65.5,2.93.96,2.89.46-.04.96.96.96.96,0,0-4.01.65-4.81,1.93-.81,1.28-.85,2.66-1.93,2.89-1.08.23-2.32,1.61-2.89,1.93-.57.32-1.45,3.08-1.93,2.89-.47-.19-5.09-.22-5.09-.22.02-.78.02-.76.03-2.55,0-1.37.2-2.28.2-2.28,0,0-2.49-.4-2.83-.73-.57-.54-.81-3.49-.97-3.56-.88-.41-1.91-.29-1.91-.29,0,0-1.52,2.06-1.93,1.93-.4-.14-2.94-1.69-3.4-2.39-.23-.35-1.23-1.06-1.23-1.06l-1.84-.71-1.37-4.47s1.18-1.02,3.03-1.96c1.85-.93,1.73-1.82,2.89-1.92,1.15-.11,3.44-.63,3.85,0,.41.63,2.44.94,2.89.96.45.03,1.93-2.89,1.93-2.89,0,0,1.69.09,1.93,0,.71-.27,4.81-.96,4.81-.96l1.93,1.92.96-2.89.96-.96,3.85,1.93s.36-.12,0,.96Z"/>
</svg>