<?xml version="1.0" encoding="UTF-8"?>
<svg id="_レイヤー_1" data-name="レイヤー 1" xmlns="http://www.w3.org/2000/svg" viewBox="0 0 230.13 193.86">
  <defs>
    <style>
      .cls-1 {
        fill: none;
        stroke: #000;
      }
    </style>
  </defs>
  <path class="cls-1" d="M133.19,70.55s5.15.97,5.78,0c.63-.97.96-.96.96-.96h5.78s.26.84,1.92.96c1.67.12,4.3.61,4.81,0,.51-.61-.6-1.78.96-1.93,1.56-.14,2.67,1.16,3.85.96,1.18-.19,2.67-.27,3.85-.96,1.18-.69,3.22-2.89,3.85-2.89s3.22-1.15,3.22-1.15c-.94,2.09-.95,1.99-1.3,3.08-.2.64-1.08,1.85,0,2.89,1.08,1.04,2.89,2.89,2.89,2.89,0,0-.66,2.49-.96,2.89-.3.39-1.54,1.26-1.92,1.93-.39.66-2.2.99-3.85,1.92-1.66.93-3.66.71-3.85,0-.19-.71-.55-2.32-1.93-2.89-1.38-.57-3.3-2.19-2.89-1.92,0,0-1.52.75-1.93.96-.4.21-1.43,1.62-1.92,1.93-.49.3-2.91.43-2.89,0,.02-.43-.39-2.32-1.92-1.93-1.53.39-2.05-.12-2.89.96-.84,1.08-1.45.58-2.89,1.92-1.43,1.35-2.89,1.93-2.89,1.93,0,0-.54.86-1.11,1.53-.44.52-1.9,1.48-1.9,1.48,0,0-.1.54-.85.85-1.02.42-5.24-.14-4.81,0,.42.15-.06-.7,0-1.93.06-1.22.32-1.26,1.93-2.89,1.61-1.63,2.89-1.22,2.89-2.89s-.37-1.91,0-2.89c.37-.98,0-3.85,0-3.85Z"/>
  <path class="cls-1" d="M139.72,105.71l-2.17-4.46s-.36-.7-1.47-2.78c-1.32-2.49-.76-3.4-.85-4.28-.1-.88-1.07-2.46-1.07-2.46,0,0-1.05-2.3-.96-2.89.22-1.51,0-3.85,0-3.85l3.85-3.85s1.02-.35,1.93-.96c1.51-1.01,4.11-3.05,4.48-3.27.63-.39,2.02-.54,2.26-.58,1.4-.24,2.06,2.08,2.06,2.08h2.48s1.99-1.92,1.99-1.92l2.13-1.12,1.86,1.38s1.59.77,1.99,1.25c.4.48.79,1.61.96,2.17.17.57.84.75,1.69.61,1.11-.18,3.28-1.09,4.09-1.57.81-.48,2.15-1.27,2.15-1.27-.02,1.21-.23,3.2-.23,3.2,0,0-1.39,2.46-1.93,2.89-1.85,1.49-2.89,3.85-2.89,3.85,0,0-.4.65,0,2.56.4,1.92.6,2.59.95,3.21.36.63-.16-.13.52,1.19.67,1.32,1.41,2.66,1.41,2.66,0,0-2.01-.99-2.89,0-.88.99-1.96,2.04-2.89,2.89-.92.85-1.56.99-2.89,1.93-1.33.93-3.17,2.47-2.89,2.89.28.42-.57,1.96-2.89,1.93-2.32-.04-4.81,0-4.81,0l-.96-1.93-.96,1.93-2.13-.47-1.93-.96Z"/>
  <path class="cls-1" d="M86.92,100.01s2.91-1.12,3.91-2.5c1-1.39,4.88-6.05,5.78-6.74.9-.69,2.77-2.8,3.85-3.85,1.08-1.05,2.89-1.93,2.89-1.93l1.93-.96s3.39-3.32,3.85-3.85c.46-.53,2.2-1.49,2.89-1.92.68-.43,1.52-.76,1.93-.96.4-.2-.59-3.47,0-3.85.59-.39,1.98-1.64,1.93-1.93-.06-.29,3.85-1.92,3.85-1.92,0,0,1.63-2.01,2.89-1.93,1.26.09,3.33,1.19,3.85,0,.52-1.19,7.7,0,7.7,0l-.96,2.89s.29,2.37.08,3.56c-.4,2.17.62,3.02-.45,4.29-.83.98-2.63,1.9-2.93,2.2-.68.68-1.45,1.93-1.45,1.93,0,0,.27,2.15-.09,2.22-1.33.26-4.74.08-5.75.24-1.56.24-2.64-.69-2.89,0-.25.69-1.04,1.77-1.93,2.89-.58.74-.74.07-1.76.89-1.02.82-.94,1.21-.94,1.21,0,0,2.58,1.28,2.17,2.2-.13.28-3.62,2.16-3.62,2.16,0,0-1.29.86-3.12,1.21-1.83.36-4.7-.83-5.77-.56-.59.15-1.52-.13-2.37.59-.85.72-1.73,1.29-2.03,1.74-.25.37-.48.07-.85,1.15-.66,1.91,0,2.46-.61,3.29-.72.99-1.65,1.6-2.53,2.95-.75,1.16,0,3.2-.71,4.34-.6.97-1.12,2.7-1.93,2.89-1,.24-5.44-.22-5.44-.22,0,0-1.84-.47-1.3-1.21.53-.74.95-1.7.95-1.7,0,0-.51-.25-.95-.71-.44-.46-.92-.86-1.42-1.96-.59-1.3-.79-2.42-.28-3,.51-.58,1.64-3.13,1.64-3.13Z"/>
  <path class="cls-1" d="M100.37,115.52s2.58-2.1,2.97-2.61c.39-.51,2.89-2.89,2.89-2.89h1.93l1.93,1.92s-.6,3.77,0,3.85c.6.09,2.07,1.11,2.89.96.82-.15,4.14-1.88,3.85-1.93-.06,0-.09,0-.09,0,0-.02.43-.07,1.05-.95.76-1.11,3.19-2.38,2.89-1.93-.3.45-.53-.45.96,0,1.49.45,3.28.28,3.85,0,.57-.28,1.45-1.56,1.92-1.92.47-.37.96-.96.96-.96,0,0,2.43-.88,2.89-.96.46-.09,1.19.18,1.92.96.73.78,1.11,1.33,1.93.96.82-.37,2.21-1.66,2.89-1.92.67-.27,1.93-2.29,1.93-2.29l-1.64-3.05s-.93-1.36-1.24-2.37c-.19-.61-.88-1.19-.96-1.92-.2-1.8-.71-.96-.96-2.89-.05-.38.31-1.03,0-1.93-.73-2.15-1.29-2.31-1.61-3.2-.4-1.08-.43-1.81-.31-2.58.12-.75,0-2.89,0-2.89l-4.41.02-1.16-.24-6.34.24s-.95-.72-1.56-.02c-.62.69-1.22,2.52-1.93,2.89-.7.37-3.24,1.47-2.89,1.93.36.45,3.49,2.03,1.92,2.89-1.57.86-2.84,1.52-3.85,1.92-1.01.41-2.85,1.34-3.85.96-1-.38-2.76-.66-2.76-.66l-3.43.18s-.78.7-1.4,1.19c-.63.49-1.31.97-2.03,2.17-.53.89-.3,3.65-.96,3.85-.66.2-1.36,1.45-1.93,1.93-.57.47-.53,2.28-.62,3.17-.11,1.05-.19.8-.1,1.76.13,1.38,2.76,1.95,2.65,2.77-.12.82-.4,1.84,0,2.89.56,1.49,1.83.69,1.84.69Z"/>
  <path class="cls-1" d="M62.91,115.8s-2.57-3.94-1.93-3.85c.64.09,1.83.55,2.89-.96,1.06-1.51,1.33-3.35,1.92-2.89.6.46,3.85,1.92,3.85,1.92,0,0,.34,2.29,1.92.96,1.59-1.33,1.81-1.24,2.89-1.93,1.08-.68,2.14-2.35,2.89-2.89.75-.54,1.93-1.93,1.93-1.93,0,0,1.91-.2,1.92-.96,0-.76-.29-1.54.96-2.89,1.25-1.35,4.07-.58,3.85-.96-.22-.39,1.05.12.96.96-.09.85-2.12,2.47-1.93,3.85.19,1.39.64,2.19.96,2.89.33.69,2.06.96,1.93,1.92-.13.96-1.42.88-.96,1.93.46,1.05,3.85.96,3.85.96l3.08-.09,1.73-2.8s.43.6.96.96c.53.37,1.86,1.47,1.93,1.92.07.45-.36,2.65,0,2.89.28.19.39,1.06.96.96.57-.1.83-.56,1.03.25.27,1.12.51,1.05-.06,2.64-.58,1.59,1.22,1.81.96,2.89-.26,1.08.99,2.5,0,2.89-.99.39-1.58.44-1.93.96-.35.52-1.58,1.32-.96,1.92.62.61,2.5,1.96,1.93,1.92-.58-.04-3.85-1.92-3.85-1.92l-2.89-.96s.05.07-1.93-1.93c-1.97-1.99-4-2.32-4.81-2.89-.82-.57-1.57-.71-1.93,0-.36.71-1.12.3-1.93.96-.81.66-4.81,0-4.81,0,0,0,.58,1.72,0,1.92-.58.2-2.89-1.92-2.89-1.92v1.92s-.21.63-.96.96c-.75.34-2.74,1.12-3.85,0-1.11-1.13-.73-1.26-1.93-1.93-1.19-.66-1.38-1.91-1.93-1.93-.55-.02-.28.66-.96.96-.68.3-2.07.16-1.92.96.14.8.59,1.59,0,1.93-.59.34-1.79-1.44-1.93-1.93-.13-.48-.14-1.64-.96-2.89-.82-1.25-.83-1.5,0-1.93.83-.42,1.73-2.97,1.93-2.89Z"/>
</svg>