<?xml version="1.0" encoding="UTF-8"?>
<svg id="_レイヤー_1" data-name="レイヤー 1" xmlns="http://www.w3.org/2000/svg" viewBox="0 0 230.13 193.86">
  <defs>
    <style>
      .cls-1 {
        fill: none;
        stroke: #000;
      }
    </style>
  </defs>
  <path class="cls-1" d="M151.77,38.98c.16.32.48-4.5.96-4.81.48-.32.44-2.37.44-2.37l2.45-3.41s2.52,1.52,2.89,1.93c.24.26,2.01,1.52,2.71,3.92.31,1.08.8,1,1.72.89.5-.06,1.35,0,1.35,0l.96,2.89s-1.28,3.21-2.89,3.85c-1.61.64-2.89,2.09-2.89,1.93s-1.23,3.19-1.38,3.62c-.8,2.22-.32,3.35-.32,3.35,0,0,.26,3.17.74,3.62.55.53,2.92,1.84,2.44,1.68-.48-.16-3.56,2.49-3.4,3.13.16.64-2.24,3.69-1.93,4.81.32,1.13.96,2.72,0,2.89-.96.16-5.77,1.92-5.77,1.92,0,0-4.01.65-3.85.96.16.32.32,4.33,0,4.81-.32.48-2.01,1.42-1.93,1.93.25,1.45.32,1.92.96,2.89.64.96,0,3.53,0,3.85s-.64.64-.96.96c-.32.32-4.81,1.93-4.81,1.93l-1.93,3.85s0,.48-1.93,1.93c-1.93,1.44-2.73,2.09-2.89,2.89-.16.8-4.17,1.13-3.85.96.32-.16-.41-1.35-.3-2.63.02-.24-.31-.83-.31-.83,0,0-.83-.87-1.31-2.31-.48-1.44-.96-1.61-.96-2.89s-.16-2.41-.96-1.93c-.8.48-3.53.96-3.85,1.93-.32.96-2.16,2.19-2.89,2.89-1.41,1.35-2.29,3.09-2.89,2.89-.61-.2-2.89-1.28-2.89-.96,0,.37-1.93,1.33-1.93.96,0-.32-.96-1.93-.96-1.93l-1.93-.96-.96-.96-2.21,2.69-2.61,4.04s-.49-.63-.96-1.93c-.8-2.21-.5-4.38-.5-4.38l-1.43-1.39-.96-.96s3.05-1.61,3.85-1.93c.8-.32,5.61-1.28,5.78-1.93.16-.64,2.89-2.89,2.89-2.89l2.89-.96c.48-.16,4.17.8,4.82,0,.64-.8,1.93-3.05,3.85-4.81,1.93-1.76,4.65-1.93,4.82-2.89.16-.96.32-2.24,1.93-3.85,1.61-1.61,2.09-3.37,2.89-3.85.8-.48,1.28-2.57.96-2.89-.32-.32.96-5.78.96-5.78,0,0,3.85-3.05,5.78-3.85,1.93-.8,4.33-.32,5.78-1.93,1.44-1.61,4.01-2.57,4.81-3.85.59-.94,2.01-2.55,1.93-2.89-.32-1.28-.16-4.17,0-3.85Z"/>
  <path class="cls-1" d="M116.15,44.76s2.89-1.93,2.89-2.89,1.76-2.09,1.93-2.89c.16-.8,1.93-2.89,1.93-2.89,0,0,.8,4.01,0,5.78-.8,1.76-1.13,3.85-.96,3.85s.96.65.96.96,2.73-1.44,2.89-.96c.16.48,0,2.89,0,2.89,0,0-1.61.16-1.93.96-.32.8-.65,2.72-1.93,3.85-1.28,1.13-3.21,3.21-3.85,2.89-.65-.32-2.89-.96-2.89-.96,0,0,1.76-1.92,1.93-2.89.16-.96.48-.8.96-1.92.48-1.13-.16-3.21,0-2.89.16.32-1.93,1.92-1.93,1.92,0,0-.48.96-.96,0-.48-.96,1.28-2.89.96-2.89s0-1.93,0-1.93Z"/>
  <path class="cls-1" d="M101.7,95.78s2.01-2.45,1.93-2.89c-.09-.44,2.89-3.85,2.89-3.85,0,0,3.35,2.23,3.56,3.13.36,1.5,1.77-.45,3.12.19.62.29,2.2.52,2.2.52l3.02-3.2s1.56-.73,2.12-2.03c.77-1.77,3.86-2.28,3.86-2.28,0,0,1.33-.77,1.26.37-.09,1.36.68,3.29.68,3.29,0,0,.44,2.2,1.36,2.89.91.69.65,2.25.96,2.89.31.64.75,1.19,0,.96-.75-.23-3.02,1.34-4.12,2.24-1.82,1.49-2.81,1.83-3.58,2.57-.7.68-.28,1.54-.74,3.22-.46,1.68-.14,1.25.28,2.34.42,1.09,2.73,2.44,2.73,2.44,0,0,1.83,1.06,1.58.67-.25-.39.36-1.61.96-1.92.8-.42,1.93,1.92,1.93,1.92v3.85s-.55,1.9-.96,2.89c-.41.99.69.31.83,2.37.17,2.44.16,3.66.16,3.66l2.1,1.67.28,1.21s.65,1.36-.74,1.83c-1.67.56-2.38,1.15-3.59-.15-1.21-1.3-.87-1.25-1.93-.96-1.06.29-1.03-.19-1.93,0-.9.19-1.94.49-1.94.49,0,0,0-.37-2.18,1.09-2,1.33-1.65,1.31-1.65,1.31,0,0,.02,2.4-.96,3.85-1.2,1.77-.72.85-.62,2.87.09,1.96-.14,4.16-.59,5.37-.39,1.07-.96,2.57-1.37,4.36-.36,1.57-.39,1.22-3.09,2.24-1.42.54-1.2,1.85-2.68,3-1.3,1.01-2.8,1.65-3.63,2.28-.94.71-4.01-.85-4.4-.87-.39-.02-1.16.71-1.93.96-.76.25-1.89-2.35-1.89-2.35,0,0,.3-2.8.92-3.43,2.88-2.88,2.87-1.78,1.48-4.45-.48-.92-3.56-1.45-2.84-2.63.72-1.19,1.49-2.19.4-3.51-.46-.56-1.02-.33-1.63-2.09-.62-1.76-.7-1.73-2.22-2.72-1.52-.99-1-2.6-1-2.6,0,0-.04-.7.23-1.33.33-.77.81-.28,2.23-1.01,1-.51,3.08-2.33,3.08-2.33,0,0,1.2-1.8,1-2.57-.12-.46-1.27-1.22-1.27-1.22,0,0-.5.22-.6-1.26-.07-.91.59-1.43,1.15-3.09.56-1.66.49-2.53.96-2.89.47-.36,1.27-1.19.96-1.93-.31-.73-.96-1.92-.96-1.92l-.62-1.25,1.58-3,2.89-2.49s.58-1.82.68-2.79c.08-.71.28-3.95.28-3.95Z"/>
  <path class="cls-1" d="M119.89,148.47s.12,2.8,1.07,4.11c.95,1.31,2.36.97,2.89.96.53,0,1.04-5.19.96-5.78-.08-.59,2.17-2.54,1.93-2.89-.24-.35.58,1.72.96,1.92.39.2,3.05.67,3.05.67,0,0,.56-1.02.81-1.63.25-.61,2.89,0,2.89,0l4.49-.17s-2.85-1.4-2.32-1.92c.71-.7,2.2-1.65,2.92-1.85,3.73-1.07,2.45-1.27,3.22-2.66.18-.33.14-3.38.14-3.38,0,0-2.5-.54-3.29-1.64-1.37-1.91-2.27-2.81-2.27-2.81,0,0,.57-2.65.12-2.37-1.31.81-4.94-.52-4.94-.52l-2-2.17-3.45,1.18-1.28-.94s-.52-1.33-1.93-.96c-1.41.37-2.89,0-2.89,0l-3.85,1.93s-.84-.03-.96.96c-.28,2.22-.48,2.89-.96,3.85-.18.36-1.06,1.4-.96,1.92.1.53.02,1.53.38,1.9.37.38,1.64,1.84,1.64,1.84,0,0-.91,2.13-.09,3.96.82,1.84,1.16,5.06,1.47,5.54.94,1.48,2.28.93,2.28.93Z"/>
  <path class="cls-1" d="M74.74,92.89l.12-2.65s.13-.6,1.81-2.16c1.65-1.55,3.85-.96,3.85-.96l-.96,3.85s-.14.95,0,1.93c.14.97,2.1,2.16,2.89,2.89.79.73,2.68,1.19,3.85.96,1.18-.23,2.13-.79,2.89-1.92.76-1.14,1.86-1.46,1.93-2.89.07-1.43-.26-2.41.96-2.89,1.22-.48,2.89-1.93,2.89-1.93h2.89s1.23,1.54,1.93,1.93c.45.25.39,2.13.39,2.13,0,0-.28,1.45.58,2.69.86,1.24.96,1.89.96,2.89,0,3.13-.97,5.84-1.35,6.11-.38.27-2.8,2.23-3.21,3.49-.4,1.26-.52,2.09-2.19,1.96-1.67-.13-3.18.06-4.18-.7-.99-.76-2.33-1.07-3.53-1.23-1.19-.15-3.31-.71-3.56-.15-.25.56-.9.59-1,1.06-.1.47-.92,3.3-2.63,5.32-.89,1.05-1.18,1.1-2.44-.45-.94-1.15-1.93-1.93-1.93-1.93,0,0-2.89,3.24-2.89,2.89s-.21-3.75-.24-4.16c-.29-3.53-.9-6.41-.72-7.4.17-.99.64-2.69.64-2.69.36-.39.9-2.48.9-2.48l1.33-1.02.02-2.47Z"/>
  <path class="cls-1" d="M96.95,141.91c1.1,1.64,1.91,2.25.89,2.97-1.02.71-1.08,1.18-1.56,1.72-.68.76-1.1,2.2-1.24,3.17-.15,1-.27.59-1.58,1.14-2.04.86-1.46.61-2.91.48-.91-.08-.53-.8-2.34-.74-1.81.06-3.31,1.81-3.92,1.26-.61-.55-.89-.96-1.86-2.23-.97-1.27-1.8-3.6-2.89-3.85-1.09-.25-4.31.44-5.17.95-.97.57-2.09-.07-2.53.97-.39.92-2.57,1.45-2.23,2.77.79,3.04-.66,3.97-.66,3.97,0,0-.82-.25-1.93-.96-1.11-.71-1.93-1.93-1.93-1.93,0,0-1.49-1.72-1.92-.96-.43.76-1.93,1.92-1.93,1.92,0,0-1.65-2.83-.96-3.85.68-1.02,2.11-1.94,1.93-2.89-.18-.95.26-1.76-.02-2.38-.28-.62-1.02-.66-.94-1.47.08-.81-.38-1.35-.38-1.35,0,0-1.25-.79-1.55-1.54-.3-.75-.96-2.89-.96-2.89,0,0-.48-1.45.37-2.29.37-.37.59-.59,1.55-1.56,1.15-1.15,1.04-1.53,3.07-1.29,2.03.24,2.06.61,3.34.14,1.03-.38,1.39-.57,3.22-.78,1.83-.2,2.53-.31,2.89-.96.36-.66,1.4-.9.96-1.93-.43-1.03-1.93-2.89-1.93-2.89,0,0-1.93-.96-1.51-1.14.41-.17-.75-2.6-.42-2.71.34-.12,1.15-.4,1.15-.4,0,0,1.05-1.91.78-2.49-.27-.58.96-4.81.96-4.81l2.89-2.89s.7.92,1.93,1.93c.68.55.72,2.2,1.93.96,1.2-1.24,1.34-1.25,1.93-2.89.77-2.14,1.4-3.35,1.93-3.85.53-.5,2.89,0,2.89,0,0,0,2.29.31,3.85.96,1.56.65,1.92.74,2.89.96.97.22,3.24-.29,3.24-.29l1.82,3.54-.7,1.19s-.98.14-.95,1.3c.03,1.16,0,1.4-.73,2.53-.69,1.06-1.21,2.61-.75,3.28.46.67,1.69,1.72,1.69,1.72l-.72,2.14s-.35.85-1.93,1.92c-1.58,1.08-3.65,1.52-3.65,1.52l-.2,1.37c-.2,1.37.18,2.29.96,2.89.78.6,1.48.78,1.93,1.93.44,1.14.43,1.57,1.61,2.55,1.69,1.4.48,2.9.48,2.9,0,0-1.29,1.42-.16,1.91l1.99,1.22Z"/>
  <path class="cls-1" d="M56.44,112.15s5.43-4.23,5.78-4.81c.35-.59,2.6-3.23,2.89-3.85.29-.62,2.48-5.81,2.89-5.78.4.04.98-1.92,1.93-3.85.94-1.93,2.2-2.25,1.93-2.89-.27-.64-.96-4.81-.96-4.81,0,0,.19-.96,0-1.93-.19-.96-2.24-3.39-1.93-3.85.32-.46.89-3.18.96-3.85.07-.68,1.16-3.16.96-2.89-.04.06-.07.08-.08.07-.03-.02.32-.46,2-1.03,2.12-.71,2.05-.34,3.85-.96,1.8-.63,2.73-1.45,3.85-1.93,1.13-.47,3.55-2.48,4.82-2.89,1.26-.41,2.4-1.34,2.89-.96.49.38,1.93,1.93,1.93,1.93,0,0,.04,1.34-.96,1.92-1,.59-2.89,1.93-2.89,1.93,0,0,.23,1.3,0,1.92-.23.63-1.32,1.64-1.93,1.92-.61.29-1.93,0-1.93,0,0,0,.29,1.44-.96,1.93-1.25.48-1.93,1.93-1.93,1.93h-2.89l-.96.96-.96,1.93.96.96s3.37.53,2.89,0c-.48-.53,0-1.92,0-1.92l1.93.96v1.92l.96,1.93-.96.96h-1.93s-1.95.46-2.89,1.93c-.94,1.46-.8,1.84-.96,2.89-.16,1.05-.02,3.43-.02,3.43l-.94.42c-.42.19-2.19,5-1.93,5.78.26.78.96,10.59.96,10.59,0,0,0,1.11-.17,1.56-.17.44-1.09,3.23-.83,3.78.26.56,0,2.66,0,2.66l-1.9.66s-2.13.84-2.89-.96c-.76-1.8-.96-1.92-.96-1.92,0,0-5.93-.48-5.78,0,.15.48-1.17-.06-1.93-.96-.85-1.02-1.93-2.89-1.93-2.89v-1.92Z"/>
  <path class="cls-1" d="M100.74,158.36c.02,1.37.38-5.68.8-5.69.42,0,1.48,0,3.05-1.05.33-.22,2.89-1.92,2.89-1.92,0,0,1.59-2.73,2.89-2.89,1.3-.15,1.67-.18,1.93-.96.26-.78.96-2.52.96-2.89s.96-2.89.96-2.89c0,0,.36-3.97.72-3.59.37.38,1.32,1.47,1.05,2.32-.75,2.37.23,2.98.52,4.2.29,1.22.7,3.15.82,3.57.28.98.83,1.66,1.22,1.8.71.26,1.3-.38,1.45.37.14.75.08,3.24.68,3.49.6.25.2.87,1.39,1.21.96.27,1.14.64,1.99-.25.72-.75.75-5.41.75-5.41l1.93-2.89s.05,1.37.96,1.92c.91.56,1.23.33,2.56.58.78.15.87-1.12,1.3-1.54.42-.42,2.53.07,2.89,0,.36-.07,2.42.25,2.89,0,.47-.25,1.6-.17,1.6-.17,0,0,.89,2.31.32,3.06-.57.75-.45,1.38-.41,1.97.04.59.45,3.19.45,3.19l.81,1.13s1.07.44,2.03,4.29c.16.62,1.92,2.89,1.92,2.89,0,0-.42,2.62-.96,2.89-.54.27-1.38,1.64-1.92,1.92-.55.29-1,2.31-1.93,2.89-.92.58-.98.8-1.93,1.93-.95,1.12-2.37,3.42-2.89,2.89-.52-.53-3.14-2.6-2.89-2.89.25-.29-1.46-3.35-.96-3.85.5-.5.9-4.36.96-4.81.07-.45.96-2.89.96-2.89l1.93-.96v-2.89s1.77-.8-.96-.96c-2.73-.16-5.78,0-5.78,0,0,0-1.94.33-1.93.96.02.64-1.59.39-.96,1.93.63,1.54-.96,2.89-.96,2.89l-3.85.96-.96,1.92s.32.5-.96,1.92c-1.28,1.43-2.91,1.86-2.89,3.85.02,1.99,1.73,3.24.96,3.85-.77.62-2.36-.77-2.89-.96-.53-.19-4.67-.5-5.78-.96-1.11-.46-2.53,1.33-3.85.96-1.32-.36-3.03-.67-3.85-.96-.83-.29-1.93-.96-1.93-.96,0,0-1.09-.99-.96-1.92.12-.94,0-1.93,0-1.93,0,0-2.56.05-1.93.96.63.91-.29,5-.96,3.85-.75-1.26-1.22-2.77-1.22-2.77l.47-4.26s1.16-.25,3.64-1.64c2.45-1.37,3.87-2.32,3.85-2.89-.02-.57,0-2.29,0-1.93Z"/>
  <path class="cls-1" d="M71.85,158.36s-.46.14-.96-.96c-.5-1.11-2.36-2.99-1.93-2.89.43.11.96-1.44.96-1.93s-.53-2.66.06-3.11c.64-.48.82-.98,1.87-1.7,1.14-.78,2.68-1.08,2.89-.96.21.12,1.89-.98,1.93-.96.04.02,1.45-.32,1.93,0,.47.32,1.29-.18,1.82.63.53.81,2.87,4.99,3.25,4.78.38-.2.48,1.17,1.68.36,1.19-.81,3.08-.96,3.85-.96s1.41,1.01,1.93.96c.52-.05,3.45-1,3.89-1.39.44-.38,1.46,2.68,1.89,2.35.42-.33,1.23-.9,1.93-.96.6-.05,2.73,1.05,2.73,1.05l-.25.58c-.22,2.48-.16,1.89-.22,2.48-.22,2.4-.15,2.53-.35,4.75-.02.2-1.28.87-1.87,1.34-1.3,1.04-2.13,1.43-2.78,1.93-.64.5-3.08.79-3.04,1.34.04.55.19,1.02,0,1.92-.19.91-.49,2.13,0,2.89.49.76,1.16,2.12,1.16,2.12,0,0-3.02-.62-4.05-.19-1.03.43-3.57,1.51-4.81,1.93-1.24.41-4.82.96-4.82.96,0,0,.34-1.47.96-1.93.63-.45,4.51-1.57,4.82-1.92.31-.36,1.95.18,1.93-.96-.02-1.14,1.17-1.18,0-1.92-1.17-.74-1.93-1.93-1.93-1.93,0,0-2.1.51-1.93.96.17.45-.22,2.48-1.93,1.93-1.7-.56-3.87.08-3.85-.96.02-1.04-.8-3.21-.96-2.89-.16.33-.96.96-.96.96,0,0-.49.92,0,1.93.49,1.01,2.37.86,1.93,1.92-.44,1.07-1.73,1.16-1.93.96-.19-.2-1.84-1.21-1.93-1.92-.09-.71-1.08-2.25-.96-2.89.12-.63,1.36-1.46.96-1.92-.4-.46-2.23-2.65-1.93-2.89.31-.24.78-.09.96-.96.18-.88.96-1.93.96-1.93h-2.89Z"/>
  <path class="cls-1" d="M51.63,116.96s.03-1.06.96-1.92c.93-.87,3.85-2.89,3.85-2.89,0,0-.19,1.1,0,1.92.19.83,1.2,2.09,1.93,2.89,1.26,1.38,1.29.88,2.89.96,1.6.08,3.85,0,3.85,0,0,0,.93-.3,1.39.72.54,1.2,1.5,2.16,1.5,2.16h1.93l.42,2.71,1.93,1.68s.36,1.08,1.02,1.46c.66.38.31,1.54.31,1.54,0,0-.01,1.43-1.66,1.9-1.26.36-4.45.7-4.45.7,0,0-1.61.98-2.4.58-.79-.4-3.62-.52-3.85,0-.23.52-2.34,1.87-1.93,1.93.07,0,.09,0,.09,0,.01-.02-.82-.12-1.05.96-.27,1.29.69,4.05.15,2.64-.2-.52-2.7-1.88-2.82-2.46-.13-.59-2.14.78-2.14.78,0,0,1.15,1.54.96,1.92-.39.79-1.48,2.25-2.89,2.89-1.41.64-3.09.38-2.89.96.2.59-.3.42-.96.96-.66.54-1.36,1.12-1.93,1.92-.57.81-1.27,1.4-1.93,1.93-.65.53-1.15,1.36-1.34,1.06-.19-.3-3.06,1.72-3.47.87-.41-.85-.51-2.27-1.92-1.93s-1.93,0-1.93,0l-1.93-1.93s-1.45-1.58-1.1-2.24c.4-.76-.69-.96.14-1.61.83-.64,2.38,2.12,2.89,1.93.51-.19,1.69-2.38,1.93-1.93.23.45,2.89.96,2.89.96,0,0-.72.41.96-.96,1.68-1.38,2.08-.55,2.89-.96.81-.41-.9-1.97.96-1.93,1.86.05,2.64.87,2.89,0,.25-.87-.62-4.09,0-3.85.62.24,2.78.22,2.89.96.11.74.54,3.01.96.96.42-2.05.95-3.09.96-3.85,0-.76-1.67-2.45-1.93-2.89-.26-.44-1.76.89-1.93-.96-.16-1.86-.3-2.09-.96-2.89-.66-.8-1.35-1.41,0-1.93,1.35-.52,2.23-.59,2.89-1.92.65-1.34.96-3.85.96-3.85Z"/>
</svg>