<?xml version="1.0" encoding="UTF-8"?>
<svg id="_レイヤー_1" data-name="レイヤー 1" xmlns="http://www.w3.org/2000/svg" viewBox="0 0 230.13 193.86">
  <defs>
    <style>
      .cls-1 {
        fill: none;
        stroke: #000;
      }
    </style>
  </defs>
  <path class="cls-1" d="M88.57,40.61s3.25-5.77,3.85-4.81c.6.95,5.78-.96,5.78-.96l.96-3.85s1.81-2.16,1.93-2.89c.12-.73.96-3.85.96-3.85l-1.93-3.85s1.57-2.15,1.93-2.89c.36-.74,2.89,1.92,2.89,1.92l3.85-1.92.96,3.85s.79,3.62.96,4.81c.17,1.19,0,6.74,0,6.74h4.81l1.93-5.78,3.85.96,3.85,2.89s2.06.38,1.92-1.93c-.13-2.3.96-4.81.96-4.81l1.92-4.81-1.92-2.89s-5,1.51-5.78,1.93c-.78.41-5.32.3-5.78.96-.45.66-1.93-2.89-1.93-2.89l.96-3.85,2.89-5.78h2.89l2.89.96,2.89,4.81h1.93l4.81-2.89-.96,9.63s-1.16,9.72-.96,11.55c.19,1.83,1.23,6.6,1.93,7.7.69,1.1,1.65,1.95,1.92,2.89.28.93,3.85,4.81,3.85,4.81l1.93,1.93-1.93,1.92-4.81.96-3.61.72-5.72,3.54s-2.58.06-3.18.55c-.58.47-4.64,1.4-4.64,1.4l1.03-4.37,1.68-3.77s-2.99.81-2.89,0c.12-.96-.96-2.89-.96-2.89l-4.17,3.9s-1.28-.85-2.57-1.01c-1.28-.16-2.89.96-2.89.96l-2.89-2.89-4.81,1.93s-1.92-.63-2.75-.69c-.83-.06-3.99-1.24-3.99-1.24l-.87,3.17-2.02-3.17-.96-3.85-1.93-.96,1.93-1.93Z"/>
  <path class="cls-1" d="M138.63,105.11l-2.89-.96-.96,4.81s-2.14,3.14-2.3,3.17c-.5.11-2.71-.35-3.19-.52-.48-.16-3.18,1.2-3.18,1.2.09-.07-.53-.86-.7-1.26-.8-1.93-1.75-3.66-1.75-3.66,0,0-.36-.03-1.4.1-.85.11-3.37.32-3.85,0-.48-.32-1.92-1.93-1.92-1.93l-.96-.96-.69-.69-.27-3.16-.96-1.93s.83-2.9.51-3.55l-.51-2.23-1.92-2.89s-.51-1.4-.29-2.77c.15-.9.94-3.3.94-3.3,0,0,0-2.43.31-2.6.32-.16,1.93-1.93,1.93-1.93l.74-2.53s-.71-.96-.74-2.28c-.04-1.81.61-2.64.96-3.85.27-.93.78-1.45.78-2.09s.18-.8.14-2.44c-.03-1.01.19-1.89-.07-2.97-.11-.44.02-1.86.33-1.86s.41-2.27.41-2.27c0,0,.34-.89.34-1.85,0-.58.96-.96.96-.96l3.85-.96s4.17-.48,3.85-.96c-.32-.48,4.09-2.53,4.09-2.53l2.75-.95,4.04-.81,2.61-.52,1.93-1.92s5.3,4.98,4.81,5.78c-.48.8.48,3.37,0,3.85-.48.48-.48,4.33,0,3.85.48-.48,0,.96,0,.96,0,0,1.93,2.89,2.89,4.81.96,1.93.96,7.87.96,9.63s1.13,3.05.96,3.85c-.16.8.96,3.21.96,2.89s-.32,0-.96.96c-.65.96-1.28,2.41-.96,2.89.32.48-.16,1.13-.96,1.93-.8.8-1.12,2.24-.96,2.89.16.65.8,1.61.96,1.93.17.32.32.96-.96,1.93-1.28.96-.8,2.24-.96,2.89-.16.64,1.13,1.93,0,1.93s-1.61.64-1.92.96c-.32.32.16,2.24-.96,1.93-1.12-.32-2.72-.16-2.89.96-.16,1.13-1.93,1.93-1.93,1.93l-.96-1.93Z"/>
  <path class="cls-1" d="M83.76,66.61s1.61.64,2.89,0c1.28-.64,4.02-2.24,3.85-3.85-.16-1.61.48-2.57.96-3.85.48-1.28.96-3.85.96-3.85v-1.93l-.96-2.89.96-2.89,2.89.96,3.85.96,3.47-1.39,1.34-.54,2.89,2.89,2.89-.96s3.21,1.44,2.89.96c-.32-.48,1.76-1.28,1.93-1.92s1.93-1.93,1.93-1.93l.96,2.89h2.89s-.51,1.21-.76,1.71c-.35.68-1.16,2.14-1.16,2.14l-.79,4.29-.17,1.49c-.48.48-.96,4.81-.96,4.81v4.81s-.65,3.05-.96,2.89c-.32-.16-.8,1.93-.96,2.89-.16.96.69,3.4.69,3.4,0,0-1.25,2.66-1.25,2.98s-1.05,1.49-1.37,1.32c-.32-.16.48,1.93,0,1.93s-.32,2.72-.96,2.89c-.65.16,0,3.85,0,3.85,0,0,1.92,2.41,1.92,2.89s.64,3.93.64,3.93l-.64,1.85.96,1.93.25,2.88-3.7,2.45s-.2.9-.9,1.25c-1.01.52-3.52,1.44-3.35,1.12.16-.32-2.89-1.44-2.89-1.93s-1.92-3.85-1.92-3.85l-3.85-.96-3.08-.25c-.48,0-2.37-1.12-2.7-1.67-.29-.5-2.89-.24-2.89-.24l-.96-.72-.96-.96v-2.89c0-.64,1.45-4.01,1.92-3.85.48.16,2.25-1.61,1.93-1.93-.32-.32.96-4.81.96-4.81v-5.78s.96-2.09.96-2.89-.96-2.89-.96-2.89l-1.92-2.89-1.93-.96s-3.05-.32-2.89,0c.16.32,0,1.93,0,1.93h-2.89l-.96-.96v-1.92l1.92-1.93Z"/>
  <path class="cls-1" d="M108.58,117.58s-2.36,1.58-1.71,3.9c.18.64,1.92,1.93,1.92,1.93l-.81,2.43s-.46.91-.77,1.08c-.32.16-1.16.71-1.61,2.44-.51,1.96-.5,4.8-.66,5.6-.16.8.08,1.84-.72,2.65-1.02,1.02-1.89,1.54-2.62,1.91-.72.36-2.2.15-2.44,1.22-.29,1.29.17,2.89,0,2.89h4.53s1.15.49,1.6.88c.24.21.73.73,1.97.93,1.77.28,1.52-.32,2.81.12.97.34.64-.44.94.9.29,1.29.93,2.53.93,2.53l.69,1.38,3.53-3.1,2.25-.75v-4.81c0-.48,1.28-6.42.96-6.74-.32-.32,1.44-4.5,1.93-4.81l2.89-1.93,2.89-1.93h2.89s.32-1.61,1.93,0c1.61,1.61,4.81,5.78,4.81,5.78,0,0,1.44-.8.96-1.93-.48-1.13-2.89-4.33-2.89-4.81s.8-.65.96-1.93c.16-1.28,0-3.85,0-3.85l-.96-.96s1.44-1.76.96-1.93c-.48-.16,1.13-.48.96-.96-.16-.48-.96-1.93-.96-1.93,0,0,2.09-2.89,1.93-2.89s1.92-1.76,1.92-1.93-.16-1.28,0-1.93c.16-.64-.83-1.65-.83-1.65l-1.98-.89-1.1-.09-.53,2.65s.26.94-.38,1.91c-.65.96-1.66,2.65-1.92,2.89-.22.2-1.29.33-1.92,0-1-.52-2.89,0-2.89,0l-1.93.96-1.57-2.84-.88-2.08-5.25.1s-1.1-1.71-1.58-1.55c-.48.16-1.61-2.32-2.25-2.16-.65.16-1.35,1.04-1.35,1.04,0,0-2.33,1.4-2.52,1.7-.5.8-3.12,2.29-3.6,1.97-.48-.32.71.92.71.92,0,0,2.09,3.37,1.92,3.85-.16.48,0,1.93,0,1.93l-1.17,1.87Z"/>
  <path class="cls-1" d="M77.98,121.48c-.16-.48-.96-3.69.96-4.81,1.93-1.13,3.69-.8,3.85-1.93.16-1.13,2.24-2.89,1.92-3.85-.32-.96.96-3.21.96-3.85s.8-3.53.96-3.85c.16-.32.96-4.81.96-4.81,0,0,.84,1.44,1.92,1.69.84.19,2.43.02,2.43.02l2.43,1.81,4.52.52,3.13.78,1.92,3.85,2.89,1.93,1.92,2.89.96,1.93s-.25,3.36-.73,3.52c-.48.16-2,1.61-2.16,2.25-.16.64,0,2.25,0,1.93s1.92,1.93,1.92,1.93l-.96,2.89-1.93,1.93s-1.12,4.17-.96,3.85c.16-.32,0,2.89,0,2.89v1.93l-2.44,2.18-1.93.96c.2-.09-1.41.06-1.41.71v8.66s-1.92,1.61-1.92,1.93-2.72,1.61-2.89.96c-.16-.65-4.81-2.89-4.81-2.89h-5.78s-2.72-1.44-2.89-1.93c-.16-.48-.96-4.81-.96-4.81l.96-3.85,1.3-2.16s1.42-1.24,1.75-1.37c.8-.32,2.78-1.93,2.78-1.93,0,0,1.07-1.92.91-2.24-.16-.32-.96-2.89-.96-2.89h-2.89s-.56-2.58-.96-2.89c-.72-.55-1.59-1.51-1.59-1.51l-1.35-1.16s-1.71-.7-1.88-1.18Z"/>
  <path class="cls-1" d="M68.36,162.88s2.39-.71,3.38-.88c.67-.12,4.75-1.63,4.43-1.47-.32.17,2.29-1.01,2.29-1.01,0,0-.96-2.38.06-4.32.32-.6,1.38-2.91,1.38-2.91,0,0,.96-1.2,1.21-1.64.4-.72,1.68-1.69,1.68-1.25,0,.32,3.86,0,3.86,0h2.88s3.64,1.69,3.85,1.93c1.01,1.14,1.75,1.14,2.53.82,1.02-.42,2.66-2.24,2.66-2.24l.58-.68v-5.6h4.81l2.89,1.92h3.85l.96,2.89.96,1.93,1.63-1.43,2.28-1.8,1.86-.62s2.72,4.17,2.89,4.81c.16.65,0,5.46,0,5.78s1.44,7.54.96,9.63c-.48,2.09-.48,6.26-.96,6.74-.48.48.48,4.33,0,4.81s-3.05,4.98-3.85,4.81c-.8-.16-2.72,2.24-2.89,1.93-.16-.32-2.89-1.93-2.89-1.93h-2.89l-2.89,2.89-1.93.96s-1.12-.96-1.92-1.92c-.8-.96-2.89-3.85-2.89-3.85,0,0-1.28-1.13-1.92-1.93-.65-.8-3.05-4.01-2.89-3.85h0s-1.82-2.08-2.9-1.93c-1.13.16-4.65.65-4.82.96-.16.32-.8,2.41-2.89,2.89-2.09.48-5.29,2.24-5.78,2.89-.48.64-3.85,1.93-3.85,1.93,0,0-2.2.64-2.55.49-1.05-.43-3.22-2.42-3.22-2.42l-.96-3.85.12-3.61-1.08-3.13,1.93-1.93.18-1.61-.18-3.21Z"/>
</svg>