<?xml version="1.0" encoding="UTF-8"?>
<svg class="prefecture-image-02 w-32 h-32" id="uuid-cfefdfac-a857-41b5-aa64-06a493bc5474" data-name="レイヤー 1" xmlns="http://www.w3.org/2000/svg" viewBox="0 0 66.25 63.26">
  <defs>
    <style>
      .uuid-334d8c6a-2b42-4610-9b69-f7b159201d49 {
        fill-rule: evenodd;
        stroke: #231815;
        stroke-width: .6px;
      }

      .uuid-334d8c6a-2b42-4610-9b69-f7b159201d49, .uuid-df1b1bce-cec5-4267-b04b-c16dd91f05c7 {
        fill: none;
      }

      .uuid-df1b1bce-cec5-4267-b04b-c16dd91f05c7 {
        stroke-width: 0px;
      }
    </style>
  </defs>
  <path class="uuid-334d8c6a-2b42-4610-9b69-f7b159201d49" d="M7.53,43.74s3.25-5.77,3.85-4.81c.6.95,5.78-.96,5.78-.96l.96-3.85s1.81-2.16,1.93-2.89c.12-.73.96-3.85.96-3.85l-1.93-3.85s1.57-2.15,1.93-2.89c.36-.74,2.89,1.92,2.89,1.92l3.85-1.92.96,3.85s.79,3.62.96,4.81c.17,1.19,0,6.74,0,6.74h4.81l1.93-5.78,3.85.96,3.85,2.89s2.06.38,1.92-1.93c-.13-2.3.96-4.81.96-4.81l1.92-4.81-1.92-2.89s-5,1.51-5.78,1.93c-.78.41-5.32.3-5.78.96-.45.66-1.93-2.89-1.93-2.89l.96-3.85,2.89-5.78h2.89l2.89.96,2.89,4.81h1.93l4.81-2.89-.96,9.63s-1.16,9.72-.96,11.55c.19,1.83,1.23,6.6,1.93,7.7.69,1.1,1.65,1.95,1.92,2.89.28.93,3.85,4.81,3.85,4.81l1.93,1.93-1.93,1.92-4.81.96-3.61.72-5.72,3.54s-2.58.06-3.18.55c-.58.47-4.64,1.4-4.64,1.4l1.03-4.37,1.68-3.77s-2.99.81-2.89,0c.12-.96-.96-2.89-.96-2.89l-4.17,3.9s-1.28-.85-2.57-1.01c-1.28-.16-2.89.96-2.89.96l-2.89-2.89-4.81,1.93s-1.92-.63-2.75-.69c-.83-.06-3.99-1.24-3.99-1.24l-.87,3.17-2.02-3.17-.96-3.85-1.93-.96,1.93-1.93Z"/>
  <rect class="uuid-df1b1bce-cec5-4267-b04b-c16dd91f05c7" x="-65.7" y="-54.46" width="200.38" height="180.99"/>
</svg>