<?xml version="1.0" encoding="UTF-8"?>
<svg class="prefecture-image-03 w-32 h-32" id="uuid-73978220-bafd-4e12-b515-5b79683b726f" data-name="レイヤー 1" xmlns="http://www.w3.org/2000/svg" viewBox="0 0 79.73 79.57">
  <defs>
    <style>
      .uuid-c960141f-faa1-4087-afba-df1dd4ca50ff {
        fill-rule: evenodd;
        stroke: #231815;
        stroke-miterlimit: 10;
      }

      .uuid-c960141f-faa1-4087-afba-df1dd4ca50ff, .uuid-b4c7c0d1-b74b-4f1c-901a-f8538ec3cf07 {
        fill: none;
      }

      .uuid-b4c7c0d1-b74b-4f1c-901a-f8538ec3cf07 {
        stroke-width: 0px;
      }
    </style>
  </defs>
  <path class="uuid-c960141f-faa1-4087-afba-df1dd4ca50ff" d="M45.65,65.4l-2.89-.96-.96,4.81s-2.14,3.14-2.3,3.17c-.5.11-2.71-.35-3.19-.52-.48-.16-3.18,1.2-3.18,1.2.09-.07-.53-.86-.7-1.26-.8-1.93-1.75-3.66-1.75-3.66,0,0-.36-.03-1.4.1-.85.11-3.37.32-3.85,0-.48-.32-1.92-1.93-1.92-1.93l-.96-.96-.69-.69-.27-3.16-.96-1.93s.83-2.9.51-3.55l-.51-2.23-1.92-2.89s-.51-1.4-.29-2.77c.15-.9.94-3.3.94-3.3,0,0,0-2.43.31-2.6.32-.16,1.93-1.93,1.93-1.93l.74-2.53s-.71-.96-.74-2.28c-.04-1.81.61-2.64.96-3.85.27-.93.78-1.45.78-2.09s.18-.8.14-2.44c-.03-1.01.19-1.89-.07-2.97-.11-.44.02-1.86.33-1.86s.41-2.27.41-2.27c0,0,.34-.89.34-1.85,0-.58.96-.96.96-.96l3.85-.96s4.17-.48,3.85-.96c-.32-.48,4.09-2.53,4.09-2.53l2.75-.95,4.04-.81,2.61-.52,1.93-1.92s5.3,4.98,4.81,5.78c-.48.8.48,3.37,0,3.85-.48.48-.48,4.33,0,3.85.48-.48,0,.96,0,.96,0,0,1.93,2.89,2.89,4.81.96,1.93.96,7.87.96,9.63s1.13,3.05.96,3.85c-.16.8.96,3.21.96,2.89s-.32,0-.96.96c-.65.96-1.28,2.41-.96,2.89.32.48-.16,1.13-.96,1.93-.8.8-1.12,2.24-.96,2.89.16.65.8,1.61.96,1.93.17.32.32.96-.96,1.93-1.28.96-.8,2.24-.96,2.89-.16.65,1.13,1.93,0,1.93s-1.61.64-1.92.96c-.32.32.16,2.24-.96,1.93-1.12-.32-2.72-.16-2.89.96-.16,1.13-1.93,1.93-1.93,1.93l-.96-1.93Z"/>
  <rect class="uuid-b4c7c0d1-b74b-4f1c-901a-f8538ec3cf07" x="-65.7" y="-38.15" width="200.38" height="180.99"/>
</svg>