<?xml version="1.0" encoding="UTF-8"?>
<svg class="w-32 h-32" id="uuid-407cb87e-ebde-4816-9c3e-d98c59f4757f" data-name="レイヤー 1" xmlns="http://www.w3.org/2000/svg" viewBox="0 0 79.73 79.57">
  <defs>
    <style>
      .uuid-e6302a8b-da31-417d-ae49-68daa02a6858 {
        fill-rule: evenodd;
        stroke: #231815;
        stroke-miterlimit: 10;
      }

      .uuid-e6302a8b-da31-417d-ae49-68daa02a6858, .uuid-4032f2a9-0d44-4f6f-a092-1c3a285e4545 {
        fill: none;
      }

      .uuid-4032f2a9-0d44-4f6f-a092-1c3a285e4545 {
        stroke-width: 0px;
      }
    </style>
  </defs>
  <path class="uuid-e6302a8b-da31-417d-ae49-68daa02a6858" d="M29.1,30.04s-2.36,1.58-1.71,3.9c.18.64,1.92,1.93,1.92,1.93l-.81,2.43s-.46.91-.77,1.08c-.32.16-1.16.71-1.61,2.44-.51,1.96-.5,4.8-.66,5.6-.16.8.08,1.84-.72,2.65-1.02,1.02-1.89,1.54-2.62,1.91-.72.36-2.2.15-2.44,1.22-.29,1.29.17,2.89,0,2.89h4.53s1.15.49,1.6.88c.24.21.73.73,1.97.93,1.77.28,1.52-.32,2.81.12.97.34.64-.44.94.9.29,1.29.93,2.53.93,2.53l.69,1.38,3.53-3.1,2.25-.75v-4.81c0-.48,1.28-6.42.96-6.74-.32-.32,1.44-4.5,1.93-4.81l2.89-1.93,2.89-1.93h2.89s.32-1.61,1.93,0c1.61,1.61,4.81,5.78,4.81,5.78,0,0,1.44-.8.96-1.93-.48-1.13-2.89-4.33-2.89-4.81s.8-.65.96-1.93c.16-1.28,0-3.85,0-3.85l-.96-.96s1.44-1.76.96-1.93c-.48-.16,1.13-.48.96-.96-.16-.48-.96-1.93-.96-1.93,0,0,2.09-2.89,1.93-2.89s1.92-1.76,1.92-1.93-.16-1.28,0-1.93c.16-.64-.83-1.65-.83-1.65l-1.98-.89-1.1-.09-.53,2.65s.26.94-.38,1.91c-.65.96-1.66,2.65-1.92,2.89-.22.2-1.29.33-1.92,0-1-.52-2.89,0-2.89,0l-1.93.96-1.57-2.84-.88-2.08-5.25.1s-1.1-1.71-1.58-1.55c-.48.16-1.61-2.32-2.25-2.16-.65.16-1.35,1.04-1.35,1.04,0,0-2.33,1.4-2.52,1.7-.5.8-3.12,2.29-3.6,1.97-.48-.32.71.92.71.92,0,0,2.09,3.37,1.92,3.85-.16.48,0,1.93,0,1.93l-1.17,1.87Z"/>
  <rect class="uuid-4032f2a9-0d44-4f6f-a092-1c3a285e4545" x="-65.7" y="-38.15" width="200.38" height="180.99"/>
</svg>