<?xml version="1.0" encoding="UTF-8"?>
<svg class="w-32 h-32" id="uuid-6c3c3ccf-a73e-445e-b8a1-88233dd10a88" data-name="レイヤー 1" xmlns="http://www.w3.org/2000/svg" viewBox="0 0 79.73 79.57">
  <defs>
    <style>
      .uuid-82059552-4036-4eb0-a732-a52e85bfe4ae {
        fill-rule: evenodd;
        stroke: #231815;
        stroke-miterlimit: 10;
      }

      .uuid-82059552-4036-4eb0-a732-a52e85bfe4ae, .uuid-2e7ed4bd-daa8-40aa-9ba4-756dbdbbc670 {
        fill: none;
      }

      .uuid-2e7ed4bd-daa8-40aa-9ba4-756dbdbbc670 {
        stroke-width: 0px;
      }
    </style>
  </defs>
  <path class="uuid-82059552-4036-4eb0-a732-a52e85bfe4ae" d="M20.23,30.68s1.61.64,2.89,0c1.28-.64,4.02-2.24,3.85-3.85-.16-1.61.48-2.57.96-3.85.48-1.28.96-3.85.96-3.85v-1.93l-.96-2.89.96-2.89,2.89.96,3.85.96,3.47-1.39,1.34-.54,2.89,2.89,2.89-.96s3.21,1.44,2.89.96c-.32-.48,1.76-1.28,1.93-1.92s1.93-1.93,1.93-1.93l.96,2.89h2.89s-.51,1.21-.76,1.71c-.35.68-1.16,2.14-1.16,2.14l-.79,4.29-.17,1.49c-.48.48-.96,4.81-.96,4.81v4.81s-.65,3.05-.96,2.89c-.32-.16-.8,1.93-.96,2.89-.16.96.69,3.4.69,3.4,0,0-1.25,2.66-1.25,2.98s-1.05,1.49-1.37,1.32c-.32-.16.48,1.93,0,1.93s-.32,2.72-.96,2.89c-.65.16,0,3.85,0,3.85,0,0,1.92,2.41,1.92,2.89s.64,3.93.64,3.93l-.64,1.85.96,1.93.25,2.88-3.7,2.45s-.2.9-.9,1.25c-1.01.52-3.52,1.44-3.35,1.12.16-.32-2.89-1.44-2.89-1.93s-1.92-3.85-1.92-3.85l-3.85-.96-3.08-.25c-.48,0-2.37-1.12-2.7-1.67-.29-.5-2.89-.24-2.89-.24l-.96-.72-.96-.96v-2.89c0-.64,1.45-4.01,1.92-3.85.48.16,2.25-1.61,1.93-1.93-.32-.32.96-4.81.96-4.81v-5.78s.96-2.09.96-2.89-.96-2.89-.96-2.89l-1.92-2.89-1.93-.96s-3.05-.32-2.89,0c.16.32,0,1.93,0,1.93h-2.89l-.96-.96v-1.92l1.92-1.93Z"/>
  <rect class="uuid-2e7ed4bd-daa8-40aa-9ba4-756dbdbbc670" x="-65.7" y="-38.15" width="200.38" height="180.99"/>
</svg>