<?xml version="1.0" encoding="UTF-8"?>
<svg class="prefecture-image-06 w-32 h-32" id="uuid-c3013a2c-d222-4018-a883-95d4330de0d6" data-name="レイヤー 1" xmlns="http://www.w3.org/2000/svg" viewBox="0 0 79.73 79.57">
  <defs>
    <style>
      .uuid-6826f5c8-e539-4b25-9b0f-5719e8f16d7a {
        fill-rule: evenodd;
        stroke: #231815;
        stroke-miterlimit: 10;
      }

      .uuid-6826f5c8-e539-4b25-9b0f-5719e8f16d7a, .uuid-92b71f9a-0f46-4f81-b925-94ac98efafc5 {
        fill: none;
      }

      .uuid-92b71f9a-0f46-4f81-b925-94ac98efafc5 {
        stroke-width: 0px;
      }
    </style>
  </defs>
  <path class="uuid-6826f5c8-e539-4b25-9b0f-5719e8f16d7a" d="M26.57,38.4c-.16-.48-.96-3.69.96-4.81,1.93-1.13,3.69-.8,3.85-1.93.16-1.13,2.24-2.89,1.92-3.85-.32-.96.96-3.21.96-3.85s.8-3.53.96-3.85c.16-.32.96-4.81.96-4.81,0,0,.84,1.44,1.92,1.69.84.19,2.43.02,2.43.02l2.43,1.81,4.52.52,3.13.78,1.92,3.85,2.89,1.93,1.92,2.89.96,1.93s-.25,3.36-.73,3.52c-.48.16-2,1.61-2.16,2.25-.16.64,0,2.25,0,1.93s1.92,1.93,1.92,1.93l-.96,2.89-1.93,1.93s-1.12,4.17-.96,3.85c.16-.32,0,2.89,0,2.89v1.93l-2.44,2.18-1.93.96c.2-.09-1.41.06-1.41.71v8.66s-1.92,1.61-1.92,1.93-2.72,1.61-2.89.96c-.16-.65-4.81-2.89-4.81-2.89h-5.78s-2.72-1.44-2.89-1.93c-.16-.48-.96-4.81-.96-4.81l.96-3.85,1.3-2.16s1.42-1.24,1.75-1.37c.8-.32,2.78-1.93,2.78-1.93,0,0,1.07-1.92.91-2.24-.16-.32-.96-2.89-.96-2.89h-2.89s-.56-2.58-.96-2.89c-.72-.55-1.59-1.51-1.59-1.51l-1.35-1.16s-1.71-.7-1.88-1.18Z"/>
  <rect class="uuid-92b71f9a-0f46-4f81-b925-94ac98efafc5" x="-65.7" y="-38.15" width="200.38" height="180.99"/>
</svg>