<?xml version="1.0" encoding="UTF-8"?>
<svg class="prefecture-image-07 w-32 h-32" id="uuid-9793edbb-23ac-40e4-9017-3258b277cc4a" data-name="レイヤー 1" xmlns="http://www.w3.org/2000/svg" viewBox="0 0 79.73 79.57">
  <defs>
    <style>
      .uuid-96d90848-012c-4d7a-a528-c960b994eb65 {
        fill-rule: evenodd;
        stroke: #231815;
        stroke-miterlimit: 10;
      }

      .uuid-96d90848-012c-4d7a-a528-c960b994eb65, .uuid-e81030c3-1df7-4af6-a9af-88285716d123 {
        fill: none;
      }

      .uuid-e81030c3-1df7-4af6-a9af-88285716d123 {
        stroke-width: 0px;
      }
    </style>
  </defs>
  <path class="uuid-96d90848-012c-4d7a-a528-c960b994eb65" d="M13.82,37.38s2.39-.71,3.38-.88c.67-.12,4.75-1.63,4.43-1.47-.32.17,2.29-1.01,2.29-1.01,0,0-.96-2.38.06-4.32.32-.6,1.38-2.91,1.38-2.91,0,0,.96-1.2,1.21-1.64.4-.72,1.68-1.69,1.68-1.25,0,.32,3.86,0,3.86,0h2.88s3.64,1.69,3.85,1.93c1.01,1.14,1.75,1.14,2.53.82,1.02-.42,2.66-2.24,2.66-2.24l.58-.68v-5.6h4.81l2.89,1.92h3.85l.96,2.89.96,1.93,1.63-1.43,2.28-1.8,1.86-.62s2.72,4.17,2.89,4.81c.16.65,0,5.46,0,5.78s1.44,7.54.96,9.63c-.48,2.09-.48,6.26-.96,6.74-.48.48.48,4.33,0,4.81s-3.05,4.98-3.85,4.81c-.8-.16-2.72,2.24-2.89,1.93-.16-.32-2.89-1.93-2.89-1.93h-2.89l-2.89,2.89-1.93.96s-1.12-.96-1.92-1.92c-.8-.96-2.89-3.85-2.89-3.85,0,0-1.28-1.13-1.92-1.93-.65-.8-3.05-4.01-2.89-3.85h0s-1.82-2.08-2.9-1.93c-1.13.16-4.65.65-4.82.96-.16.32-.8,2.41-2.89,2.89-2.09.48-5.29,2.24-5.78,2.89-.48.64-3.85,1.93-3.85,1.93,0,0-2.2.64-2.55.49-1.05-.43-3.22-2.42-3.22-2.42l-.96-3.85.12-3.61-1.08-3.13,1.93-1.93.18-1.61-.18-3.21Z"/>
  <rect class="uuid-e81030c3-1df7-4af6-a9af-88285716d123" x="-65.7" y="-38.15" width="200.38" height="180.99"/>
</svg>