<?xml version="1.0" encoding="UTF-8"?>
<svg class="prefecture-image-08 w-32 h-32" id="uuid-4677a73d-5928-4b15-94b4-b66408286d85" data-name="レイヤー 1" xmlns="http://www.w3.org/2000/svg" viewBox="0 0 79.73 79.57">
  <defs>
    <style>
      .uuid-e2d635ae-c82e-418f-960d-354405c3e685 {
        fill-rule: evenodd;
        stroke: #231815;
        stroke-miterlimit: 10;
      }

      .uuid-e2d635ae-c82e-418f-960d-354405c3e685, .uuid-2d9e0d21-8134-4d8d-a9dc-320138ccb5f0 {
        fill: none;
      }

      .uuid-2d9e0d21-8134-4d8d-a9dc-320138ccb5f0 {
        stroke-width: 0px;
      }
    </style>
  </defs>
  <path class="uuid-e2d635ae-c82e-418f-960d-354405c3e685" d="M45.89,40.41s-.16,7.22,0,7.7c.16.48.48,3.37.96,3.85.48.48.96,2.89.96,2.89,0,0,1.61,3.85,1.93,3.85s2.09,4.33,2.89,4.81c.8.48,2.61,2.32,2.61,2.32l-4.54-3.28-4.5-3.55-2.23-1.27s-2.32,1.1-3.52,2.61c-.69.88-5.31.59-6.11.28-.8-.32-6.9-1.61-6.74-1.93.16-.32-1.29-1.57-1.92-2.89-.42-.88-2.89-2.89-2.89-2.89,0,0-3.2-.32-2.89-.96.32-.64,0-1.92,0-1.92v-1.93c0-.48,5.26-2.68,5.26-2.68,0,0,1.92-1.69,1.53-1.41-.49.36,1.98-.96,2.3-1.44.32-.48,3.47-1.19,3.47-1.19l2.84-.99.53-2.03v-2.67s-.53-2.2-.53-3.96-.48-3.69,0-3.85c.48-.16,1.7-1.5,1.92-2.89.12-.71,0-4.81,0-4.81,0,0,3.03,4.16,3.42,4.44.99.72,1.4,1.33,1.4,1.33,0,0,1.51-.46,2.6-1.63,1.22-1.32,2.22-2.22,2.7-2.22s2.24-.32,2.41,0c.16.32,2.89,1.93,2.89,1.93,0,0,0,3.69-.96,4.81-.96,1.13-2.72,4.17-2.89,4.81-.16.65-.48,4.01-.96,3.85-.48-.16-1.92,2.89-1.92,2.89Z"/>
  <rect class="uuid-2d9e0d21-8134-4d8d-a9dc-320138ccb5f0" x="-65.7" y="-38.15" width="200.38" height="180.99"/>
</svg>