<?xml version="1.0" encoding="UTF-8"?>
<svg class="prefecture-image-09 w-32 h-32" id="uuid-9d71191e-cb79-4d74-a007-cb8a81e980aa" data-name="レイヤー 1" xmlns="http://www.w3.org/2000/svg" viewBox="0 0 79.73 79.57">
  <defs>
    <style>
      .uuid-3aa793a5-b808-4344-bdf4-68b0a3347f68 {
        fill-rule: evenodd;
        stroke: #231815;
        stroke-width: .6px;
      }

      .uuid-3aa793a5-b808-4344-bdf4-68b0a3347f68, .uuid-0e38aa71-3088-404f-a59a-dfbdf68591d6 {
        fill: none;
      }

      .uuid-0e38aa71-3088-404f-a59a-dfbdf68591d6 {
        stroke-width: 0px;
      }
    </style>
  </defs>
  <path class="uuid-3aa793a5-b808-4344-bdf4-68b0a3347f68" d="M27.52,52.76s-1.44-1.76-.96-2.89c.48-1.13.64-4.65.96-4.81.32-.16,0-1.93,0-1.93l-2.59-3.21v-1.89l.67-1.64v-5.32s3.85-1.42,3.85-1.42c0,0,4.17-2.73,4.81-2.89.65-.16,3.31-1.06,3.63-1.22.32-.16,1.5-1.35,1.5-1.35l.65-1.28,4.82-.96,1.33.5,6.37,7.21s-.26.51-.12,2.29c.18,2.34-.02,3.48-.84,4.44-.23.27-.96.96-.96.96v4.81s.74,3.69.69,4.67c-.03.68-.69,3.03-.69,3.03,0,0-3.06.85-3.85.96-.98.14-2.72,1.23-3.85,1.92-.49.3-2.44,2.14-3.05,2.41-.29.13,0,0-.8.48-.8.48-3.82,1.48-3.85,1.93-.02.31-.84-.81-1.64-1.37-1.9-1.32-3.81-1.52-4.13-1.52s-1.92-1.93-1.92-1.93Z"/>
  <rect class="uuid-0e38aa71-3088-404f-a59a-dfbdf68591d6" x="-65.7" y="-38.15" width="200.38" height="180.99"/>
</svg>