<?xml version="1.0" encoding="UTF-8"?>
<svg class="prefecture-image-10 w-32 h-32" id="uuid-850161c6-bc0a-4cf4-b17e-b35de88916ad" data-name="レイヤー 1" xmlns="http://www.w3.org/2000/svg" viewBox="0 0 79.73 79.57">
  <defs>
    <style>
      .uuid-c9f0129c-fa61-446a-88bc-e409202a8375 {
        fill-rule: evenodd;
        stroke: #231815;
        stroke-width: .6px;
      }

      .uuid-c9f0129c-fa61-446a-88bc-e409202a8375, .uuid-b320a940-c9d9-41a0-a741-3149915440db {
        fill: none;
      }

      .uuid-b320a940-c9d9-41a0-a741-3149915440db {
        stroke-width: 0px;
      }
    </style>
  </defs>
  <path class="uuid-c9f0129c-fa61-446a-88bc-e409202a8375" d="M37.35,26.94s1.12-1.68,1.6-2.96c.48-1.28.42-1.44,2.39-2.2,1.28-.5,4.3-2.1,4.3-2.1l.61,2.43.64,1.44,3.51,2.64s.32,3.53,0,4.81c-.32,1.28-.83,2.26-.67,3.06.16.8,1.14,1.88,1.14,1.88l1.51,2.17s-.18,3.3-.57,4.27c-.27.67-1.07,2.93-.1,4.05.76.87,1.91,1.95,2.05,2.51.15.56,1.45.35,1.45.35l3.98,2.08s-4.29.65-4.94.81c-.64.16-1.92.65-2.89,0-.96-.64-3.04-1.85-3.85-1.93-1.44-.13-1.41-.22-3.85-.96,0,0-.9,2.12-1.38,2.76-.48.65-1.16,3.85-2.47,3.98-1.53.15-2.41.8-2.89.96-.48.16-3.37,1.44-3.85,1.92-.48.48-2.89.96-2.89.96,0,0-2.09-1.28-1.93-1.93s-.29-3.08-.13-3.4c.16-.32-.79-1.57-.79-1.73s.6-3.53.92-4.49c.32-.96-.32-2.41,0-2.89.32-.48-1.93-1.92-1.93-1.92l-1.17,1.96s-.75-.2-1.72-1c-.96-.8-2.41-1.89-2.89-2.89-.16-.32.96-4.81.96-4.81,0,0,3.69-2.41,3.85-2.89.16-.48,4.17-2.09,3.85-1.93-.32.16,1.28.22,1.6-.1.32-.32,2.03-.59,2.03-.59l1.26-1.71,1.62-1.28,1.63-1.36Z"/>
  <rect class="uuid-b320a940-c9d9-41a0-a741-3149915440db" x="-65.7" y="-38.15" width="200.38" height="180.99"/>
</svg>