<?xml version="1.0" encoding="UTF-8"?>
<svg class="prefecture-image-11 w-32 h-32" id="uuid-1f86bfb0-a7b0-4735-8694-4fa1844ba25c" data-name="レイヤー 1" xmlns="http://www.w3.org/2000/svg" viewBox="0 0 79.73 79.57">
  <defs>
    <style>
      .uuid-4b1ac581-feba-4cae-a31e-0e3b289459e8 {
        fill: none;
        stroke-width: 0px;
      }

      .uuid-13f0bc1e-df29-4015-a7f5-91a823b179a6 {
        fill: #fff;
        fill-rule: evenodd;
        stroke: #231815;
        stroke-width: .6px;
      }
    </style>
  </defs>
  <path class="uuid-13f0bc1e-df29-4015-a7f5-91a823b179a6" d="M20.02,43.28c.48,0,3.38-1.44,4.35-1.93.96-.48,3.53-2.09,3.85-1.93.32.16,1.13.65,1.93-.96l1.92-3.85c.48-.96.32-2.09.96-1.93.64.16,4.79.9,5.27,1.38.48.48,2.42,1.72,3.1,1.78,1.75.16,2.82-.22,4.33-.47.35-.06,1.94-.69,2.25-.52.32.16,1.41.72,1.41.72v3.85s-.21.7,1.23.7c1.92,0,2.84,1.6,2.46,1.94-.4.36-.49,1.04.16,2.17.64,1.13,2.01,3.49,1.69,3.97-.32.48.55,2.45.23,2.77-.32.32-3.82-.46-4.56-.14-2.26.95-4.03-.71-5.63.57-1.61,1.28-3.12,1.02-4.25.54-1.13-.48-3.53-2.41-4.81-2.89-1.28-.48-4.46-1.92-4.81-1.93-1.87-.03-3.21,1.61-2.89.96l-1.3.8c.58-.05-3.04.28-4.48-.8-.98-.74-1.93-1.93-1.93-1.93,0,0-.98-2.89-.5-2.89Z"/>
  <rect class="uuid-4b1ac581-feba-4cae-a31e-0e3b289459e8" x="-65.7" y="-38.15" width="200.38" height="180.99"/>
</svg>