<?xml version="1.0" encoding="UTF-8"?>
<svg class="prefecture-image-12 w-32 h-32" id="uuid-0bea206c-1885-4f7c-8657-8207ac7f800c" data-name="レイヤー 1" xmlns="http://www.w3.org/2000/svg" viewBox="0 0 79.73 79.57">
  <defs>
    <style>
      .uuid-7e8147ed-3c42-4831-bcf2-6d403be2d49b {
        fill: none;
        stroke-width: 0px;
      }

      .uuid-2ef40063-b30a-4721-b611-5ef9ffeb2a9a {
        fill: #fff;
        fill-rule: evenodd;
        stroke: #231815;
        stroke-width: .6px;
      }
    </style>
  </defs>
  <path class="uuid-2ef40063-b30a-4721-b611-5ef9ffeb2a9a" d="M53.3,31.98s-3.69,4.01-4.81,4.81c-1.13.8-1.76,2.57-1.93,2.89-.16.32-.48,2.09,0,2.89.48.8.32,6.9,0,6.74-.32-.16-.16.96-1.93,1.93-1.76.96-6.58,1.92-6.74,1.92s-1.76,1.28-2.89,2.89c-1.13,1.61-1.93,2.89-1.93,2.89l-1.92,1.92-2.89-1.92s-1.19-1.7-.96-1.93c.4-.4,1.28-.48,1.93-.96.64-.48,1.44-2.57.96-4.81-.48-2.24-.64-1.76,0-2.89.65-1.12,0-1.92,0-1.92,0,0-2.24-.8-1.92-.96.32-.16,1.13-1.28,1.92-1.93.8-.64,1.44-2.57,1.93-2.89.48-.32,1.76-.96,2.89-1.92,1.12-.96,3.21-1.61,2.89-2.89-.32-1.28-2.89-2.89-2.89-2.89h-1.93l-.96,1.93-.96-4.81c-.16-.8.41-2.36.09-2.2-.32.16-.53-4.13-.53-4.13l.18.75s-.06-1.27-1.34-2.55l-.88-2.35.95-.86,3.45,4.6s4.47,1.43,5.63,1.61c.57.09,1.49.91,3.1.59,1.61-.32,2.66.69,3.79-.28,1.12-.96,3.85-2.89,3.85-2.89l1.93.96c-.32-.16,4.65,4.01,4.81,3.85s3.85,2.89,3.85,2.89v.96h-.96c-.96,0-3.69,1.44-3.85.96-.16-.48-1.93,0-1.93,0Z"/>
  <rect class="uuid-7e8147ed-3c42-4831-bcf2-6d403be2d49b" x="-65.7" y="-38.15" width="200.38" height="180.99"/>
</svg>