<?xml version="1.0" encoding="UTF-8"?>
<svg class="w-32 h-32" id="uuid-aaf9f11b-4609-46c9-8048-e3c101254c6e" data-name="レイヤー 1" xmlns="http://www.w3.org/2000/svg" viewBox="0 0 79.73 79.57">
  <defs>
    <style>
      .uuid-5e54270a-384a-438a-9faa-3d74526fdc38 {
        fill: none;
        stroke-width: 0px;
      }

      .uuid-70850743-4853-4194-80ec-6dec7f513579 {
        fill: #fff;
        fill-rule: evenodd;
        stroke: #231815;
        stroke-width: .6px;
      }
    </style>
  </defs>
  <path class="uuid-70850743-4853-4194-80ec-6dec7f513579" d="M26.02,34.02s2.49-1.57,3.53-1.36c1.04.21,4.18,1.52,4.81,1.93.63.4,2.88,1.73,3.21,1.94,1.01.64,1.88,1.05,2.44,1.34.73.37,1.51-.2,2.04-.4.53-.19,1.56-.5,1.92-.96.37-.46,3.61.82,4.82,0,1.2-.82,2.89,0,2.89,0h1.92s-.08,2.8.37,3.78c.45.98-2.3,1.99-2.3,1.99,0,0-.6.75-.96.96-.37.21-.14,4.03-.96,3.65-.82-.38-.67-1.47-2.21-2.22-1.54-.75-2.61-1.43-2.61-1.43,0,0-3.93.32-3.85,0,.08-.32.09,1.03-.36,1.43-.45.4-.04,1.13-1.57.49-1.55-.65-1.4-.21-3.85-.96-2.44-.75-3.67-2.02-3.85-2.89-.18-.87-.66.17-1.92-.96-1.26-1.14-1.39-.49-1.87-1.53-.41-.88-1.98-2.32-1.98-2.32l.32-2.49Z"/>
  <rect class="uuid-5e54270a-384a-438a-9faa-3d74526fdc38" x="-65.7" y="-38.15" width="200.38" height="180.99"/>
</svg>