<?xml version="1.0" encoding="UTF-8"?>
<svg class="prefecture-image-14 w-32 h-32" id="uuid-cb295516-c031-49c9-b518-566373307149" data-name="レイヤー 1" xmlns="http://www.w3.org/2000/svg" viewBox="0 0 79.73 79.57">
  <defs>
    <style>
      .uuid-e28dc7e9-bea9-4d3e-9418-d92798c64bc1 {
        fill-rule: evenodd;
        stroke: #231815;
        stroke-width: .6px;
      }

      .uuid-e28dc7e9-bea9-4d3e-9418-d92798c64bc1, .uuid-4c46cd84-f619-48df-9bab-3d880ffe63cc {
        fill: none;
      }

      .uuid-4c46cd84-f619-48df-9bab-3d880ffe63cc {
        stroke-width: 0px;
      }
    </style>
  </defs>
  <path class="uuid-e28dc7e9-bea9-4d3e-9418-d92798c64bc1" d="M30.71,35.15l.96-2.89-.22-2.29s.58,1.97,4.43,3.41c.35.13,2.58.31,2.58.31l1.97.92.85-2.36s2.89,0,3.25.21c.37.21,1.34-.44,2.52.75l1.94,1.54.95,1.35s-2.48.44-2.89.96c-.4.52-1.7,2.25-.96,2.89.74.64.65,3.19.96,3.85.31.66,1.93,1.92,1.93,1.92,0,0-.84,0-.96.96-.12.95-.21,2.7-.96,2.89-.75.19-1.93-1.92-1.93-1.92,0,0-.8-2.06-.96-2.89-.16-.83-1.92-1.93-1.92-1.93,0,0-1.55.13-1.92,0-.38-.13-2.92.12-3.85.96-.93.85-3.41,1.24-3.85,1.92-.44.68-.96,2.89-.96,2.89l-1.92.96s-1.89-.33-1.93-1.92c-.04-1.6-.89-3.44-.13-4.63.75-1.19.13-2.11.13-2.11,0,0-.52-1.42-1.19-1.59-.66-.17-1.47-1.3-1.47-1.3l2.66-1.92,2.89-.96Z"/>
  <rect class="uuid-4c46cd84-f619-48df-9bab-3d880ffe63cc" x="-65.7" y="-38.15" width="200.38" height="180.99"/>
</svg>