<?xml version="1.0" encoding="UTF-8"?>
<svg class="prefecture-image-15 w-32 h-32" id="uuid-5ace5537-0508-4bbe-92c3-4eb30e0bf646" data-name="レイヤー 1" xmlns="http://www.w3.org/2000/svg" viewBox="0 0 79.73 79.57">
  <defs>
    <style>
      .uuid-64ab2515-7750-4b11-a28a-bc9758e83d73 {
        fill: none;
        stroke-width: 0px;
      }

      .uuid-32349f02-f911-4ada-825f-b9309d3152d1 {
        fill: #fff;
        fill-rule: evenodd;
        stroke: #231815;
        stroke-width: .6px;
      }
    </style>
  </defs>
  <path class="uuid-32349f02-f911-4ada-825f-b9309d3152d1" d="M58.96,16.66c.16.32.48-4.5.96-4.81.48-.32.44-2.37.44-2.37l2.45-3.41s2.52,1.52,2.89,1.93c.24.26,2.01,1.52,2.71,3.92.31,1.08.8,1,1.72.89.5-.06,1.35,0,1.35,0l.96,2.89s-1.28,3.21-2.89,3.85c-1.61.64-2.89,2.09-2.89,1.93s-1.23,3.19-1.38,3.62c-.8,2.22-.32,3.35-.32,3.35,0,0,.26,3.17.74,3.62.55.53,2.92,1.84,2.44,1.68-.48-.16-3.56,2.49-3.4,3.13.16.64-2.24,3.69-1.93,4.81.32,1.13.96,2.72,0,2.89-.96.16-5.77,1.92-5.77,1.92,0,0-4.01.65-3.85.96.16.32.32,4.33,0,4.81-.32.48-2.01,1.42-1.93,1.93.25,1.45.32,1.92.96,2.89.64.96,0,3.53,0,3.85s-.64.64-.96.96c-.32.32-4.81,1.93-4.81,1.93l-1.93,3.85s0,.48-1.93,1.93c-1.93,1.44-2.73,2.09-2.89,2.89-.16.8-4.17,1.13-3.85.96.32-.16-.41-1.35-.3-2.63.02-.24-.31-.83-.31-.83,0,0-.83-.87-1.31-2.31-.48-1.44-.96-1.61-.96-2.89s-.16-2.41-.96-1.93c-.8.48-3.53.96-3.85,1.93-.32.96-2.16,2.19-2.89,2.89-1.41,1.35-2.29,3.09-2.89,2.89-.61-.2-2.89-1.28-2.89-.96,0,.37-1.93,1.33-1.93.96,0-.32-.96-1.93-.96-1.93l-1.93-.96-.96-.96-2.21,2.69-2.61,4.04s-.49-.63-.96-1.93c-.8-2.21-.5-4.38-.5-4.38l-1.43-1.39-.96-.96s3.05-1.61,3.85-1.93c.8-.32,5.61-1.28,5.78-1.93.16-.64,2.89-2.89,2.89-2.89l2.89-.96c.48-.16,4.17.8,4.82,0,.64-.8,1.93-3.05,3.85-4.81,1.93-1.76,4.65-1.93,4.82-2.89.16-.96.32-2.24,1.93-3.85,1.61-1.61,2.09-3.37,2.89-3.85.8-.48,1.28-2.57.96-2.89-.32-.32.96-5.78.96-5.78,0,0,3.85-3.05,5.78-3.85,1.93-.8,4.33-.32,5.78-1.93,1.44-1.61,4.01-2.57,4.81-3.85.59-.94,2.01-2.55,1.93-2.89-.32-1.28-.16-4.17,0-3.85Z"/>
  <path class="uuid-32349f02-f911-4ada-825f-b9309d3152d1" d="M23.33,22.44s2.89-1.93,2.89-2.89,1.76-2.09,1.93-2.89c.16-.8,1.93-2.89,1.93-2.89,0,0,.8,4.01,0,5.78-.8,1.76-1.13,3.85-.96,3.85s.96.65.96.96,2.73-1.44,2.89-.96c.16.48,0,2.89,0,2.89,0,0-1.61.16-1.93.96-.32.8-.65,2.72-1.93,3.85-1.28,1.13-3.21,3.21-3.85,2.89-.65-.32-2.89-.96-2.89-.96,0,0,1.76-1.92,1.93-2.89.16-.96.48-.8.96-1.92.48-1.13-.16-3.21,0-2.89.16.32-1.93,1.92-1.93,1.92,0,0-.48.96-.96,0-.48-.96,1.28-2.89.96-2.89s0-1.93,0-1.93Z"/>
  <rect class="uuid-64ab2515-7750-4b11-a28a-bc9758e83d73" x="-65.7" y="-38.15" width="200.38" height="180.99"/>
</svg>