<?xml version="1.0" encoding="UTF-8"?>
<svg class="prefecture-image-16 w-32 h-32" id="uuid-35ec5294-63ec-4d00-9289-30e9409c78e2" data-name="レイヤー 1" xmlns="http://www.w3.org/2000/svg" viewBox="0 0 79.73 79.57">
  <defs>
    <style>
      .uuid-b9ce0e79-f3aa-46b0-8b0f-6956b1138721 {
        fill: none;
        stroke-width: 0px;
      }

      .uuid-c9b55b0c-703c-406e-92a3-74fa1b913b49 {
        fill: #fff;
        fill-rule: evenodd;
        stroke: #231815;
        stroke-width: .6px;
      }
    </style>
  </defs>
  <path class="uuid-c9b55b0c-703c-406e-92a3-74fa1b913b49" d="M26.71,36.62l.12-2.65s.13-.6,1.81-2.16c1.65-1.55,3.85-.96,3.85-.96l-.96,3.85s-.14.95,0,1.93c.14.97,2.1,2.16,2.89,2.89.79.73,2.68,1.19,3.85.96,1.18-.23,2.13-.79,2.89-1.92.76-1.14,1.86-1.46,1.93-2.89.07-1.43-.26-2.41.96-2.89,1.22-.48,2.89-1.93,2.89-1.93h2.89s1.23,1.54,1.93,1.93c.45.25.39,2.13.39,2.13,0,0-.28,1.45.58,2.69.86,1.24.96,1.89.96,2.89,0,3.13-.97,5.84-1.35,6.11-.38.27-2.8,2.23-3.21,3.49-.4,1.26-.52,2.09-2.19,1.96-1.67-.13-3.18.06-4.18-.7-.99-.76-2.33-1.07-3.53-1.23-1.19-.15-3.31-.71-3.56-.15-.25.56-.9.59-1,1.06-.1.47-.92,3.3-2.63,5.32-.89,1.05-1.18,1.1-2.44-.45-.94-1.15-1.93-1.93-1.93-1.93,0,0-2.89,3.24-2.89,2.89s-.21-3.75-.24-4.16c-.29-3.53-.9-6.41-.72-7.4.17-.99.64-2.69.64-2.69.36-.39.9-2.48.9-2.48l1.33-1.02.02-2.47Z"/>
  <rect class="uuid-b9ce0e79-f3aa-46b0-8b0f-6956b1138721" x="-65.7" y="-38.15" width="200.38" height="180.99"/>
</svg>