<?xml version="1.0" encoding="UTF-8"?>
<svg class="prefecture-image-17 w-32 h-32" id="uuid-2134e7ec-00f8-4b1d-aebb-8b00de02f59a" data-name="レイヤー 1" xmlns="http://www.w3.org/2000/svg" viewBox="0 0 79.73 79.57">
  <defs>
    <style>
      .uuid-fff2ca09-8f95-4e12-8bfe-35904bad46eb {
        fill: none;
        stroke-width: 0px;
      }

      .uuid-4c39581b-05dd-46d9-93f5-bb46aa3fba21 {
        fill: #fff;
        fill-rule: evenodd;
        stroke: #231815;
        stroke-width: .6px;
      }
    </style>
  </defs>
  <path class="uuid-4c39581b-05dd-46d9-93f5-bb46aa3fba21" d="M23.01,61.31s5.43-4.23,5.78-4.81c.35-.59,2.6-3.23,2.89-3.85.29-.62,2.48-5.81,2.89-5.78.4.04.98-1.92,1.93-3.85.94-1.93,2.2-2.25,1.93-2.89-.27-.64-.96-4.81-.96-4.81,0,0,.19-.96,0-1.93-.19-.96-2.24-3.39-1.93-3.85.32-.46.89-3.18.96-3.85.07-.68,1.16-3.16.96-2.89-.04.06-.07.08-.08.07-.03-.02.32-.46,2-1.03,2.12-.71,2.05-.34,3.85-.96,1.8-.63,2.73-1.45,3.85-1.93,1.13-.47,3.55-2.48,4.82-2.89,1.26-.41,2.4-1.34,2.89-.96.49.38,1.93,1.93,1.93,1.93,0,0,.04,1.34-.96,1.92-1,.59-2.89,1.93-2.89,1.93,0,0,.23,1.3,0,1.92-.23.63-1.32,1.64-1.93,1.92-.61.29-1.93,0-1.93,0,0,0,.29,1.44-.96,1.93-1.25.48-1.93,1.93-1.93,1.93h-2.89l-.96.96-.96,1.93.96.96s3.37.53,2.89,0c-.48-.53,0-1.92,0-1.92l1.93.96v1.92l.96,1.93-.96.96h-1.93s-1.95.46-2.89,1.93c-.94,1.46-.8,1.84-.96,2.89-.16,1.05-.02,3.43-.02,3.43l-.94.42c-.42.19-2.19,5-1.93,5.78.26.78.96,10.59.96,10.59,0,0,0,1.11-.17,1.56-.17.44-1.09,3.23-.83,3.78.26.56,0,2.66,0,2.66l-1.9.66s-2.13.84-2.89-.96c-.76-1.8-.96-1.92-.96-1.92,0,0-5.93-.48-5.78,0,.15.48-1.17-.06-1.93-.96-.85-1.02-1.93-2.89-1.93-2.89v-1.92Z"/>
  <rect class="uuid-fff2ca09-8f95-4e12-8bfe-35904bad46eb" x="-65.7" y="-38.15" width="200.38" height="180.99"/>
</svg>