<?xml version="1.0" encoding="UTF-8"?>
<svg class="prefecture-image-18 w-32 h-32" id="uuid-3c7f3e2a-eaec-4f94-b2e5-bc84b229920a" data-name="レイヤー 1" xmlns="http://www.w3.org/2000/svg" viewBox="0 0 79.73 79.57">
  <defs>
    <style>
      .uuid-2b43f2db-1dcd-4863-ba44-7a4697aa1124 {
        fill: none;
        stroke-width: 0px;
      }

      .uuid-4609fc34-0e0f-423b-b8e0-f50e80e6ede2 {
        fill: #fff;
        fill-rule: evenodd;
        stroke: #231815;
        stroke-width: .6px;
      }
    </style>
  </defs>
  <path class="uuid-4609fc34-0e0f-423b-b8e0-f50e80e6ede2" d="M36.31,26.68s.03-1.06.96-1.92c.93-.87,3.85-2.89,3.85-2.89,0,0-.19,1.1,0,1.92.19.83,1.2,2.09,1.93,2.89,1.26,1.38,1.29.88,2.89.96,1.6.08,3.85,0,3.85,0,0,0,.93-.3,1.39.72.54,1.2,1.5,2.16,1.5,2.16h1.93l.42,2.71,1.93,1.68s.36,1.08,1.02,1.46c.66.38.31,1.54.31,1.54,0,0-.01,1.43-1.66,1.9-1.26.36-4.45.7-4.45.7,0,0-1.61.98-2.4.58-.79-.4-3.62-.52-3.85,0-.23.52-2.34,1.87-1.93,1.93.07,0,.09,0,.09,0,.01-.02-.82-.12-1.05.96-.27,1.29.69,4.05.15,2.64-.2-.52-2.7-1.88-2.82-2.46-.13-.59-2.14.78-2.14.78,0,0,1.15,1.54.96,1.92-.39.79-1.48,2.25-2.89,2.89-1.41.64-3.09.38-2.89.96.2.59-.3.42-.96.96-.66.54-1.36,1.12-1.93,1.92-.57.81-1.27,1.4-1.93,1.93-.65.53-1.15,1.36-1.34,1.06-.19-.3-3.06,1.72-3.47.87-.41-.85-.51-2.27-1.92-1.93s-1.93,0-1.93,0l-1.93-1.93s-1.45-1.58-1.1-2.24c.4-.76-.69-.96.14-1.61.83-.64,2.38,2.12,2.89,1.93.51-.19,1.69-2.38,1.93-1.93.23.45,2.89.96,2.89.96,0,0-.72.41.96-.96,1.68-1.38,2.08-.55,2.89-.96.81-.41-.9-1.97.96-1.93,1.86.05,2.64.87,2.89,0,.25-.87-.62-4.09,0-3.85.62.24,2.78.22,2.89.96.11.74.54,3.01.96.96.42-2.05.95-3.09.96-3.85,0-.76-1.67-2.45-1.93-2.89-.26-.44-1.76.89-1.93-.96-.16-1.86-.3-2.09-.96-2.89-.66-.8-1.35-1.41,0-1.93,1.35-.52,2.23-.59,2.89-1.92.65-1.34.96-3.85.96-3.85Z"/>
  <rect class="uuid-2b43f2db-1dcd-4863-ba44-7a4697aa1124" x="-65.7" y="-38.15" width="200.38" height="180.99"/>
</svg>