<?xml version="1.0" encoding="UTF-8"?>
<svg class="w-32 h-32" id="uuid-57bb0a48-124f-4e85-ad36-eb9875cb4ac5" data-name="レイヤー 1" xmlns="http://www.w3.org/2000/svg" viewBox="0 0 79.73 79.57">
  <defs>
    <style>
      .uuid-72247b0a-08c6-4e83-a42f-eaa549c87b16 {
        fill: none;
        stroke-width: 0px;
      }

      .uuid-08c6dfc1-fdaf-4dfd-94b9-56fc6f39d1b2 {
        fill: #fff;
        fill-rule: evenodd;
        stroke: #231815;
        stroke-width: .6px;
      }
    </style>
  </defs>
  <path class="uuid-08c6dfc1-fdaf-4dfd-94b9-56fc6f39d1b2" d="M31.2,48.68s.12,2.8,1.07,4.11c.95,1.31,2.36.97,2.89.96.53,0,1.04-5.19.96-5.78-.08-.59,2.17-2.54,1.93-2.89-.24-.35.58,1.72.96,1.92.39.2,3.05.67,3.05.67,0,0,.56-1.02.81-1.63.25-.61,2.89,0,2.89,0l4.49-.17s-2.85-1.4-2.32-1.92c.71-.7,2.2-1.65,2.92-1.85,3.73-1.07,2.45-1.27,3.22-2.66.18-.33.14-3.38.14-3.38,0,0-2.5-.54-3.29-1.64-1.37-1.91-2.27-2.81-2.27-2.81,0,0,.57-2.65.12-2.37-1.31.81-4.94-.52-4.94-.52l-2-2.17-3.45,1.18-1.28-.94s-.52-1.33-1.93-.96c-1.41.37-2.89,0-2.89,0l-3.85,1.93s-.84-.03-.96.96c-.28,2.22-.48,2.89-.96,3.85-.18.36-1.06,1.4-.96,1.92.1.53.02,1.53.38,1.9.37.38,1.64,1.84,1.64,1.84,0,0-.91,2.13-.09,3.96.82,1.84,1.16,5.06,1.47,5.54.94,1.48,2.28.93,2.28.93Z"/>
  <rect class="uuid-72247b0a-08c6-4e83-a42f-eaa549c87b16" x="-65.7" y="-38.15" width="200.38" height="180.99"/>
</svg>