<?xml version="1.0" encoding="UTF-8"?>
<svg class="w-32 h-32" id="uuid-0e6ca9fd-7395-43fb-bdff-27d2446b061f" data-name="レイヤー 1" xmlns="http://www.w3.org/2000/svg" viewBox="0 0 79.73 79.57">
  <defs>
    <style>
      .uuid-c9284ac1-97ed-4802-97b2-3e91cf348e65 {
        fill: none;
        stroke-width: 0px;
      }

      .uuid-3c9c2bb3-1aba-4629-b72a-9675f59b9aa7 {
        fill: #fff;
        fill-rule: evenodd;
        stroke: #231815;
        stroke-width: .6px;
      }
    </style>
  </defs>
  <path class="uuid-3c9c2bb3-1aba-4629-b72a-9675f59b9aa7" d="M31.42,16.67s2.01-2.45,1.93-2.89c-.09-.44,2.89-3.85,2.89-3.85,0,0,3.35,2.23,3.56,3.13.36,1.5,1.77-.45,3.12.19.62.29,2.2.52,2.2.52l3.02-3.2s1.56-.73,2.12-2.03c.77-1.77,3.86-2.28,3.86-2.28,0,0,1.33-.77,1.26.37-.09,1.36.68,3.29.68,3.29,0,0,.44,2.2,1.36,2.89.91.69.65,2.25.96,2.89.31.64.75,1.19,0,.96-.75-.23-3.02,1.34-4.12,2.24-1.82,1.49-2.81,1.83-3.58,2.57-.7.68-.28,1.54-.74,3.22-.46,1.68-.14,1.25.28,2.34.42,1.09,2.73,2.44,2.73,2.44,0,0,1.83,1.06,1.58.67-.25-.39.36-1.61.96-1.92.8-.42,1.93,1.92,1.93,1.92v3.85s-.55,1.9-.96,2.89c-.41.99.69.31.83,2.37.17,2.44.16,3.66.16,3.66l2.1,1.67.28,1.21s.65,1.36-.74,1.83c-1.67.56-2.38,1.15-3.59-.15-1.21-1.3-.87-1.25-1.93-.96-1.06.29-1.03-.19-1.93,0-.9.19-1.94.49-1.94.49,0,0,0-.37-2.18,1.09-2,1.33-1.65,1.31-1.65,1.31,0,0,.02,2.4-.96,3.85-1.2,1.77-.72.85-.62,2.87.09,1.96-.14,4.16-.59,5.37-.39,1.07-.96,2.57-1.37,4.36-.36,1.57-.39,1.22-3.09,2.24-1.42.54-1.2,1.85-2.68,3-1.3,1.01-2.8,1.65-3.63,2.28-.94.71-4.01-.85-4.4-.87-.39-.02-1.16.71-1.93.96-.76.25-1.89-2.35-1.89-2.35,0,0,.3-2.8.92-3.43,2.88-2.88,2.87-1.78,1.48-4.45-.48-.92-3.56-1.45-2.84-2.63.72-1.19,1.49-2.19.4-3.51-.46-.56-1.02-.33-1.63-2.09-.62-1.76-.7-1.73-2.22-2.72-1.52-.99-1-2.6-1-2.6,0,0-.04-.7.23-1.33.33-.77.81-.28,2.23-1.01,1-.51,3.08-2.33,3.08-2.33,0,0,1.2-1.8,1-2.57-.12-.46-1.27-1.22-1.27-1.22,0,0-.5.22-.6-1.26-.07-.91.59-1.43,1.15-3.09.56-1.66.49-2.53.96-2.89.47-.36,1.27-1.19.96-1.93-.31-.73-.96-1.92-.96-1.92l-.62-1.25,1.58-3,2.89-2.49s.58-1.82.68-2.79c.08-.71.28-3.95.28-3.95Z"/>
  <rect class="uuid-c9284ac1-97ed-4802-97b2-3e91cf348e65" x="-65.7" y="-38.15" width="200.38" height="180.99"/>
</svg>