<?xml version="1.0" encoding="UTF-8"?>
<svg class="prefecture-image-21 w-32 h-32" id="uuid-377f54ec-0a8b-4a8d-a15b-4e9baf84d7ce" data-name="レイヤー 1" xmlns="http://www.w3.org/2000/svg" viewBox="0 0 79.73 79.57">
  <defs>
    <style>
      .uuid-41e6ecae-0d98-4440-8d29-d86799c9e559 {
        fill: none;
        stroke-width: 0px;
      }

      .uuid-93fc29f2-30b4-4542-ac29-fa39c3e67e87 {
        fill: #fff;
        fill-rule: evenodd;
        stroke: #231815;
        stroke-width: .6px;
      }
    </style>
  </defs>
  <path class="uuid-93fc29f2-30b4-4542-ac29-fa39c3e67e87" d="M53.17,51.37c1.1,1.64,1.91,2.25.89,2.97-1.02.71-1.08,1.18-1.56,1.72-.68.76-1.1,2.2-1.24,3.17-.15,1-.27.59-1.58,1.14-2.04.86-1.46.61-2.91.48-.91-.08-.53-.8-2.34-.74-1.81.06-3.31,1.81-3.92,1.26-.61-.55-.89-.96-1.86-2.23-.97-1.27-1.8-3.6-2.89-3.85-1.09-.25-4.31.44-5.17.95-.97.57-2.09-.07-2.53.97-.39.92-2.57,1.45-2.23,2.77.79,3.04-.66,3.97-.66,3.97,0,0-.82-.25-1.93-.96-1.11-.71-1.93-1.93-1.93-1.93,0,0-1.49-1.72-1.92-.96-.43.76-1.93,1.92-1.93,1.92,0,0-1.65-2.83-.96-3.85.68-1.02,2.11-1.94,1.93-2.89-.18-.95.26-1.76-.02-2.38-.28-.62-1.02-.66-.94-1.47.08-.81-.38-1.35-.38-1.35,0,0-1.25-.79-1.55-1.54-.3-.75-.96-2.89-.96-2.89,0,0-.48-1.45.37-2.29.37-.37.59-.59,1.55-1.56,1.15-1.15,1.04-1.53,3.07-1.29,2.03.24,2.06.61,3.34.14,1.03-.38,1.39-.57,3.22-.78,1.83-.2,2.53-.31,2.89-.96.36-.66,1.4-.9.96-1.93-.43-1.03-1.93-2.89-1.93-2.89,0,0-1.93-.96-1.51-1.14.41-.17-.75-2.6-.42-2.71.34-.12,1.15-.4,1.15-.4,0,0,1.05-1.91.78-2.49-.27-.58.96-4.81.96-4.81l2.89-2.89s.7.92,1.93,1.93c.68.55.72,2.2,1.93.96,1.2-1.24,1.34-1.25,1.93-2.89.77-2.14,1.4-3.35,1.93-3.85.53-.5,2.89,0,2.89,0,0,0,2.29.31,3.85.96,1.56.65,1.92.74,2.89.96.97.22,3.24-.29,3.24-.29l1.82,3.54-.7,1.19s-.98.14-.95,1.3c.03,1.16,0,1.4-.73,2.53-.69,1.06-1.21,2.61-.75,3.28.46.67,1.69,1.72,1.69,1.72l-.72,2.14s-.35.85-1.93,1.92c-1.58,1.08-3.65,1.52-3.65,1.52l-.2,1.37c-.2,1.37.18,2.29.96,2.89.78.6,1.48.78,1.93,1.93.44,1.14.43,1.57,1.61,2.55,1.69,1.4.48,2.9.48,2.9,0,0-1.29,1.42-.16,1.91l1.99,1.22Z"/>
  <rect class="uuid-41e6ecae-0d98-4440-8d29-d86799c9e559" x="-65.7" y="-38.15" width="200.38" height="180.99"/>
</svg>