<?xml version="1.0" encoding="UTF-8"?>
<svg class="w-32 h-32" id="uuid-e8ed322b-60b9-4787-8b67-c77a9fe67596" data-name="レイヤー 1" xmlns="http://www.w3.org/2000/svg" viewBox="0 0 79.73 79.57">
  <defs>
    <style>
      .uuid-754e3ded-e187-44f7-a14d-59fd00d06634 {
        fill: none;
        stroke-width: 0px;
      }

      .uuid-73b4a277-3bf5-42b1-9892-2e2b1139f10d {
        fill: #fff;
        fill-rule: evenodd;
        stroke: #231815;
        stroke-width: .6px;
      }
    </style>
  </defs>
  <path class="uuid-73b4a277-3bf5-42b1-9892-2e2b1139f10d" d="M16.8,38.84c.02,1.37.38-5.68.8-5.69.42,0,1.48,0,3.05-1.05.33-.22,2.89-1.92,2.89-1.92,0,0,1.59-2.73,2.89-2.89,1.3-.15,1.67-.18,1.93-.96.26-.78.96-2.52.96-2.89s.96-2.89.96-2.89c0,0,.36-3.97.72-3.59.37.38,1.32,1.47,1.05,2.32-.75,2.37.23,2.98.52,4.2.29,1.22.7,3.15.82,3.57.28.98.83,1.66,1.22,1.8.71.26,1.3-.38,1.45.37.14.75.08,3.24.68,3.49.6.25.2.87,1.39,1.21.96.27,1.14.64,1.99-.25.72-.75.75-5.41.75-5.41l1.93-2.89s.05,1.37.96,1.92c.91.56,1.23.33,2.56.58.78.15.87-1.12,1.3-1.54.42-.42,2.53.07,2.89,0,.36-.07,2.42.25,2.89,0,.47-.25,1.6-.17,1.6-.17,0,0,.89,2.31.32,3.06-.57.75-.45,1.38-.41,1.97.04.59.45,3.19.45,3.19l.81,1.13s1.07.44,2.03,4.29c.16.62,1.92,2.89,1.92,2.89,0,0-.42,2.62-.96,2.89-.54.27-1.38,1.64-1.92,1.92-.55.29-1,2.31-1.93,2.89-.92.58-.98.8-1.93,1.93-.95,1.12-2.37,3.42-2.89,2.89-.52-.53-3.14-2.6-2.89-2.89.25-.29-1.46-3.35-.96-3.85.5-.5.9-4.36.96-4.81.07-.45.96-2.89.96-2.89l1.93-.96v-2.89s1.77-.8-.96-.96c-2.73-.16-5.78,0-5.78,0,0,0-1.94.33-1.93.96.02.64-1.59.39-.96,1.93.63,1.54-.96,2.89-.96,2.89l-3.85.96-.96,1.92s.32.5-.96,1.92c-1.28,1.43-2.91,1.86-2.89,3.85.02,1.99,1.73,3.24.96,3.85-.77.62-2.36-.77-2.89-.96-.53-.19-4.67-.5-5.78-.96-1.11-.46-2.53,1.33-3.85.96-1.32-.36-3.03-.67-3.85-.96-.83-.29-1.93-.96-1.93-.96,0,0-1.09-.99-.96-1.92.12-.94,0-1.93,0-1.93,0,0-2.56.05-1.93.96.63.91-.29,5-.96,3.85-.75-1.26-1.22-2.77-1.22-2.77l.47-4.26s1.16-.25,3.64-1.64c2.45-1.37,3.87-2.32,3.85-2.89-.02-.57,0-2.29,0-1.93Z"/>
  <rect class="uuid-754e3ded-e187-44f7-a14d-59fd00d06634" x="-65.7" y="-38.15" width="200.38" height="180.99"/>
</svg>