<?xml version="1.0" encoding="UTF-8"?>
<svg class="w-32 h-32" id="uuid-66e047ce-a0be-4dc0-96e9-6eb60d993ba4" data-name="レイヤー 1" xmlns="http://www.w3.org/2000/svg" viewBox="0 0 79.73 79.57">
  <defs>
    <style>
      .uuid-6916cc10-770a-4ff4-ae4d-9a65202580b1 {
        fill: none;
        stroke-width: 0px;
      }

      .uuid-a0d9d46b-9b84-4b44-9da0-d7fa56650e56 {
        fill: #fff;
        fill-rule: evenodd;
        stroke: #231815;
        stroke-width: .6px;
      }
    </style>
  </defs>
  <path class="uuid-a0d9d46b-9b84-4b44-9da0-d7fa56650e56" d="M26.49,40.22s-.46.14-.96-.96c-.5-1.11-2.36-2.99-1.93-2.89.43.11.96-1.44.96-1.93s-.53-2.66.06-3.11c.64-.48.82-.98,1.87-1.7,1.14-.78,2.68-1.08,2.89-.96.21.12,1.89-.98,1.93-.96.04.02,1.45-.32,1.93,0,.47.32,1.29-.18,1.82.63.53.81,2.87,4.99,3.25,4.78.38-.2.48,1.17,1.68.36,1.19-.81,3.08-.96,3.85-.96s1.41,1.01,1.93.96c.52-.05,3.45-1,3.89-1.39.44-.38,1.46,2.68,1.89,2.35.42-.33,1.23-.9,1.93-.96.6-.05,2.73,1.05,2.73,1.05l-.25.58c-.22,2.48-.16,1.89-.22,2.48-.22,2.4-.15,2.53-.35,4.75-.02.2-1.28.87-1.87,1.34-1.3,1.04-2.13,1.43-2.78,1.93-.64.5-3.08.79-3.04,1.34.04.55.19,1.02,0,1.92-.19.91-.49,2.13,0,2.89.49.76,1.16,2.12,1.16,2.12,0,0-3.02-.62-4.05-.19-1.03.43-3.57,1.51-4.81,1.93-1.24.41-4.82.96-4.82.96,0,0,.34-1.47.96-1.93.63-.45,4.51-1.57,4.82-1.92.31-.36,1.95.18,1.93-.96-.02-1.14,1.17-1.18,0-1.92-1.17-.74-1.93-1.93-1.93-1.93,0,0-2.1.51-1.93.96.17.45-.22,2.48-1.93,1.93-1.7-.56-3.87.08-3.85-.96.02-1.04-.8-3.21-.96-2.89-.16.33-.96.96-.96.96,0,0-.49.92,0,1.93.49,1.01,2.37.86,1.93,1.92-.44,1.07-1.73,1.16-1.93.96-.19-.2-1.84-1.21-1.93-1.92-.09-.71-1.08-2.25-.96-2.89.12-.63,1.36-1.46.96-1.92-.4-.46-2.23-2.65-1.93-2.89.31-.24.78-.09.96-.96.18-.88.96-1.93.96-1.93h-2.89Z"/>
  <rect class="uuid-6916cc10-770a-4ff4-ae4d-9a65202580b1" x="-65.7" y="-38.15" width="200.38" height="180.99"/>
</svg>