<?xml version="1.0" encoding="UTF-8"?>
<svg class="prefecture-image-24 w-32 h-32" id="uuid-e5f589de-21bd-4801-9cdc-f53c3347ea7d" data-name="レイヤー 1" xmlns="http://www.w3.org/2000/svg" viewBox="0 0 79.73 79.57">
  <defs>
    <style>
      .uuid-8864939d-0185-4ebe-98e6-3ccdb83e27df {
        fill: none;
        stroke-width: 0px;
      }

      .uuid-67747bc0-699e-4764-92c2-81c211cec83e {
        fill: #fff;
        fill-rule: evenodd;
        stroke: #231815;
        stroke-width: .6px;
      }
    </style>
  </defs>
  <path class="uuid-67747bc0-699e-4764-92c2-81c211cec83e" d="M46.6,26.02s-2.02,2.33-1.93,2.89c.1.56.36,2.41,0,2.89-.36.48-.48,1.69,0,1.92.48.23.71.5,1.93,1.93,1.21,1.43,1.36.67,2.89,1.93,1.53,1.25,2.2,1.92,2.89,1.93.69,0,3.18.24,2.89.96-.29.72.52.92,0,1.92-.52,1-2.34,2.34-1.93,2.89.41.55.12,2,0,1.93-.12-.08-1.22-.55-1.93-.96-.7-.41-2.72-1.67-2.89-.96-.17.7-2.43,2.11-3.85,2.89-1.42.78-2.32.08-3.85.96-1.53.88-2.8,1.13-2.89,1.93-.09.79-1.08,1.69-.96,1.92.12.23.04,2.5,0,2.89-.04.38.1,2.96-.96,2.89-1.06-.07-2.82.24-2.89.96-.07.72-1.35,1.63-1.93,2.89-.58,1.26-.66,2.53-.96,2.89-.3.36,0,1.92,0,1.92,0,0-1.7.74-1.93.75-.45.02.36-1.22-1.22-2.8-1.82-1.83-2.46-1.47-2.64-1.8-.4-.75,0-1.18,0-1.92,0-.74,1.5-2.6,1.93-2.89.93-.63.6.27,1.93-.96,1.1-1.03,1.09-1.93,1.93-1.92.84,0,2.02-.49,1.93-.96-.1-.47-1.68-4.36-.96-4.81.71-.45,2.22-1.57,1.93-1.93-.3-.35-.71-1.13-.96-1.92-.25-.79-.86-2.16-.96-2.89-.1-.75-.18-2.27.33-2.05.51.22,3.84.03,3.52-.84-.32-.88.63-1.38,0-1.93-.63-.55-2.81-1.58-3.19-1.8-.54-.31-2.01-.15-1.62-1.09,1.35-3.28.42-3.01.96-2.89-.42-.1-1.89-1.39-1.72-1.72.2-.39-.35-1.26-.21-2.13.2-1.29,1.74-2.31,2.05-2.45.8-.36,1.9-.44,2.49-.84.22-.15-.59-1.45,2.94-.61,1.32.32,3.72-3.36,3.72-3.36,0,0,.56-.95.55-1.57-.02-1,.42-2.05.44-2.65.02-.61.24-3.04.34-2.96.1.08-.3-.78-.74-.87-.43-.1,2.1-2.2,2.1-2.2l.56.18,2.26,2.41s.38.03,1.7,1.08c1.54,1.24,1.58,1.48,1.58,1.48,0,0,.95,1.36,1.21,1.77.26.41,0,1.93,0,1.93,0,0-1.52,1.15-1.93.96-.41-.19-.68.44-.96.96-.28.52-.96,3.85-.96,3.85Z"/>
  <rect class="uuid-8864939d-0185-4ebe-98e6-3ccdb83e27df" x="-65.7" y="-38.15" width="200.38" height="180.99"/>
</svg>