<?xml version="1.0" encoding="UTF-8"?>
<svg class="prefecture-image-25 w-32 h-32" id="uuid-b87aef7e-fa1e-4ae0-ac2e-083037e6b8f4" data-name="レイヤー 1" xmlns="http://www.w3.org/2000/svg" viewBox="0 0 79.73 79.57">
  <defs>
    <style>
      .uuid-defaeee6-41ce-4098-975c-fd3eb262ad78 {
        stroke-width: .6px;
      }

      .uuid-defaeee6-41ce-4098-975c-fd3eb262ad78, .uuid-973b347e-1929-44a8-a7f5-bf6b8c2ac51e {
        fill-rule: evenodd;
        stroke: #231815;
      }

      .uuid-defaeee6-41ce-4098-975c-fd3eb262ad78, .uuid-973b347e-1929-44a8-a7f5-bf6b8c2ac51e, .uuid-bd98a6b9-09d6-4d26-9f50-c81503b38420 {
        fill: none;
      }

      .uuid-973b347e-1929-44a8-a7f5-bf6b8c2ac51e {
        stroke-miterlimit: 10;
      }

      .uuid-bd98a6b9-09d6-4d26-9f50-c81503b38420 {
        stroke-width: 0px;
      }
    </style>
  </defs>
  <path class="uuid-defaeee6-41ce-4098-975c-fd3eb262ad78" d="M30.69,48.02c.12-.64.7-2.31.96-3.85.26-1.54,0-2.89,0-2.89l-1.93-.96.96-1.93s-.13-1.49,0-1.93c.12-.43,1.89-1.56,2.89-2.89.98-1.3,2.89-2.53,2.89-2.53,0,0-.23-.6,1.86-1,1.36-.26,2.55-1.37,2.55-1.37,0,0,2.21-1.36.64-3.84-.26-.41,1.69-.89,1.69-.89,0,0,2.69,2.52,2.89,2.89.4.75.91,1.06.96,1.93.05.87.05.51.96.96.91.45,1.14,2.87,1.14,2.87,0,0,1.06.53.78.98-.28.44,0,1.93,0,1.93,0,0,0,1.12-.96,1.93-.96.81-.94.18-1.12,1.62-.18,1.44.62,2.99,1.12,3.19.5.2,1.24.36.96,1.93-.28,1.57-.96,5.78-.96,5.78l-1.75,2.26-2.1,1.59s-2.63-.72-2.89,0c-.26.72-2.38,1.28-2.38,1.28,0,0-1.22.08-1.8.52-.18.14-1.88-.41-2.68-.26-1.45.28-1.9-1.11-1.9-1.11,0,0-1.55-.06-1.84-.44s.52-.74.18-2.12c-.34-1.37-.18-2.69-.18-2.69,0,0-1.09-.33-.96-.96Z"/>
  <path id="rake" class="uuid-973b347e-1929-44a8-a7f5-bf6b8c2ac51e" d="M35.5,40.32s3.15-2.04,2.89-2.89c-.26-.85,0-.96,0-.96,0,0-.29-1.4,0-1.92.29-.52,1.73-.49,1.93-.96.19-.47.96-.96.96-.96,0,0,1.5-.21,1.93.96.42,1.18.4,1.76.96,1.93.56.16,1.37,1.12.96,1.93-.4.81.12,1.58-.96,1.92-1.09.35-2.49,1.49-2.89,1.92-.39.43-1.62,1.22-1.93,1.93-.31.7-1.93,1.92-1.93,1.92h-1.93v1.93l-.96,2.89-.96-.96-.2-3.06,1.17-3.68.96-1.92Z"/>
  <rect class="uuid-bd98a6b9-09d6-4d26-9f50-c81503b38420" x="-65.7" y="-38.15" width="200.38" height="180.99"/>
</svg>