<?xml version="1.0" encoding="UTF-8"?>
<svg class="prefecture-image-26 w-32 h-32" id="uuid-625761da-967b-4bee-8a91-9986c3add98b" data-name="レイヤー 1" xmlns="http://www.w3.org/2000/svg" viewBox="0 0 79.73 79.57">
  <defs>
    <style>
      .uuid-0c13cb02-bfec-4884-ba9e-82e45a9a4bed {
        fill: none;
        stroke-width: 0px;
      }

      .uuid-4500ed67-2f22-4126-8bfd-335d1d994c17 {
        fill: #fff;
        stroke: #000;
      }
    </style>
  </defs>
  <path class="uuid-4500ed67-2f22-4126-8bfd-335d1d994c17" d="M23.05,38.77s.43-.4,1.38-1.47c.95-1.07,2.91-1.56,2.67-3.04-.24-1.47-.31-2.12-1.37-1.67-1.06.45-2.81,1.76-2.81,1.76l-.63-2.01s.25-3.37.07-3.32c-.18.05-.32-.74.73-1.01,1.05-.27,2.61-.54,4.01-1.44,1.41-.9,1.99-.47,2.89-.96.9-.49,2.89-1.93,2.89-1.93,0,0-.11,1.14.96,1.93,1.07.79,2.96,1.23,1.92,1.92-1.04.69-2.91-.78-2.89.96.02,1.74-.75,3.22,0,3.85.75.64,1.45,1.47,1.92.96.47-.51,1.55-1.51,1.93-1.92.38-.41,1.93,0,1.93,0,0,0-.49.93-.21,1.7.15.41-.31,1.58,1.41,3.34.75.77.65,1.37,1.69,1.69,1.01.31,2.34.02,2.89,0,.55-.02,1.2,2.14,1.2,2.14l3.61-1.17-.02,1.69-.95,2.16,1.93.96s.17.89.06,2.45c-.17,2.41-1.16,3.44-1.18,4.05-.04.88.57.44,1.12,1.2.35.48-.44,1.06,0,1.92.44.87,0,2.89,0,2.89,0,0,.9.16,2.04.84,2.09,1.24-.23.2.62.6l4.62.44s-1.29.88-1.5,1.97c-.21,1.09,1.03,2.76-.96,1.92-1.99-.84-3.98,1.12-4.81.96-.84-.15-1.37-.31-1.93-.96-.56-.66-1.46-.72-1.93-2.89s-1.19-2.97-1.93-3.85c-.73-.88-1.46-.92-1.46-.92,0,0-1.66.18-2.4-.05-.73-.23-2.87-2.74-3.49-3.13-.46-.29.08-1.77-.36-2.65-.59-1.18-1.12-1.48-1.93-1.92-.81-.44-2.41-.94-2.89-.96-.48-.03-.24-.32-1.38-.73-1.55-.56-2.08-.77-2.84-1.2-2.6-1.49-4.58-4.04-4.58-4.04l-.06-1.07Z"/>
  <rect class="uuid-0c13cb02-bfec-4884-ba9e-82e45a9a4bed" x="-65.7" y="-38.15" width="200.38" height="180.99"/>
</svg>