<?xml version="1.0" encoding="UTF-8"?>
<svg class="w-32 h-32" id="uuid-9ec62f62-37af-41de-87bc-374bde493751" data-name="レイヤー 1" xmlns="http://www.w3.org/2000/svg" viewBox="0 0 79.73 79.57">
  <defs>
    <style>
      .uuid-88b6542a-535f-4b3b-ac2d-4521a773d74a {
        fill: none;
        stroke-width: 0px;
      }

      .uuid-11d71431-abc7-4c1e-8a58-c847a4675904 {
        fill: #fff;
        stroke: #000;
      }
    </style>
  </defs>
  <path class="uuid-11d71431-abc7-4c1e-8a58-c847a4675904" d="M27.13,50.43s1.59.13,2.89-.96c1.3-1.1,1.92-.65,2.89-2.89.97-2.23,1.96-1.35,1.93-2.89-.04-1.54.04-2.87,0-3.85-.04-.98,0-2.89,0-2.89,0,0-.62-1.78-.29-3.03.33-1.25.38-2.19.29-2.75-.09-.56.12-1.47-.02-2.56-.2-1.53-.83-2.58-.83-2.58l.85.32s2.15,2.98,2.89,2.89c.74-.1,2.89,0,2.89,0,0,0,2.04,2.05,2.36,3.09.32,1.04.32,3.49.32,3.49,0,0-.18,1.61.07,2.45.21.71.42.69.33,2.08-.1,1.4-.23,2.68-.2,3.33.04.65.27,3.58.27,3.58l-1.23,2.19s-3.42-.02-3.85,0c-.82.04-1.68.24-1.68.24,0,0-1.79,1.58-2.51,1.56-.5-.02-2.19.22-2.19.22,0,0-1.79.16-2.76-.02-1.41-.26-2.44.62-2.82.84-.39.22-1.51-.92-1.51-.92l1.92-.96Z"/>
  <rect class="uuid-88b6542a-535f-4b3b-ac2d-4521a773d74a" x="-65.7" y="-38.15" width="200.38" height="180.99"/>
</svg>