<?xml version="1.0" encoding="UTF-8"?>
<svg class="w-32 h-32" id="uuid-5dc80a0a-4e2a-4f96-a92d-e01c46650d13" data-name="レイヤー 1" xmlns="http://www.w3.org/2000/svg" viewBox="0 0 79.73 79.57">
  <defs>
    <style>
      .uuid-f0bda78a-75d2-486a-8f71-9da29da7c1fe {
        fill: none;
        stroke-width: 0px;
      }

      .uuid-bd308643-ce8d-4a5b-9641-99118bd6c4bc {
        fill: #fff;
        stroke: #000;
      }
    </style>
  </defs>
  <path class="uuid-bd308643-ce8d-4a5b-9641-99118bd6c4bc" d="M27.38,21.53s1.49-2.62,1.92-2.89c.43-.27,1.95.64,1.93,0-.03-.64,8.76.27,8.66,0-.1-.27,1.74-.46,1.93,0,.18.46,0,3.22,0,3.85s.28,2.48.96,1.93c.68-.56,2.89-1.93,2.89-1.93,0,0,.92.6.96,1.93.01.5.14,1.12-.96,1.92-1.11.81-2.37,1.35-2.42,1.88-.05.53-1.52.62-.47,1.98,1.05,1.36,1.98,2.41,2.89,2.89.91.48,1.73,1.21,2.87,1.58.96.31,2.1.98,2.9,1.31.8.34,2.42.67,2.89.96.47.29,1.55,1.37,1.93,1.92.37.56,0,1.1,0,1.93,0,.83.96,2.89.96,2.89,0,0-.14,1.98,0,2.89.14.91-.42,3.96-.96,4.81-.54.86-.39,1.53-1.93,1.92-1.54.4-3.6-.12-3.85.96-.25,1.08-2.23,2.22-2.89,1.93-.66-.3-2.38-.53-2.89-.96-.51-.43-1.97-.49-2.89-1.92-.91-1.43-2.89-2.89-2.89-2.89h-3.85s-5.57.47-6.74.96c-1.16.49-2.05,2.17-2.89.96-.84-1.2-1.93-3.85-1.93-3.85,0,0-.91-1.41-1.05-4.3-.06-1.25.39-2.83,2.01-4.37,1.41-1.33,2.71-2.94,2.89-3.85.26-1.36,0-2.4.56-3.42.41-.74,1.11-.83,1.57-1.81.54-1.14,1.15-2.07-.2-3.44-1.22-1.23-2.62-2.57-2.45-3.13.16-.56.53-2.64.53-2.64Z"/>
  <path class="uuid-bd308643-ce8d-4a5b-9641-99118bd6c4bc" d="M35.08,66.77s.96-1.66,1.93-2.89c.96-1.23,1.69-1.98,2.89-2.89,1.19-.91,3.85-2.89,3.85-2.89l1.93-.96s-1.65,2.1-1.93,2.89c-.28.79-1.92,2.89-1.92,2.89v1.92c0,.73.1,1.47.96,1.92.87.45.96,1.93.96,1.93,0,0-1.01.28-1.92.96-.91.68-2.21.51-1.93.96.28.45-1.38,1.66-1.92.96-.55-.69-1.93-2.89-1.93-2.89h-.96v-1.93Z"/>
  <rect class="uuid-f0bda78a-75d2-486a-8f71-9da29da7c1fe" x="-65.7" y="-38.15" width="200.38" height="180.99"/>
</svg>