<?xml version="1.0" encoding="UTF-8"?>
<svg class="w-32 h-32" id="uuid-1245ffbb-07b6-4f1b-a078-4f013e6e6a7a" data-name="レイヤー 1" xmlns="http://www.w3.org/2000/svg" viewBox="0 0 79.73 79.57">
  <defs>
    <style>
      .uuid-53a4b72e-d145-4253-ba27-736be6d73253 {
        fill: none;
        stroke-width: 0px;
      }

      .uuid-78d86bb3-f330-479d-8b1b-38cc31be46ef {
        fill: #fff;
        stroke: #000;
      }
    </style>
  </defs>
  <path class="uuid-78d86bb3-f330-479d-8b1b-38cc31be46ef" d="M34.05,32.84s.07-.48.14-1.18c.09-1.07.14-2.63-.14-3.64-.46-1.67-.15-3.52-.15-3.52l.15-1.29s.71,2.45,2.3,3.26c2.06,1.04,1.93.55,2.97.11,1.13-.47,2.11-.68,2.11-.68,0,0,2.19-.15,2.46.41q.26.55.45.76c.85.94,1.27.95,1.27.95l-.9,3.46s.14.16.98.33c1.64.35,3.95,2.24,3.95,2.24l-.19,1.67s-.4.92-1.93.96c-1.32.03-1.98-.73-1.93.96.06,1.69.64,2.35.65,2.98,0,.64,1.01,2.41,1.01,2.41,0,0,.4.7-.19,1.19-.57.48-1.71.88-1.65,1.78.06.9,1.12,3.52,1.14,4.15.03.84-2.05.14-2.67,1.24-.91,1.61-2.34,2.48-3.1,2.61-.67.11-1.78,2.34-1.78,2.34l-4.96-.42s-1.56-.34-1.93-.96c-.37-.63-.65-1.77-.96-3.85-.32-2.08-1.42-4.36-.96-4.81.99-.99,1.13-1.98,1.84-2.16,1.83-.46,2.98-.73,2.98-.73,0,0-2.06-3.07-1.93-3.85.14-.78.39-1.65.39-1.65,0,0,.69-.91.85-1.51.15-.58-.27-3.58-.27-3.58Z"/>
  <rect class="uuid-53a4b72e-d145-4253-ba27-736be6d73253" x="-65.7" y="-38.15" width="200.38" height="180.99"/>
</svg>