<?xml version="1.0" encoding="UTF-8"?>
<svg class="prefecture-image-30 w-32 h-32" id="uuid-e7b388a3-d91c-48f7-87a5-1ff643e7d754" data-name="レイヤー 1" xmlns="http://www.w3.org/2000/svg" viewBox="0 0 79.73 79.57">
  <defs>
    <style>
      .uuid-08ca0687-46d6-4dea-96e3-964c7be26a5a {
        fill: none;
        stroke-width: 0px;
      }

      .uuid-f485646e-4e88-4f3e-af4c-c9ef79ca1aab {
        fill: #fff;
        stroke: #000;
      }
    </style>
  </defs>
  <path class="uuid-f485646e-4e88-4f3e-af4c-c9ef79ca1aab" d="M32.26,44.66s2.33,1.24,2.89,1.92c.56.68-.38,3.35,0,3.85.37.5,2.66,1.34,2.89,1.92.23.59,1.42,2.17,1.93,1.92.51-.24.41.89,1.93.96,1.51.08,3.45.93,3.85.96.4.03.7.06,1.93-.96,1.22-1.02,1.99-.82,2.89-1.92s1.49-.73,1.93-1.93c.43-1.19.78-3.82.78-3.82l-1.03-2.08-2.73-2.02.07-2.25s-5.54-.15-6.52-1.15c-.62-.64-.65-1.46-.65-1.46l-.56-2.93-.75-2.75-.34-1.57s.52-.48,1.19-1.67c.63-1.12,3.8-1.4,3.8-1.4,0,0-.46-.83-.87-1.39-1.65-2.25-1.05-3.42-1.05-3.42l-3.37-.14c-2.66,0-4.21,2.17-4.08,2,0,0-1.5-.2-2.18.07-.67.27-4.81,0-4.81,0l-2.89,1.93s.57,2.02.96,1.93c.39-.1.25.37.96.96.71.59,2.41,1.98,1.93,1.92-.48-.06-1.93.96-1.93.96,0,0-.71,1.4,0,1.92.71.53.96,1.93.96,1.93,0,0-1.22.76-1.93.96-.7.2-1.04-.29-.96.96.08,1.25,1.94,2.51,1.92,2.89-.02.38,2.04,1.28,1.93,1.92-.12.65,1.93.96,1.93.96Z"/>
  <rect class="uuid-08ca0687-46d6-4dea-96e3-964c7be26a5a" x="-65.7" y="-38.15" width="200.38" height="180.99"/>
</svg>