<?xml version="1.0" encoding="UTF-8"?>
<svg class="prefecture-image-31 w-32 h-32" id="uuid-de6c18cc-3a3b-44e1-9593-41440b0e1c56" data-name="レイヤー 1" xmlns="http://www.w3.org/2000/svg" viewBox="0 0 79.73 79.57">
  <defs>
    <style>
      .uuid-01fb335a-48de-41bb-badf-493266028901 {
        fill: none;
        stroke-width: 0px;
      }

      .uuid-87753c44-154f-47d7-b658-6f69e6c7c466 {
        fill: #fff;
        stroke: #000;
      }
    </style>
  </defs>
  <path class="uuid-87753c44-154f-47d7-b658-6f69e6c7c466" d="M23.99,35.47s5.15.97,5.78,0c.63-.97.96-.96.96-.96h5.78s.26.84,1.92.96c1.67.12,4.3.61,4.81,0,.51-.61-.6-1.78.96-1.93,1.56-.14,2.67,1.16,3.85.96,1.18-.19,2.67-.27,3.85-.96,1.18-.69,3.22-2.89,3.85-2.89s3.22-1.15,3.22-1.15c-.94,2.09-.95,1.99-1.3,3.08-.2.64-1.08,1.85,0,2.89,1.08,1.04,2.89,2.89,2.89,2.89,0,0-.66,2.49-.96,2.89-.3.39-1.54,1.26-1.92,1.93-.39.66-2.2.99-3.85,1.92-1.66.93-3.66.71-3.85,0-.19-.71-.55-2.32-1.93-2.89-1.38-.57-3.3-2.19-2.89-1.92,0,0-1.52.75-1.93.96-.4.21-1.43,1.62-1.92,1.93-.49.3-2.91.43-2.89,0,.02-.43-.39-2.32-1.92-1.93-1.53.39-2.05-.12-2.89.96-.84,1.08-1.45.58-2.89,1.92-1.43,1.35-2.89,1.93-2.89,1.93,0,0-.54.86-1.11,1.53-.44.52-1.9,1.48-1.9,1.48,0,0-.1.54-.85.85-1.02.42-5.24-.14-4.81,0,.42.15-.06-.7,0-1.93.06-1.22.32-1.26,1.93-2.89,1.61-1.63,2.89-1.22,2.89-2.89s-.37-1.91,0-2.89c.37-.98,0-3.85,0-3.85Z"/>
  <rect class="uuid-01fb335a-48de-41bb-badf-493266028901" x="-65.7" y="-38.15" width="200.38" height="180.99"/>
</svg>