<?xml version="1.0" encoding="UTF-8"?>
<svg class="prefecture-image-32 w-32 h-32" id="uuid-abf9fd22-2a75-4f1a-890b-dc822174099f" data-name="レイヤー 1" xmlns="http://www.w3.org/2000/svg" viewBox="0 0 79.73 79.57">
  <defs>
    <style>
      .uuid-fdd8eee3-ff1c-4b91-80a5-02b7562bc8b6 {
        fill: none;
        stroke-width: 0px;
      }

      .uuid-d7741a88-f3a9-45c1-81be-2ed51787091b {
        fill: #fff;
        stroke: #000;
      }
    </style>
  </defs>
  <path class="uuid-d7741a88-f3a9-45c1-81be-2ed51787091b" d="M17.21,50.22s2.91-1.12,3.91-2.5c1-1.39,4.88-6.05,5.78-6.74.9-.69,2.77-2.8,3.85-3.85,1.08-1.05,2.89-1.93,2.89-1.93l1.93-.96s3.39-3.32,3.85-3.85c.46-.53,2.2-1.49,2.89-1.92.68-.43,1.52-.76,1.93-.96.4-.2-.59-3.47,0-3.85.59-.39,1.98-1.64,1.93-1.93-.06-.29,3.85-1.92,3.85-1.92,0,0,1.63-2.01,2.89-1.93,1.26.09,3.33,1.19,3.85,0,.52-1.19,7.7,0,7.7,0l-.96,2.89s.29,2.37.08,3.56c-.4,2.17.62,3.02-.45,4.29-.83.98-2.63,1.9-2.93,2.2-.68.68-1.45,1.93-1.45,1.93,0,0,.27,2.15-.09,2.22-1.33.26-4.74.08-5.75.24-1.56.24-2.64-.69-2.89,0-.25.69-1.04,1.77-1.93,2.89-.58.74-.74.07-1.76.89-1.02.82-.94,1.21-.94,1.21,0,0,2.58,1.28,2.17,2.2-.13.28-3.62,2.16-3.62,2.16,0,0-1.29.86-3.12,1.21-1.83.36-4.7-.83-5.77-.56-.59.15-1.52-.13-2.37.59-.85.72-1.73,1.29-2.03,1.74-.25.37-.48.07-.85,1.15-.66,1.91,0,2.46-.61,3.29-.72.99-1.65,1.6-2.53,2.95-.75,1.16,0,3.2-.71,4.34-.6.97-1.12,2.7-1.93,2.89-1,.24-5.44-.22-5.44-.22,0,0-1.84-.47-1.3-1.21.53-.74.95-1.7.95-1.7,0,0-.51-.25-.95-.71-.44-.46-.92-.86-1.42-1.96-.59-1.3-.79-2.42-.28-3,.51-.58,1.64-3.13,1.64-3.13Z"/>
  <rect class="uuid-fdd8eee3-ff1c-4b91-80a5-02b7562bc8b6" x="-65.7" y="-38.15" width="200.38" height="180.99"/>
</svg>