<?xml version="1.0" encoding="UTF-8"?>
<svg class="w-32 h-32" id="uuid-b75a25f9-2d04-4729-a6f6-7156c845a283" data-name="レイヤー 1" xmlns="http://www.w3.org/2000/svg" viewBox="0 0 79.73 79.57">
  <defs>
    <style>
      .uuid-006fbb34-b5b5-4b90-89cb-b6fe7dbb0964 {
        fill: none;
        stroke-width: 0px;
      }

      .uuid-18e8e959-38fd-4046-b3fc-40bb337ab7da {
        fill: #fff;
        stroke: #000;
      }
    </style>
  </defs>
  <path class="uuid-18e8e959-38fd-4046-b3fc-40bb337ab7da" d="M29.43,54.24l-2.17-4.46s-.36-.7-1.47-2.78c-1.32-2.49-.76-3.4-.85-4.28-.1-.88-1.07-2.46-1.07-2.46,0,0-1.05-2.3-.96-2.89.22-1.51,0-3.85,0-3.85l3.85-3.85s1.02-.35,1.93-.96c1.51-1.01,4.11-3.05,4.48-3.27.63-.39,2.02-.54,2.26-.58,1.4-.24,2.06,2.08,2.06,2.08h2.48s1.99-1.92,1.99-1.92l2.13-1.12,1.86,1.38s1.59.77,1.99,1.25c.4.48.79,1.61.96,2.17.17.57.84.75,1.69.61,1.11-.18,3.28-1.09,4.09-1.57.81-.48,2.15-1.27,2.15-1.27-.02,1.21-.23,3.2-.23,3.2,0,0-1.39,2.46-1.93,2.89-1.85,1.49-2.89,3.85-2.89,3.85,0,0-.4.65,0,2.56.4,1.92.6,2.59.95,3.21.36.63-.16-.13.52,1.19.67,1.32,1.41,2.66,1.41,2.66,0,0-2.01-.99-2.89,0-.88.99-1.96,2.04-2.89,2.89-.92.85-1.56.99-2.89,1.93-1.33.93-3.17,2.47-2.89,2.89.28.42-.57,1.96-2.89,1.93-2.32-.04-4.81,0-4.81,0l-.96-1.93-.96,1.93-2.13-.47-1.93-.96Z"/>
  <rect class="uuid-006fbb34-b5b5-4b90-89cb-b6fe7dbb0964" x="-65.7" y="-38.15" width="200.38" height="180.99"/>
</svg>