<?xml version="1.0" encoding="UTF-8"?>
<svg class="prefecture-image-34 w-32 h-32" id="uuid-92fa200c-89a8-4fd7-8199-3ef87fbba78f" data-name="レイヤー 1" xmlns="http://www.w3.org/2000/svg" viewBox="0 0 79.73 79.57">
  <defs>
    <style>
      .uuid-12dbe7c9-1e4b-468d-8975-304b2d72d0c1 {
        fill: none;
        stroke-width: 0px;
      }

      .uuid-43c69d11-e849-4442-a933-96ecb75c9e68 {
        fill: #fff;
        stroke: #000;
      }
    </style>
  </defs>
  <path class="uuid-43c69d11-e849-4442-a933-96ecb75c9e68" d="M22.35,54.57s2.58-2.1,2.97-2.61c.39-.51,2.89-2.89,2.89-2.89h1.93l1.93,1.92s-.6,3.77,0,3.85c.6.09,2.07,1.11,2.89.96.82-.15,4.14-1.88,3.85-1.93-.06,0-.09,0-.09,0,0-.02.43-.07,1.05-.95.76-1.11,3.19-2.38,2.89-1.93-.3.45-.53-.45.96,0,1.49.45,3.28.28,3.85,0,.57-.28,1.45-1.56,1.92-1.92.47-.37.96-.96.96-.96,0,0,2.43-.88,2.89-.96.46-.09,1.19.18,1.92.96.73.78,1.11,1.33,1.93.96.82-.37,2.21-1.66,2.89-1.92.67-.27,1.93-2.29,1.93-2.29l-1.64-3.05s-.93-1.36-1.24-2.37c-.19-.61-.88-1.19-.96-1.92-.2-1.8-.71-.96-.96-2.89-.05-.38.31-1.03,0-1.93-.73-2.15-1.29-2.31-1.61-3.2-.4-1.08-.43-1.81-.31-2.58.12-.75,0-2.89,0-2.89l-4.41.02-1.16-.24-6.34.24s-.95-.72-1.56-.02c-.62.69-1.22,2.52-1.93,2.89-.7.37-3.24,1.47-2.89,1.93.36.45,3.49,2.03,1.92,2.89-1.57.86-2.84,1.52-3.85,1.92-1.01.41-2.85,1.34-3.85.96-1-.38-2.76-.66-2.76-.66l-3.43.18s-.78.7-1.4,1.19c-.63.49-1.31.97-2.03,2.17-.53.89-.3,3.65-.96,3.85-.66.2-1.36,1.45-1.93,1.93-.57.47-.53,2.28-.62,3.17-.11,1.05-.19.8-.1,1.76.13,1.38,2.76,1.95,2.65,2.77-.12.82-.4,1.84,0,2.89.56,1.49,1.83.69,1.84.69Z"/>
  <rect class="uuid-12dbe7c9-1e4b-468d-8975-304b2d72d0c1" x="-65.7" y="-38.15" width="200.38" height="180.99"/>
</svg>