<?xml version="1.0" encoding="UTF-8"?>
<svg class="w-32 h-32" id="uuid-6a6160a6-32fb-4dd2-90db-7713433ccfee" data-name="レイヤー 1" xmlns="http://www.w3.org/2000/svg" viewBox="0 0 79.73 79.57">
  <defs>
    <style>
      .uuid-64c7717d-54e4-4457-863a-1d40e9bce09e {
        fill: none;
        stroke-width: 0px;
      }

      .uuid-47a650a2-784d-4a46-a37b-c9ad7d62c1cd {
        fill: #fff;
        stroke: #000;
      }
    </style>
  </defs>
  <path class="uuid-47a650a2-784d-4a46-a37b-c9ad7d62c1cd" d="M21.69,41.3s-2.57-3.94-1.93-3.85c.64.09,1.83.55,2.89-.96,1.06-1.51,1.33-3.35,1.92-2.89.6.46,3.85,1.92,3.85,1.92,0,0,.34,2.29,1.92.96,1.59-1.33,1.81-1.24,2.89-1.93,1.08-.68,2.14-2.35,2.89-2.89.75-.54,1.93-1.93,1.93-1.93,0,0,1.91-.2,1.92-.96,0-.76-.29-1.54.96-2.89,1.25-1.35,4.07-.58,3.85-.96-.22-.39,1.05.12.96.96-.09.85-2.12,2.47-1.93,3.85.19,1.39.64,2.19.96,2.89.33.69,2.06.96,1.93,1.92-.13.96-1.42.88-.96,1.93.46,1.05,3.85.96,3.85.96l3.08-.09,1.73-2.8s.43.6.96.96c.53.37,1.86,1.47,1.93,1.92.07.45-.36,2.65,0,2.89.28.19.39,1.06.96.96.57-.1.83-.56,1.03.25.27,1.12.51,1.05-.06,2.64-.58,1.59,1.22,1.81.96,2.89-.26,1.08.99,2.5,0,2.89-.99.39-1.58.44-1.93.96-.35.52-1.58,1.32-.96,1.92.62.61,2.5,1.96,1.93,1.92-.58-.04-3.85-1.92-3.85-1.92l-2.89-.96s.05.07-1.93-1.93c-1.97-1.99-4-2.32-4.81-2.89-.82-.57-1.57-.71-1.93,0-.36.71-1.12.3-1.93.96-.81.66-4.81,0-4.81,0,0,0,.58,1.72,0,1.92-.58.2-2.89-1.92-2.89-1.92v1.92s-.21.63-.96.96c-.75.34-2.74,1.12-3.85,0-1.11-1.13-.73-1.26-1.93-1.93-1.19-.66-1.38-1.91-1.93-1.93-.55-.02-.28.66-.96.96-.68.3-2.07.16-1.92.96.14.8.59,1.59,0,1.93-.59.34-1.79-1.44-1.93-1.93-.13-.48-.14-1.64-.96-2.89-.82-1.25-.83-1.5,0-1.93.83-.42,1.73-2.97,1.93-2.89Z"/>
  <rect class="uuid-64c7717d-54e4-4457-863a-1d40e9bce09e" x="-65.7" y="-38.15" width="200.38" height="180.99"/>
</svg>