<?xml version="1.0" encoding="UTF-8"?>
<svg class="w-32 h-32" id="uuid-4e70fc3e-9066-4d9a-95b4-e153a310c06f" data-name="レイヤー 1" xmlns="http://www.w3.org/2000/svg" viewBox="0 0 79.73 79.57">
  <defs>
    <style>
      .uuid-26a29b38-2d04-426e-a3b4-361394c60837 {
        fill: none;
        stroke-width: 0px;
      }

      .uuid-99a45dc7-37d3-42a8-92c2-bbef44f6aafe {
        fill: #fff;
        stroke: #000;
      }
    </style>
  </defs>
  <path class="uuid-99a45dc7-37d3-42a8-92c2-bbef44f6aafe" d="M47.55,30.15c-.36,1.09-2.76,2.77-1.93,3.85.84,1.08,1.37,1.13,1.93,1.93.56.8.82,2.23.96,2.89.14.65.5,2.93.96,2.89.46-.04.96.96.96.96,0,0-4.01.65-4.81,1.93-.81,1.28-.85,2.66-1.93,2.89-1.08.23-2.32,1.61-2.89,1.93-.57.32-1.45,3.08-1.93,2.89-.47-.19-5.09-.22-5.09-.22.02-.78.02-.76.03-2.55,0-1.37.2-2.28.2-2.28,0,0-2.49-.4-2.83-.73-.57-.54-.81-3.49-.97-3.56-.88-.41-1.91-.29-1.91-.29,0,0-1.52,2.06-1.93,1.93-.4-.14-2.94-1.69-3.4-2.39-.23-.35-1.23-1.06-1.23-1.06l-1.84-.71-1.37-4.47s1.18-1.02,3.03-1.96c1.85-.93,1.73-1.82,2.89-1.92,1.15-.11,3.44-.63,3.85,0,.41.63,2.44.94,2.89.96.45.03,1.93-2.89,1.93-2.89,0,0,1.69.09,1.93,0,.71-.27,4.81-.96,4.81-.96l1.93,1.92.96-2.89.96-.96,3.85,1.93s.36-.12,0,.96Z"/>
  <rect class="uuid-26a29b38-2d04-426e-a3b4-361394c60837" x="-65.7" y="-38.15" width="200.38" height="180.99"/>
</svg>