<?xml version="1.0" encoding="UTF-8"?>
<svg class="prefecture-image-37 w-32 h-32" id="uuid-f52f3a5f-e382-41c8-9bb8-91261d2a3f20" data-name="レイヤー 1" xmlns="http://www.w3.org/2000/svg" viewBox="0 0 79.73 79.57">
  <defs>
    <style>
      .uuid-0b7bfc3d-74fc-40b6-869e-38d0b51227d6 {
        fill: none;
        stroke-width: 0px;
      }

      .uuid-251b80d3-8f06-4d01-b625-9d62529a58f1 {
        fill: #fff;
        stroke: #000;
      }
    </style>
  </defs>
  <path class="uuid-251b80d3-8f06-4d01-b625-9d62529a58f1" d="M27.13,37.86s3.42-.4,3.85-.96,2.88-1.38,3.85-2.89,1.14.05,2.89,0c1.74-.05,3.03.96,3.85,0,.82-.96,1.93-.96,1.93-.96,0,0,3.49,2.48,3.85,2.89.36.4,2.13,1.79,2.89,1.92.76.14,2.89.96,2.89.96l-.96,2.89s-.63-.81-1.84-1.84c-.32-.27-3.59.73-4.66.8-1.7.12-2.02-.08-2.76,1.2-.55.94-1.32,1.76-1.32,1.76l-2.52-.65-1.02-.59-3.81.45s-.8.93-1.75,1.45c-.84.46-2.85,1.48-2.85,1.48l-.58.75-1.93-.96s-1.17-1.87,0-2.89,2.31-2.93,1.93-2.89c-.39.04-1.93-1.93-1.93-1.93Z"/>
  <rect class="uuid-0b7bfc3d-74fc-40b6-869e-38d0b51227d6" x="-65.7" y="-38.15" width="200.38" height="180.99"/>
</svg>