<?xml version="1.0" encoding="UTF-8"?>
<svg class="w-32 h-32" id="uuid-e059c841-d47f-48ab-b1fc-f2923023c31f" data-name="レイヤー 1" xmlns="http://www.w3.org/2000/svg" viewBox="0 0 79.73 79.57">
  <defs>
    <style>
      .uuid-7c36f929-5257-4128-9393-0d6079ae4d99 {
        fill: none;
        stroke-width: 0px;
      }

      .uuid-b7c75ee1-8a85-4b0f-838c-bf7969be674a {
        fill: #fff;
        stroke: #000;
      }
    </style>
  </defs>
  <path class="uuid-b7c75ee1-8a85-4b0f-838c-bf7969be674a" d="M15.65,45.45l4.81-3.85,3.85-.96s2.15-2.33,1.93-1.92c-.22.4,1.15-1.88,1.93-1.92.78-.05,1.89-.23,2.89-.96,1-.73,2.95-.73,2.89-1.93-.06-1.19-.67-6.61,0-6.74.67-.13,2.08.21,1.93-.96s.98-2.59.96-2.89c-.02-.3,1.93-.96,1.93-.96l1.92-3.85s.12.15.96.96c.85.81,3.75,4.25,3.85,4.81.11.57,1.1,2,2.89,1.93,1.79-.08,3.35-2.13,3.85-1.93.5.2,4.01,1.18,4.81.96.81-.21,3.85-2.89,3.85-2.89l1.8.9c.64,2.98.86,2.94,1.35,4.39.31.92-2.62.49-2.62.49,0,0-2.99-.2-5.41.67-2.34.84-5.36,1.19-6.86,1.26-1.23.06-.94.63-1.75,1.92-.99,1.58-2.08,3.91-2.29,4.96-.21,1.05-.61,1.59-1.26,2.45-1.01,1.34-1.72,1.47-2.22,2.22-.45.68-1.15,1.21-2.18,1.01-1.03-.2-1.67-.04-1.67-.04,0,0,.54,2.1.81,2.67.32.65.72,2.22.15,3.11-.58.9-1.84.4-2.23,1.19-.38.79-.49.58-1.17,1.71-.71,1.18-2.79,1.68-3.34,1.91-.56.23-.77,2.72-.45,3.37.42.88,2.23.07,2.36.57.12.5-.94,3.76-.94,3.76,0,0-2.39.51-3.85,0-1.46-.51-2.89-2.89-2.89-2.89,0,0-.33-.46,0-.96.33-.5-.96-2.89-.96-2.89l.96-1.93,1.93-1.93-.96-1.92s-1.57,2.37-1.93.96c-.36-1.41-.96-2.89-.96-2.89v-1.93l.96-1.92h-.96s-1.16-.94-1.93,0c-.76.94-2.44,3.19-2.89,2.89-.44-.3-2.89.96-2.89.96l-.96-.96Z"/>
  <rect class="uuid-7c36f929-5257-4128-9393-0d6079ae4d99" x="-65.7" y="-38.15" width="200.38" height="180.99"/>
</svg>