<?xml version="1.0" encoding="UTF-8"?>
<svg class="w-32 h-32" id="uuid-7e44a196-8c36-4c0e-b870-0e34b56c65e1" data-name="レイヤー 1" xmlns="http://www.w3.org/2000/svg" viewBox="0 0 79.73 79.57">
  <defs>
    <style>
      .uuid-4a729bd9-0ddd-402c-a311-8c65256dda6f {
        fill: none;
        stroke-width: 0px;
      }

      .uuid-a9c2ee2f-aabf-40d6-aea3-a995249ef322 {
        fill: #fff;
        stroke: #000;
      }
    </style>
  </defs>
  <path class="uuid-a9c2ee2f-aabf-40d6-aea3-a995249ef322" d="M16.7,57.91h-2.89l1.93-2.89v-2.89s.4-.92.62-1.65c.12-.41.34-2.2.34-2.2,0,0-2.64.16-2.58-.77.07-1.03.07-3.31.65-3.08.59.23,2.89-.96,2.89-.96,0,0,1.03-2.4,1.93-2.89.9-.49,1.3-.52,1.93-.96.62-.44.12-3.14,0-2.89-.12.25-.96-2.89-.96-2.89h2.89l1.93-1.93,1.93-1.92.96-2.89s1.55-3.12,1.93-3.85c.38-.73,1.1-2.02,1.93-1.93.83.1,5.42-.56,5.78-.96.36-.4,5.78-.96,5.78-.96h2.89s2.37.09,2.89.96c.52.88,3.85,2.89,3.85,2.89l1.93-1.93h1.93s-.22,3.21.96,3.85c1.18.64,3.12.37,2.89.96-.23.6-.19,2.05-.26,3.16-.07,1.08-.58,1.42,1.46,1.45,2.47.04,3.72.19,3.72.19,0,0-1.48,1.95-2.04,2.9-.56.94-1.46,3.1-1.92,3.85-.46.75-1.1,2.28-.96,2.89.13.61-.96.96-.96.96,0,0-.55.35-1.93-1.92-1.38-2.27-.46-2.32-1.93-3.85-1.46-1.53-2.48-1.41-2.89-1.92-.4-.52-.98-2.05-2.89-1.93-1.91.13-3.85-.96-3.85-.96,0,0-2.78,1.2-2.89.96-.11-.24-1.64.16-2.89.96-1.25.81-2.05,1.4-1.93,1.93.13.53-.59.48-.96.96-.38.48-3.85.96-3.85.96,0,0-.64,1.4-.96,1.92-.17.29-.29.02-.28,0,.01,0,.1.17.28.95.41,1.75.04,2.46-.96,3.85-1,1.39-2.4,2.01-2.89,2.89-.49.88-.89-.41-.96.96-.08,1.38.53,2.75-.96,2.89-1.49.14-2.18.97-1.93,1.93.25.95.3,1.43,0,1.92-.3.49-.96.96-.96.96,0,0-.66,1.4,0,1.92.66.53,3.83,2.69,2.89,2.89-.94.2-5.21-.85-4.81-.96,0,0-1.49.21-1.92.96-.43.75-2.89,0-2.89,0l-.96-1.92Z"/>
  <rect class="uuid-4a729bd9-0ddd-402c-a311-8c65256dda6f" x="-65.7" y="-38.15" width="200.38" height="180.99"/>
</svg>