<?xml version="1.0" encoding="UTF-8"?>
<svg class="w-32 h-32" id="uuid-ef275e18-cdbd-46bf-bc1a-f7150ac0d91b" data-name="レイヤー 1" xmlns="http://www.w3.org/2000/svg" viewBox="0 0 79.73 79.57">
  <defs>
    <style>
      .uuid-c3cc42cf-30db-45fe-9252-1fa8f467f25e {
        fill: none;
        stroke-width: 0px;
      }

      .uuid-08281f8f-eaa1-4b0e-ace7-73e592438219 {
        fill: #fff;
        stroke: #000;
      }
    </style>
  </defs>
  <path class="uuid-08281f8f-eaa1-4b0e-ace7-73e592438219" d="M23.57,40.93s-.33-.68,0-1.92c.33-1.24,3.85-2.89,3.85-2.89,0,0,1.79,3.58,2.89,2.89,1.1-.69,1.47-1.97,1.93-2.89.45-.91,0-1.93,0-1.93l1.93-2.89s-.36-.33,0-.96c.36-.63-.35-1.2,1.93-1.92,2.27-.72,3.05.72,3.85,0,.8-.72,1.4-1.3,1.92-1.93.52-.63,3.16-.66,3.85,0,.69.65,2.51,1.82,2.89.96.38-.86.64-.42.96,0,.33.42.68,2.89.96,3.85.28.96,1.01,1.69,1.92,2.89.91,1.19.56,2.94,1.93,2.89,1.37-.05,1.93.96,1.93.96,0,0-.02,1.44-.27,2.14-.19.53.34.88-1.77.78-2.11-.1-2.73-.34-3.36.1-.64.44-1.03,2.04-2.31,2.76-1.28.71-2.14,1.32-2.23,2.12-.09.8.57,1.21.3,1.73s-1.1,1.3-1.01,2.12c.1.83.73,1.35,1.01,1.73.28.37.23,3.75,0,4.81-.08.38-3.04,0-3.85-.96-.81-.95-1.76-1.7-1.93-.96-.16.74-2.97.37-3.85,1.93-.89,1.56-3.24,4.23-2.89,4.81.36.59-.96-2.89-.96-2.89,0,0-1.23-2.3-.96-2.89.27-.59-.96-.96-.96-.96l-.96-.96s.64-1.52.96-1.92c.32-.41,1.16-1.98,1.93-1.93.77.06.52.03,1.93-.96,1.41-.99,1.71-.66,1.93-1.93.21-1.26-.96-2.89-.96-2.89,0,0-1.18-.71-1.93,0-.74.71-1.93,1.93-1.93,1.93l-1.93-1.93-.96-.96s-2.06-1.41-1.93-.96c.13.44-.96.96-.96.96l-1.92.96s-1.29-.44-.96-.96c.33-.52,0-1.93,0-1.93Z"/>
  <rect class="uuid-c3cc42cf-30db-45fe-9252-1fa8f467f25e" x="-65.7" y="-38.15" width="200.38" height="180.99"/>
</svg>