<?xml version="1.0" encoding="UTF-8"?>
<svg class="w-32 h-32" id="uuid-3c8e251c-6817-451d-af2b-b32dc3e90baf" data-name="レイヤー 1" xmlns="http://www.w3.org/2000/svg" viewBox="0 0 79.73 79.57">
  <defs>
    <style>
      .uuid-89f7e86d-ef9f-4123-8b45-48feb8ab7a56 {
        fill: none;
        stroke-width: 0px;
      }

      .uuid-fe2fb938-0d47-4626-86dc-6f2b4866e7ce {
        fill: #fff;
        stroke: #000;
      }
    </style>
  </defs>
  <path class="uuid-fe2fb938-0d47-4626-86dc-6f2b4866e7ce" d="M23.12,39.83c.62-.03,1.76.48,1.93-.96.16-1.44-1.36-2.69-.96-2.89.39-.2-1.31-.54,0-1.93,1.31-1.39,2.82-3.29,2.89-2.89.07.4,2.32.42,1.93.96-.39.54.67,2.31.96,2.89.29.58.17,1.71.96.96.79-.75,1.78-.76,1.78-.76,0,0,.46.55,1.11.76.64.21,2.38-1.23,2.38-1.23l.71-.75s2.37,1.08,2.68,1.97c.32.89,1.42,1.79,1.93,1.93.47.12,2.23-2.13,2.23-2.13,0,0,1.62.21,2.17,1.14.52.89.39,1.02.42,1.96.03.93-1.38,1.22-2.34,2.14-.99.95-2.11.72-2.8,1.75-.67,1-1.13,1.81-1.13,1.81,0,0-.12.89-.72,1.12-.6.23-.48-.08-1.17-.22-.68-.13-1.48-.81-1.48-.81,0,0,.13,0-.96.96-1.1.97-2.02-.33-1.92.96.1,1.29-.64,1.46,0,1.93.64.46,1.56.64,1.92,1.93.37,1.28,0,1.92,0,1.92,0,0-1.15-1.18-2.65-1.04-1.5.13-1,.35-2.17-.88-1.28-1.36-1.59-2.18-1.93-2.89-.35-.75-1.19-2.07-1.19-2.07,0,0-1.49-.27-2.18-.57-1.4-.62-2.69-2.77-2.69-2.77,0,0-.35-2.26.28-2.29Z"/>
  <rect class="uuid-89f7e86d-ef9f-4123-8b45-48feb8ab7a56" x="-65.7" y="-38.15" width="200.38" height="180.99"/>
</svg>