<?xml version="1.0" encoding="UTF-8"?>
<svg class="w-32 h-32" id="uuid-f843a608-d872-4399-bf84-ef0e5f24a43a" data-name="レイヤー 1" xmlns="http://www.w3.org/2000/svg" viewBox="0 0 79.73 79.57">
  <defs>
    <style>
      .uuid-47924bfa-230a-4d2a-8da5-1850d30e6563 {
        fill: none;
        stroke-width: 0px;
      }

      .uuid-159ef062-0207-48f4-8ccd-9c238457656c {
        fill: #fff;
        stroke: #000;
      }
    </style>
  </defs>
  <path class="uuid-159ef062-0207-48f4-8ccd-9c238457656c" d="M40,45.33c.6-.29,3.53.2,4.81.96,1.28.76,1.29,1.63,1.93,1.93.64.3.83,2,0,2.89-.83.89-4.81,2.89-4.81,2.89,0,0-3.53.26-2.89-.96.64-1.22,2.11-.8,1.92-1.92-.18-1.13-.96-2.89-.96-2.89,0,0-.51-1.31-.96-.96-.45.35-.11,1.49-1.93,1.93-1.82.43-2.68.39-2.89.96-.21.57-2.45,3.84-2.89,3.85-.43,0-2.78,3.84-2.89,1.92-.11-1.91.93-2.67.96-3.85.03-1.18.89-2.5,0-3.85-.89-1.35-2.15-2.05-2.89-2.89-.74-.84-3.39-2.74-2.89-2.89.5-.14,1.92-2.89,1.92-2.89v-1.93s1.43,1.56,1.93,1.93c.49.36-.21.19.96,1.92,1.17,1.73,2.31,2.4,1.93,2.89-.39.49.85.34.96.96.12.63,1.36,1.48,1.93.96.57-.52,2.73-.04,1.93-1.92-.81-1.89-2.31-2.24-1.93-2.89.39-.64-.96-1.92-.96-1.92,0,0-.44-1.84-1.93-1.93-1.48-.09-1.93-.96-1.93-.96,0,0-1.18-.79-1.93-.96-.74-.17-1.93-.96-1.93-.96,0,0-.36.5-.96,0-.61-.5-2.15-1.52-1.93-1.92.22-.41.97-2.45.96-2.89,0-.44.96-2.89.96-2.89l1.92.96,2.89.96s-.81,1.78,0,2.89c.81,1.11,1.93,1.93,1.93,1.93l1.9.66s.6-.12.99.31c.39.42.76,1.6,1.23,2.8.47,1.19,2.62,2.98,2.62,2.98,0,0,1.46-.13,1.93,0,.46.14,1.92.96,1.92.96,0,0-.37.38,0,.96.37.59-1.56,3.18-.96,2.89Z"/>
  <rect class="uuid-47924bfa-230a-4d2a-8da5-1850d30e6563" x="-65.7" y="-38.15" width="200.38" height="180.99"/>
</svg>