<?xml version="1.0" encoding="UTF-8"?>
<svg class="prefecture-image-43 w-32 h-32" id="uuid-9c4527eb-203e-4326-bc52-78a0059044bb" data-name="レイヤー 1" xmlns="http://www.w3.org/2000/svg" viewBox="0 0 79.73 79.57">
  <defs>
    <style>
      .uuid-a0cb37c9-c7e1-4914-9b95-c8856dab3156 {
        fill: none;
        stroke-width: 0px;
      }

      .uuid-d29b6bfe-5f93-4a9b-8315-1e590027e1f0 {
        fill: #fff;
        stroke: #000;
      }
    </style>
  </defs>
  <path class="uuid-d29b6bfe-5f93-4a9b-8315-1e590027e1f0" d="M36.52,50.22s.19,1.85-.96,2.89c-1.16,1.04-2.61.8-2.89,1.93-.28,1.12-.96,2.89-.96,2.89,2.27.28,2.14.36,3.85,0,1.41-.3,1.99-.53,2.89-.96.9-.43,1.4.63,1.93.96.29.18-.48.28,1.92.96,1.57.44,3.43,1.91,4.81.96,1.39-.94,1.05-2.11,2.89-2.2,1.81-.09,2.66-.41,3.21-.84.55-.43,1.61-2.65,1.61-2.65,0,0-.41-1.99-.46-2.69-.05-.69-.35-1.44-.81-3.28-.3-1.19-1.04-2.13-1.56-2.89-.37-.54-1.03-1.82-1.03-1.82l2.4-2.31s.94-.95,2.07-2.13c1.14-1.17,1.13-1.7,1.59-2.51.5-.88,1.64-2.68,1.64-2.68l.96-1.92-.96-1.93s-1.09-1.46-.96-1.93c.13-.46.06-1.66,0-2.89-.06-1.23-.4-.97-.96-1.93-.56-.95-1.05-2.86-1.93-2.89-1.08-.03-2.75.45-2.89,0-.13-.45-.96-.96-.96-.96l.96,4.81s1.78-.1.92.84c-.89.98-1.57,1.1-2.23,1.58-.52.38-1.01.92-1.33.65-1.69-1.42-1.73-2.98-2.18-3.07-.45-.09-1.41.07-2.54-.21-.67-.17-.69-.16-1.32-.75-.63-.59-.79-1.59-1.51-1.25-.85.4-1.45.8-2.25.99-.6.14-1.82.65-2.16,1.47-.34.83-.33.09-1.47,2.12-1.25,2.21-1.35,2.22-1.27,2.45.42,1.22.93,1.71,1.93,2.89.99,1.18,1.03,1.4,1.93,1.92.9.53,1.4.94.96,1.93-.43.98-.21,2.23-.96,2.89-.75.65-4.81,2.89-4.81,2.89,0,0,3.74.95,4.81,0,1.08-.95,3.05-2.53,2.89-1.93-.16.61-.3,1.22-.96,1.93-.66.7-1.91,1.14-1.93,1.93-.02.79-.63,2.06-.96,2.89-.34.83-.96,3.85-.96,3.85Z"/>
  <path class="uuid-d29b6bfe-5f93-4a9b-8315-1e590027e1f0" d="M28.82,47.33s0-1.16.96-1.93c.96-.77,1.93-.96,1.93-.96h2.89v1.93s-1.46,1.56-1.93,1.92c-.46.37-2.89.96-2.89.96l-.96-1.92Z"/>
  <path class="uuid-d29b6bfe-5f93-4a9b-8315-1e590027e1f0" d="M21.12,48.29s-.37-1.75.96-2.89c1.34-1.14,2.89-1.93,2.89-1.93,0,0,.55.31.96,0,.41-.31.6.22.96.96.37.74,1.19,1.93.96,2.89-.23.96-.96,2.89-.96,2.89,0,0-.46,1.94-.96,1.93-.5,0-1.16.93-1.93,1.92-.77.99-2.89,1.93-2.89,1.93,0,0-1.3-1.45-.96-1.93.34-.47.96-2.89.96-2.89v-2.89Z"/>
  <rect class="uuid-a0cb37c9-c7e1-4914-9b95-c8856dab3156" x="-65.7" y="-38.15" width="200.38" height="180.99"/>
</svg>