<?xml version="1.0" encoding="UTF-8"?>
<svg class="w-32 h-32" id="uuid-a7b15b15-205a-443a-8297-781d4d196cee" data-name="レイヤー 1" xmlns="http://www.w3.org/2000/svg" viewBox="0 0 79.73 79.57">
  <defs>
    <style>
      .uuid-06e0593a-5269-4124-a2e9-a2c314eb78be {
        fill: #fff;
        stroke: #000;
      }
    </style>
  </defs>
  <path class="uuid-06e0593a-5269-4124-a2e9-a2c314eb78be" d="M38.44,27.7s3.79-1.14,3.85-1.92c.06-.78,1.22-3.17,1.92-2.89.7.28,2.7,1.38,2.89,1.93.19.55.82,2.12.96,2.89.14.77-.33,2.26,0,2.89.33.63,1.5,2.22,0,2.89-1.5.66-2.89.96-2.89.96,0,0-.19.94-.96.96-.77.02-2.71,2.46-1.92,2.89.79.42,2.89.96,2.89.96l2.89-.96s.5.59.96.96c.46.38,1.56.54,1.93,0,.37-.54.1-2.58.96-1.92.87.65,1.89,1.55,1.92,1.92.04.38-1.88,1.73-1.92,2.89-.05,1.16-.22,1.42.96,1.92,1.18.51,1.57-.78,1.93.96.36,1.74-.72,1.66,0,2.89.72,1.23,1.3,2.53,1.93,2.89.63.36.75.47.96.96s-1.32,2.54-1.93,2.89c-.61.35-.94.53-1.63.83-.69.3-1.81.1-2.22-.47-.42-.57-.74-1.42-1.2-1.23-.56.24-2.65,1.83-2.65,1.83,0,0-3.29.47-4.81.96-1.04.34-.99-.07-1.64-.94-.26-.35-1.22-2.35-1.25-1.95-.03.4-1.93,1.93-1.93,1.93,0,0-1.54-.39-1.93-.96-.39-.57-.22.06-.96-1.92-.84-2.25-1.56-1.6-1.93-3.85-.37-2.28.56-2.89-.96-4.81-.84-1.06-1.1-2.73-1.55-2.84-.64-.15-3.27-.05-3.27-.05,0,0-1.06-1.67-.96-.29.1,1.39.96,4.14.96,4.14,0,0,1.58.19,1.08.56-.5.37-3.33,3.07-3.97,2.33-.61-.73-1.93-2.89-1.93-2.89v-4.81s-1.29-1.07-.96-1.93c.33-.86,1.06-2.51,1.06-2.51,0,0-1.21-1.17.51-2.41,2.2-1.6.76-.29,2.36-1.8.98-.93,1.49-2.19,2.09-2.06.6.12,3.62.12,3.62.12l.64-.3.32-2.58h3.85l1.93.96Z"/>
</svg>