<?xml version="1.0" encoding="UTF-8"?>
<svg class="prefecture-image-45 w-32 h-32" id="uuid-b70719af-1a6d-4d73-80be-36db2eb20d02" data-name="レイヤー 1" xmlns="http://www.w3.org/2000/svg" viewBox="0 0 79.73 79.57">
  <defs>
    <style>
      .uuid-ebc9ef6a-40eb-4303-b066-ccf769a295e2 {
        fill: #fff;
        stroke: #000;
      }
    </style>
  </defs>
  <path class="uuid-ebc9ef6a-40eb-4303-b066-ccf769a295e2" d="M41.28,53.2s1.13,4.19,0,4.81-2.18,1.4-1.93,1.92c.25.53.3,1.58,0,2.89-.3,1.31.38,2.27-.96,2.89-1.35.62-4.63-1.21-4.63-1.21,0,0-.15-.48-.19-2.65-.02-1.03,0-4.81,0-4.81l-4.64-2.15s.21-.23-.24-1.05c-.45-.83-2.26-1.82-2.26-1.82l-2.49.21.96-2.89-3.45-3.99-.89-2.66-1.43-2.01,1.93.96,2.47.2s1.6-1.46,2.34-2.12c.74-.66,2.94.2,3.85-.96.91-1.17,2.39-2.51,1.93-3.85-.46-1.34-1.56-6.84-1.93-6.74-.37.09-1.92-2.89-1.92-2.89,0,0,1.38-1.53,1.92-1.93.55-.39,2.85-2.44,2.89-2.89.04-.44,1.71-2.51,1.92-2.89.53-.96.96-1.93.96-1.93l.96-1.92s1.46,2.63,1.94,2.57c.48-.07.82.6,1.35.16.44-.37,1.52-1.77,1.52-1.77l1.9,2.97s4.92-1.16,5.8-1.04c.88.12,2.7-2.14,2.89-1.93.18.21,1.3,1.93,1.93,1.93.96,0,2.08-.62,1.76-.23-.59.71-2.13,3.97-2.73,4.08-.6.11-1.61,1.36-1.93,1.93-.32.57-1.52,3.01-1.93,2.89-.4-.12.59,1.6,0,1.93-.59.33-2.81,3.45-2.89,4.81-.08,1.37-.75,1.76-.96,3.85-.21,2.09-2.17,4.33-1.92,5.78.24,1.44-.7,1.59-.96,2.89-.26,1.3-.96,8.67-.96,8.67Z"/>
</svg>