<?xml version="1.0" encoding="UTF-8"?>
<svg class="w-32 h-32" id="uuid-7538a37e-2e56-44c6-9c1d-29dd4493f4ff" data-name="レイヤー 1" xmlns="http://www.w3.org/2000/svg" viewBox="0 0 79.73 79.57">
  <defs>
    <style>
      .uuid-5381f5ab-d28d-45bd-9f96-3a9a4c61b3d6 {
        fill: #fff;
        stroke: #000;
      }
    </style>
  </defs>
  <path class="uuid-5381f5ab-d28d-45bd-9f96-3a9a4c61b3d6" d="M26.32,56.49c-.29-.22-.6-3.25-.96-3.85-.21-.36-1.93-1.93-1.93-1.93,0,0-.41-1.31.96-.96l3.85.96s-.64-1.68,0-2.89c.64-1.21,1.74-.81,1.93-1.92s0-2.46,0-2.89-2.02-2.42-1.93-2.89c.1-.46-1.19-1.56-1.93-1.93-.73-.37-1.92-1.92-1.92-1.92,0,0,1.74-1.2,1.92-1.92.18-.72.37-2.49,0-2.89-.37-.39-.96-.96-.96-.96v-1.92l-.96-1.93s1.01.35,1.92,0c.92-.34,2.29-1.03,2.89-.96.6.07,1.93,0,1.93,0l2.41.23,3-.64s1.86-1.07,2.3-.56c1.03,1.2,2.89,1.92,2.89,1.92,0,0,.4.45,1.28,1.76.5.75.04.79.64,2.09.61,1.3,1.05,2.1,1.93,2.89.88.79,1.93,1.93,1.93,1.93l-.96,2.89s2.56-.55,2.89,0c.33.55,1.71,1.31,1.92,1.93.4,1.16.72.95,1.44,1.33,1.33.69,1.5.69,1.5.69l1.87.87v3.85s-.12,2.77.19,3.61c.15.4-2.48-.7-3.07-.72-.6-.02-1.97.48-1.93.96.05.48,0,1.93,0,1.93,0,0,1.78.59,1.93.96.24.6,0,3.85,0,3.85,0,0-.05.04-.96,0-.92-.04-.74-.23-1.92.96-1.18,1.19-1.66,2.02-2.89,2.89-1.23.87-1.93,0-1.93,0l-1.93.96-1.93,1.93s-1.4.28-1.92,0c-.41-.22,2.14-4.22,1.92-3.85-.02.03-.03.05-.03.05,0,0,.9-1.56.99-1.97.11-.45.96-2.89.96-2.89v-3.85s-.7-.81-.96-1.92c-.26-1.12,0-2.89,0-2.89h-3.85v-2.89h2.89s.31.75.96.96c.66.21.96-.96.96-.96l.96-1.93s-1.48.28-1.93-.96c-.44-1.24-1.93-1.93-1.93-1.93l-1.93.96s-1.13,4.24-.96,4.81c.16.58-.96,1.93-.96,1.93,0,0-1.41-.4-.96.96.44,1.36.75,2.41.96,2.89.21.48-1.13.81,0,1.93,1.13,1.12.25,2.83.96,2.89.71.06,2.04.59,1.93.96-.12.38.66,1.28,0,1.93-.66.64-3.38,1.28-3.85.96-.47-.32-.96-1.93-.96-1.93,0,0-.22-2.35-.96-1.92-.74.42-4.81.96-4.81.96,0,0-2.57.24-2.89,0Z"/>
</svg>