<?xml version="1.0" encoding="UTF-8"?>
<svg class="w-32 h-32" id="uuid-1c55bd01-a3a5-407d-bf3d-59dd885de3a4" data-name="レイヤー 1" xmlns="http://www.w3.org/2000/svg" viewBox="0 0 79.73 79.57">
  <defs>
    <style>
      .uuid-8d9a7de2-c236-4fd7-aec1-be183d15caf6 {
        fill: #fff;
        stroke: #000;
      }
    </style>
  </defs>
  <path class="uuid-8d9a7de2-c236-4fd7-aec1-be183d15caf6" d="M32.61,41.23l3.85-.96.96-1.93,1.93-1.92-3.85-2.89h2.89s2.36,2.37,2.89,1.92c.53-.44,2.89-1.92,2.89-1.92l1.92-3.85,1.93-2.89s1.59.9,1.93,1.92c.34,1.03-.75,3.28-.96,3.85-.21.57-.03,2.58-.96,2.89-.94.31-2.39,2.22-2.89,1.93-.5-.3-2.27.34-2.89.96l-2.89,2.89s-.47.62-1.93.96c-1.45.34-.85.08-.96.96-.12.89.96,1.93.96,1.93,0,0-3.2.33-2.89.96.31.63-.96,3.85-.96,3.85l1.92.96-1.92,1.92h-1.93l-1.92-1.92,1.92-2.89.96-1.92-.96-2.89.96-1.92Z"/>
</svg>