<?xml version="1.0" encoding="UTF-8"?>
<svg id="japan" data-name="hapan" xmlns="http://www.w3.org/2000/svg" viewBox="0 0 800 600">
  <defs>
    <style>
      .cls-1 {
        fill: none;
        stroke: #000;
      }
      .cls-2 {
        fill: white;
      }
    </style>
  </defs>
  <path id="hokkaido" class="" d="M431.66,174.84s2.46-4.12,2.89-5.78c.43-1.66,1.38-3.74,0-4.81-1.38-1.08-1.78-.76-3.85-2.89-2.07-2.13-2.19-1.53-2.89-2.89-.7-1.36-1.74-1.89-2.89-1.93-1.15-.04-.96-3.85-.96-3.85,0,0,1.61-1.11,1.92-2.89.32-1.78,0-11.55,0-11.55,0,0,1.52-.79,2.89-.96,1.37-.17,3.85,0,3.85,0l1.92-2.89s2.01-2.94,2.89-1.93c.88,1.01,1.93.96,1.93.96l2.89-5.78s2.74-1.19,2.89-1.93c.15-.73,0-2.89,0-2.89,0,0-2.89-2.59-2.89-3.85s-1.93-5.78-1.93-5.78c0,0,1.32-2.31,1.93-1.93.61.39,3.85,0,3.85,0l3.85,3.85s1.06,1.97,2.89,2.89c1.83.91,6.74-.96,6.74-.96,0,0,2.92-.25,3.85.96.93,1.21,4.46,1.2,4.81,0,.36-1.2,4.12-6.22,4.81-6.74.69-.52.96-5.78.96-5.78,0,0-2.07-3.68-1.92-4.81.14-1.14-1.92-5.78-1.92-5.78,0,0,2.19-3.25,2.89-3.85.69-.6,5.78-2.89,5.78-2.89,0,0,2.27-5.05,1.93-5.78-.35-.72-1.89-10.88-.96-11.55.92-.67,2.43-3.09,2.89-3.85.45-.76.96-7.7.96-7.7v-8.66s-3.37-8.42-4.81-11.55c-1.44-3.13-1.8-4.19-1.92-5.78-.12-1.59,2.89-5.78,2.89-5.78l.96-4.81,1.93.96h3.85l1.92-3.85s2.01,3.8,2.89,4.81c.88,1.01,4.31,3.47,5.78,4.81,1.46,1.35,6.78,10.76,8.66,13.48,1.89,2.72,3.8,6.33,4.81,7.7,1.01,1.37,8.96,10.83,10.59,11.55,1.63.72,7.7,6.74,7.7,6.74,0,0,7.25,2.51,7.7,3.85.45,1.34,3.92,2.01,3.85,2.89-.07.88.96,2.89.96,2.89l4.81.96s1.21.86,1.93,0c.71-.86,2.89-1.92,2.89-1.92l2.89,1.92-.96,2.89s2.61,3.05,2.89,1.93c.28-1.13,1.92-4.81,1.92-4.81,0,0,2.58,4.13,2.89,4.81.31.68,5.59,3.27,6.74,2.89,1.14-.38,5.78-.96,5.78-.96l6.74-6.74s4.95-2.2,4.81-2.89c-.14-.69,5.78-5.78,5.78-5.78,0,0,1.47.89.96,1.93-.51,1.03-3.85,7.7-3.85,7.7l-1.92,5.78-3.85,5.78.96,2.89,2.89,3.85,1.92,1.92,2.89,1.93-3.85.96.96,3.85.96,2.89,1.93,2.89,1.92.96,5.78-4.81h4.81l.96,1.92-5.78,1.93-1.93,4.81s-4.22.71-6.74.96c-2.52.25-4.81.96-4.81.96l-1.93,2.89s-4.86,2.41-5.78,2.89c-.91.48-2.89-1.92-2.89-1.92,0,0-2.8-.38-1.93,1.92.88,2.3,1.24,1.55,0,1.93-1.24.38-7.4,1.44-9.63,0-2.22-1.44-2.89-2.89-2.89-2.89,0,0-5.67,1.19-6.74,1.92-1.07.73-6.87,5.48-8.67,6.74-1.8,1.26-13.04,14.4-13.48,15.4-.43,1-.96,7.7-.96,7.7v6.74l-2.89,1.93v2.89s-8.72-7.95-8.69-8.57c.02-.61-9.51-2.44-12.73-5.14-3.2-2.71-6.85-4.43-8.42-5.54-1.57-1.12-6.74-2.89-6.74-2.89l-3.85-3.85s-6.86-1.9-7.7-1.92c-.84-.03-5.06,2.17-6.74,2.89-1.68.72-6.04,2.45-6.74,3.85-.69,1.41-3.85,3.85-3.85,3.85l-.96,1.93s-1.12-2.13-2.89-3.85c-1.77-1.72-2.18-2.95-2.89-3.85-.7-.9-1.92-2.89-1.92-2.89,0,0-4.19-.77-4.81,0-.63.77-2.89-.96-2.89-.96l-4.81,5.78s-1.73,4.08-.96,5.78c.77,1.69,1.97,2.38,2.89,3.85.91,1.47,3.16,2.48,3.85,2.89.69.4,3.07,1.22,3.85.96.78-.26,4.81,1.92,4.81,1.92,0,0,1.94,2.31,2.89,3.85.95,1.54,2.89,2.89,2.89,2.89l3.85,1.93s1.85,4.42,0,4.81c-1.85.39-4.55,2.85-5.78,1.93-1.22-.92-5.78-3.85-5.78-3.85l-1.92-1.93-2.89,2.89s-4.16,3.93-4.81,3.85c-.65-.08,1.37,3.95.96,4.81-.41.87-6.74,3.85-6.74,3.85l-1.92,1.93-3.85-1.93s-2.03-2.9-1.92-3.85c.1-.95-.7-4.44,0-4.81.7-.37,1.92-3.85,1.92-3.85Z"/>
  <path id="aomori" class="" d="M427.81,219.13s3.25-5.77,3.85-4.81c.6.95,5.78-.96,5.78-.96l.96-3.85s1.81-2.16,1.93-2.89c.12-.73.96-3.85.96-3.85l-1.93-3.85s1.57-2.15,1.93-2.89c.36-.74,2.89,1.92,2.89,1.92l3.85-1.92.96,3.85s.79,3.62.96,4.81c.17,1.19,0,6.74,0,6.74h4.81l1.93-5.78,3.85.96,3.85,2.89s2.06.38,1.92-1.93c-.13-2.3.96-4.81.96-4.81l1.92-4.81-1.92-2.89s-5,1.51-5.78,1.93c-.78.41-5.32.3-5.78.96-.45.66-1.93-2.89-1.93-2.89l.96-3.85,2.89-5.78h2.89l2.89.96,2.89,4.81h1.93l4.81-2.89-.96,9.63s-1.16,9.72-.96,11.55c.19,1.83,1.23,6.6,1.93,7.7.69,1.1,1.65,1.95,1.92,2.89.28.93,3.85,4.81,3.85,4.81l1.93,1.93-1.93,1.92-4.81.96-3.61.72-5.72,3.54s-2.58.06-3.18.55c-.58.47-4.64,1.4-4.64,1.4l1.03-4.37,1.68-3.77s-2.99.81-2.89,0c.12-.96-.96-2.89-.96-2.89l-4.17,3.9s-1.28-.85-2.57-1.01c-1.28-.16-2.89.96-2.89.96l-2.89-2.89-4.81,1.93s-1.92-.63-2.75-.69c-.83-.06-3.99-1.24-3.99-1.24l-.87,3.17-2.02-3.17-.96-3.85-1.93-.96,1.93-1.93Z"/>
  <path id="iwate" class="" d="M477.88,283.63l-2.89-.96-.96,4.81s-2.14,3.14-2.3,3.17c-.5.11-2.71-.35-3.19-.52-.48-.16-3.18,1.2-3.18,1.2.09-.07-.53-.86-.7-1.26-.8-1.93-1.75-3.66-1.75-3.66,0,0-.36-.03-1.4.1-.85.11-3.37.32-3.85,0-.48-.32-1.92-1.93-1.92-1.93l-.96-.96-.69-.69-.27-3.16-.96-1.93s.83-2.9.51-3.55l-.51-2.23-1.92-2.89s-.51-1.4-.29-2.77c.15-.9.94-3.3.94-3.3,0,0,0-2.43.31-2.6.32-.16,1.93-1.93,1.93-1.93l.74-2.53s-.71-.96-.74-2.28c-.04-1.81.61-2.64.96-3.85.27-.93.78-1.45.78-2.09s.18-.8.14-2.44c-.03-1.01.19-1.89-.07-2.97-.11-.44.02-1.86.33-1.86s.41-2.27.41-2.27c0,0,.34-.89.34-1.85,0-.58.96-.96.96-.96l3.85-.96s4.17-.48,3.85-.96c-.32-.48,4.09-2.53,4.09-2.53l2.75-.95,4.04-.81,2.61-.52,1.93-1.92s5.3,4.98,4.81,5.78c-.48.8.48,3.37,0,3.85-.48.48-.48,4.33,0,3.85.48-.48,0,.96,0,.96,0,0,1.93,2.89,2.89,4.81.96,1.93.96,7.87.96,9.63s1.13,3.05.96,3.85c-.16.8.96,3.21.96,2.89s-.32,0-.96.96c-.65.96-1.28,2.41-.96,2.89.32.48-.16,1.13-.96,1.93-.8.8-1.12,2.24-.96,2.89.16.65.8,1.61.96,1.93.17.32.32.96-.96,1.93-1.28.96-.8,2.24-.96,2.89-.16.64,1.13,1.93,0,1.93s-1.61.64-1.92.96c-.32.32.16,2.24-.96,1.93-1.12-.32-2.72-.16-2.89.96-.16,1.13-1.93,1.93-1.93,1.93l-.96-1.93Z"/>
  <path id="akita" class="" d="M423,245.12s1.61.64,2.89,0c1.28-.64,4.02-2.24,3.85-3.85-.16-1.61.48-2.57.96-3.85.48-1.28.96-3.85.96-3.85v-1.93l-.96-2.89.96-2.89,2.89.96,3.85.96,3.47-1.39,1.34-.54,2.89,2.89,2.89-.96s3.21,1.44,2.89.96c-.32-.48,1.76-1.28,1.93-1.92s1.93-1.93,1.93-1.93l.96,2.89h2.89s-.51,1.21-.76,1.71c-.35.68-1.16,2.14-1.16,2.14l-.79,4.29-.17,1.49c-.48.48-.96,4.81-.96,4.81v4.81s-.65,3.05-.96,2.89c-.32-.16-.8,1.93-.96,2.89-.16.96.69,3.4.69,3.4,0,0-1.25,2.66-1.25,2.98s-1.05,1.49-1.37,1.32c-.32-.16.48,1.93,0,1.93s-.32,2.72-.96,2.89c-.65.16,0,3.85,0,3.85,0,0,1.92,2.41,1.92,2.89s.64,3.93.64,3.93l-.64,1.85.96,1.93.25,2.88-3.7,2.45s-.2.9-.9,1.25c-1.01.52-3.52,1.44-3.35,1.12.16-.32-2.89-1.44-2.89-1.93s-1.92-3.85-1.92-3.85l-3.85-.96-3.08-.25c-.48,0-2.37-1.12-2.7-1.67-.29-.5-2.89-.24-2.89-.24l-.96-.72-.96-.96v-2.89c0-.64,1.45-4.01,1.92-3.85.48.16,2.25-1.61,1.93-1.93-.32-.32.96-4.81.96-4.81v-5.78s.96-2.09.96-2.89-.96-2.89-.96-2.89l-1.92-2.89-1.93-.96s-3.05-.32-2.89,0c.16.32,0,1.93,0,1.93h-2.89l-.96-.96v-1.92l1.92-1.93Z"/>
  <path id="miyagi" class="" d="M447.82,296.09s-2.36,1.58-1.71,3.9c.18.64,1.92,1.93,1.92,1.93l-.81,2.43s-.46.91-.77,1.08c-.32.16-1.16.71-1.61,2.44-.51,1.96-.5,4.8-.66,5.6-.16.8.08,1.84-.72,2.65-1.02,1.02-1.89,1.54-2.62,1.91-.72.36-2.2.15-2.44,1.22-.29,1.29.17,2.89,0,2.89h4.53s1.15.49,1.6.88c.24.21.73.73,1.97.93,1.77.28,1.52-.32,2.81.12.97.34.64-.44.94.9.29,1.29.93,2.53.93,2.53l.69,1.38,3.53-3.1,2.25-.75v-4.81c0-.48,1.28-6.42.96-6.74-.32-.32,1.44-4.5,1.93-4.81l2.89-1.93,2.89-1.93h2.89s.32-1.61,1.93,0c1.61,1.61,4.81,5.78,4.81,5.78,0,0,1.44-.8.96-1.93-.48-1.13-2.89-4.33-2.89-4.81s.8-.65.96-1.93c.16-1.28,0-3.85,0-3.85l-.96-.96s1.44-1.76.96-1.93c-.48-.16,1.13-.48.96-.96-.16-.48-.96-1.93-.96-1.93,0,0,2.09-2.89,1.93-2.89s1.92-1.76,1.92-1.93-.16-1.28,0-1.93c.16-.64-.83-1.65-.83-1.65l-1.98-.89-1.1-.09-.53,2.65s.26.94-.38,1.91c-.65.96-1.66,2.65-1.92,2.89-.22.2-1.29.33-1.92,0-1-.52-2.89,0-2.89,0l-1.93.96-1.57-2.84-.88-2.08-5.25.1s-1.1-1.71-1.58-1.55c-.48.16-1.61-2.32-2.25-2.16-.65.16-1.35,1.04-1.35,1.04,0,0-2.33,1.4-2.52,1.7-.5.8-3.12,2.29-3.6,1.97-.48-.32.71.92.71.92,0,0,2.09,3.37,1.92,3.85-.16.48,0,1.93,0,1.93l-1.17,1.87Z"/>
  <path id="yamagata" class="" d="M417.22,300c-.16-.48-.96-3.69.96-4.81,1.93-1.13,3.69-.8,3.85-1.93.16-1.13,2.24-2.89,1.92-3.85-.32-.96.96-3.21.96-3.85s.8-3.53.96-3.85c.16-.32.96-4.81.96-4.81,0,0,.84,1.44,1.92,1.69.84.19,2.43.02,2.43.02l2.43,1.81,4.52.52,3.13.78,1.92,3.85,2.89,1.93,1.92,2.89.96,1.93s-.25,3.36-.73,3.52c-.48.16-2,1.61-2.16,2.25-.16.64,0,2.25,0,1.93s1.92,1.93,1.92,1.93l-.96,2.89-1.93,1.93s-1.12,4.17-.96,3.85c.16-.32,0,2.89,0,2.89v1.93l-2.44,2.18-1.93.96c.2-.09-1.41.06-1.41.71v8.66s-1.92,1.61-1.92,1.93-2.72,1.61-2.89.96c-.16-.65-4.81-2.89-4.81-2.89h-5.78s-2.72-1.44-2.89-1.93c-.16-.48-.96-4.81-.96-4.81l.96-3.85,1.3-2.16s1.42-1.24,1.75-1.37c.8-.32,2.78-1.93,2.78-1.93,0,0,1.07-1.92.91-2.24-.16-.32-.96-2.89-.96-2.89h-2.89s-.56-2.58-.96-2.89c-.72-.55-1.59-1.51-1.59-1.51l-1.35-1.16s-1.71-.7-1.88-1.18Z"/>
  <path id="fukushima" class="" d="M407.6,341.4s2.39-.71,3.38-.88c.67-.12,4.75-1.63,4.43-1.47-.32.17,2.29-1.01,2.29-1.01,0,0-.96-2.38.06-4.32.32-.6,1.38-2.91,1.38-2.91,0,0,.96-1.2,1.21-1.64.4-.72,1.68-1.69,1.68-1.25,0,.32,3.86,0,3.86,0h2.88s3.64,1.69,3.85,1.93c1.01,1.14,1.75,1.14,2.53.82,1.02-.42,2.66-2.24,2.66-2.24l.58-.68v-5.6h4.81l2.89,1.92h3.85l.96,2.89.96,1.93,1.63-1.43,2.28-1.8,1.86-.62s2.72,4.17,2.89,4.81c.16.65,0,5.46,0,5.78s1.44,7.54.96,9.63c-.48,2.09-.48,6.26-.96,6.74-.48.48.48,4.33,0,4.81s-3.05,4.98-3.85,4.81c-.8-.16-2.72,2.24-2.89,1.93-.16-.32-2.89-1.93-2.89-1.93h-2.89l-2.89,2.89-1.93.96s-1.12-.96-1.92-1.92c-.8-.96-2.89-3.85-2.89-3.85,0,0-1.28-1.13-1.92-1.93-.65-.8-3.05-4.01-2.89-3.85h0s-1.82-2.08-2.9-1.93c-1.13.16-4.65.65-4.82.96-.16.32-.8,2.41-2.89,2.89-2.09.48-5.29,2.24-5.78,2.89-.48.64-3.85,1.93-3.85,1.93,0,0-2.2.64-2.55.49-1.05-.43-3.22-2.42-3.22-2.42l-.96-3.85.12-3.61-1.08-3.13,1.93-1.93.18-1.61-.18-3.21Z"/>
  <path id="tochigi" class="" d="M413.37,382.79s-1.44-1.76-.96-2.89c.48-1.13.64-4.65.96-4.81.32-.16,0-1.93,0-1.93l-2.59-3.21v-1.89l.67-1.64v-5.32s3.85-1.42,3.85-1.42c0,0,4.17-2.73,4.81-2.89.65-.16,3.31-1.06,3.63-1.22.32-.16,1.5-1.35,1.5-1.35l.65-1.28,4.82-.96,1.33.5,6.37,7.21s-.26.51-.12,2.29c.18,2.34-.02,3.48-.84,4.44-.23.27-.96.96-.96.96v4.81s.74,3.69.69,4.67c-.03.68-.69,3.03-.69,3.03,0,0-3.06.85-3.85.96-.98.14-2.72,1.23-3.85,1.92-.49.3-2.44,2.14-3.05,2.41-.29.13,0,0-.8.48-.8.48-3.82,1.48-3.85,1.93-.02.31-.84-.81-1.64-1.37-1.9-1.32-3.81-1.52-4.13-1.52s-1.92-1.93-1.92-1.93Z"/>
  <path id="gunma" class="" d="M398.4,362.36s1.12-1.68,1.6-2.96c.48-1.28.42-1.44,2.39-2.2,1.28-.5,4.3-2.1,4.3-2.1l.61,2.43.64,1.44,3.51,2.64s.32,3.53,0,4.81c-.32,1.28-.83,2.26-.67,3.06.16.8,1.14,1.88,1.14,1.88l1.51,2.17s-.18,3.3-.57,4.27c-.27.67-1.07,2.93-.1,4.05.76.87,1.91,1.95,2.05,2.51.15.56,1.45.35,1.45.35l3.98,2.08s-4.29.65-4.94.81c-.64.16-1.92.65-2.89,0-.96-.64-3.04-1.85-3.85-1.93-1.44-.13-1.41-.22-3.85-.96,0,0-.9,2.12-1.38,2.76-.48.65-1.16,3.85-2.47,3.98-1.53.15-2.41.8-2.89.96-.48.16-3.37,1.44-3.85,1.92-.48.48-2.89.96-2.89.96,0,0-2.09-1.28-1.93-1.93s-.29-3.08-.13-3.4c.16-.32-.79-1.57-.79-1.73s.6-3.53.92-4.49c.32-.96-.32-2.41,0-2.89.32-.48-1.93-1.92-1.93-1.92l-1.17,1.96s-.75-.2-1.72-1c-.96-.8-2.41-1.89-2.89-2.89-.16-.32.96-4.81.96-4.81,0,0,3.69-2.41,3.85-2.89.16-.48,4.17-2.09,3.85-1.93-.32.16,1.28.22,1.6-.1.32-.32,2.03-.59,2.03-.59l1.26-1.71,1.62-1.28,1.63-1.36Z"/>
  <path id="ibaraki" class="" d="M447.07,379.9s-.16,7.22,0,7.7c.16.48.48,3.37.96,3.85.48.48.96,2.89.96,2.89,0,0,1.61,3.85,1.93,3.85s2.09,4.33,2.89,4.81c.8.48,2.61,2.32,2.61,2.32l-4.54-3.28-4.5-3.55-2.23-1.27s-2.32,1.1-3.52,2.61c-.69.88-5.31.59-6.11.28-.8-.32-6.9-1.61-6.74-1.93.16-.32-1.29-1.57-1.92-2.89-.42-.88-2.89-2.89-2.89-2.89,0,0-3.2-.32-2.89-.96.32-.64,0-1.92,0-1.92v-1.93c0-.48,5.26-2.68,5.26-2.68,0,0,1.92-1.69,1.53-1.41-.49.36,1.98-.96,2.3-1.44.32-.48,3.47-1.19,3.47-1.19l2.84-.99.53-2.03v-2.67s-.53-2.2-.53-3.96-.48-3.69,0-3.85c.48-.16,1.7-1.5,1.92-2.89.12-.71,0-4.81,0-4.81,0,0,3.03,4.16,3.42,4.44.99.72,1.4,1.33,1.4,1.33,0,0,1.51-.46,2.6-1.63,1.22-1.32,2.22-2.22,2.7-2.22s2.24-.32,2.41,0c.16.32,2.89,1.93,2.89,1.93,0,0,0,3.69-.96,4.81-.96,1.13-2.72,4.17-2.89,4.81-.16.65-.48,4.01-.96,3.85-.48-.16-1.92,2.89-1.92,2.89Z"/>
  <path id="niigata" class="" d="M413.37,310.59c.16.32.48-4.5.96-4.81.48-.32.44-2.37.44-2.37l2.45-3.41s2.52,1.52,2.89,1.93c.24.26,2.01,1.52,2.71,3.92.31,1.08.8,1,1.72.89.5-.06,1.35,0,1.35,0l.96,2.89s-1.28,3.21-2.89,3.85c-1.61.64-2.89,2.09-2.89,1.93s-1.23,3.19-1.38,3.62c-.8,2.22-.32,3.35-.32,3.35,0,0,.26,3.17.74,3.62.55.53,2.92,1.84,2.44,1.68-.48-.16-3.56,2.49-3.4,3.13.16.64-2.24,3.69-1.93,4.81.32,1.13.96,2.72,0,2.89-.96.16-5.77,1.92-5.77,1.92,0,0-4.01.65-3.85.96.16.32.32,4.33,0,4.81-.32.48-2.01,1.42-1.93,1.93.25,1.45.32,1.92.96,2.89.64.96,0,3.53,0,3.85s-.64.64-.96.96c-.32.32-4.81,1.93-4.81,1.93l-1.93,3.85s0,.48-1.93,1.93c-1.93,1.44-2.73,2.09-2.89,2.89-.16.8-4.17,1.13-3.85.96.32-.16-.41-1.35-.3-2.63.02-.24-.31-.83-.31-.83,0,0-.83-.87-1.31-2.31-.48-1.44-.96-1.61-.96-2.89s-.16-2.41-.96-1.93c-.8.48-3.53.96-3.85,1.93-.32.96-2.16,2.19-2.89,2.89-1.41,1.35-2.29,3.09-2.89,2.89-.61-.2-2.89-1.28-2.89-.96,0,.37-1.93,1.33-1.93.96,0-.32-.96-1.93-.96-1.93l-1.93-.96-.96-.96-2.21,2.69-2.61,4.04s-.49-.63-.96-1.93c-.8-2.21-.5-4.38-.5-4.38l-1.43-1.39-.96-.96s3.05-1.61,3.85-1.93c.8-.32,5.61-1.28,5.78-1.93.16-.64,2.89-2.89,2.89-2.89l2.89-.96c.48-.16,4.17.8,4.82,0,.64-.8,1.93-3.05,3.85-4.81,1.93-1.76,4.65-1.93,4.82-2.89.16-.96.32-2.24,1.93-3.85,1.61-1.61,2.09-3.37,2.89-3.85.8-.48,1.28-2.57.96-2.89-.32-.32.96-5.78.96-5.78,0,0,3.85-3.05,5.78-3.85,1.93-.8,4.33-.32,5.78-1.93,1.44-1.61,4.01-2.57,4.81-3.85.59-.94,2.01-2.55,1.93-2.89-.32-1.28-.16-4.17,0-3.85Z"/>
  <path id="niigata" class="" d="M377.75,316.36s2.89-1.93,2.89-2.89,1.76-2.09,1.93-2.89c.16-.8,1.93-2.89,1.93-2.89,0,0,.8,4.01,0,5.78-.8,1.76-1.13,3.85-.96,3.85s.96.65.96.96,2.73-1.44,2.89-.96c.16.48,0,2.89,0,2.89,0,0-1.61.16-1.93.96-.32.8-.65,2.72-1.93,3.85-1.28,1.13-3.21,3.21-3.85,2.89-.65-.32-2.89-.96-2.89-.96,0,0,1.76-1.92,1.93-2.89.16-.96.48-.8.96-1.92.48-1.13-.16-3.21,0-2.89.16.32-1.93,1.92-1.93,1.92,0,0-.48.96-.96,0-.48-.96,1.28-2.89.96-2.89s0-1.93,0-1.93Z"/>
  <path id="saitama" class="" d="M391.7,395.31c.48,0,3.38-1.44,4.35-1.93.96-.48,3.53-2.09,3.85-1.93.32.16,1.13.65,1.93-.96l1.92-3.85c.48-.96.32-2.09.96-1.93.64.16,4.79.9,5.27,1.38.48.48,2.42,1.72,3.1,1.78,1.75.16,2.82-.22,4.33-.47.35-.06,1.94-.69,2.25-.52.32.16,1.41.72,1.41.72v3.85s-.21.7,1.23.7c1.92,0,2.84,1.6,2.46,1.94-.4.36-.49,1.04.16,2.17.64,1.13,2.01,3.49,1.69,3.97-.32.48.55,2.45.23,2.77-.32.32-3.82-.46-4.56-.14-2.26.95-4.03-.71-5.63.57-1.61,1.28-3.12,1.02-4.25.54-1.13-.48-3.53-2.41-4.81-2.89-1.28-.48-4.46-1.92-4.81-1.93-1.87-.03-3.21,1.61-2.89.96l-1.3.8c.58-.05-3.04.28-4.48-.8-.98-.74-1.93-1.93-1.93-1.93,0,0-.98-2.89-.5-2.89Z"/>
  <path id="chiba" class="" d="M448.99,406.86s-3.69,4.01-4.81,4.81c-1.13.8-1.76,2.57-1.93,2.89-.16.32-.48,2.09,0,2.89.48.8.32,6.9,0,6.74-.32-.16-.16.96-1.93,1.93-1.76.96-6.58,1.92-6.74,1.92s-1.76,1.28-2.89,2.89c-1.13,1.61-1.93,2.89-1.93,2.89l-1.92,1.92-2.89-1.92s-1.19-1.7-.96-1.93c.4-.4,1.28-.48,1.93-.96.64-.48,1.44-2.57.96-4.81-.48-2.24-.64-1.76,0-2.89.65-1.12,0-1.92,0-1.92,0,0-2.24-.8-1.92-.96.32-.16,1.13-1.28,1.92-1.93.8-.64,1.44-2.57,1.93-2.89.48-.32,1.76-.96,2.89-1.92,1.12-.96,3.21-1.61,2.89-2.89-.32-1.28-2.89-2.89-2.89-2.89h-1.93l-.96,1.93-.96-4.81c-.16-.8.41-2.36.09-2.2-.32.16-.53-4.13-.53-4.13l.18.75s-.06-1.27-1.34-2.55l-.88-2.35.95-.86,3.45,4.6s4.47,1.43,5.63,1.61c.57.09,1.49.91,3.1.59,1.61-.32,2.66.69,3.79-.28,1.12-.96,3.85-2.89,3.85-2.89l1.93.96c-.32-.16,4.65,4.01,4.81,3.85s3.85,2.89,3.85,2.89v.96h-.96c-.96,0-3.69,1.44-3.85.96-.16-.48-1.93,0-1.93,0Z"/>
  <path id="tokyo" class="" d="M399.26,400.52s2.49-1.57,3.53-1.36c1.04.21,4.18,1.52,4.81,1.93.63.4,2.88,1.73,3.21,1.94,1.01.64,1.88,1.05,2.44,1.34.73.37,1.51-.2,2.04-.4.53-.19,1.56-.5,1.92-.96.37-.46,3.61.82,4.82,0,1.2-.82,2.89,0,2.89,0h1.92s-.08,2.8.37,3.78c.45.98-2.3,1.99-2.3,1.99,0,0-.6.75-.96.96-.37.21-.14,4.03-.96,3.65-.82-.38-.67-1.47-2.21-2.22-1.54-.75-2.61-1.43-2.61-1.43,0,0-3.93.32-3.85,0,.08-.32.09,1.03-.36,1.43-.45.4-.04,1.13-1.57.49-1.55-.65-1.4-.21-3.85-.96-2.44-.75-3.67-2.02-3.85-2.89-.18-.87-.66.17-1.92-.96-1.26-1.14-1.39-.49-1.87-1.53-.41-.88-1.98-2.32-1.98-2.32l.32-2.49Z"/>
  <path id="kanagawa" class="" d="M403.75,412.64l.96-2.89-.22-2.29s.58,1.97,4.43,3.41c.35.13,2.58.31,2.58.31l1.97.92.85-2.36s2.89,0,3.25.21c.37.21,1.34-.44,2.52.75l1.94,1.54.95,1.35s-2.48.44-2.89.96c-.4.52-1.7,2.25-.96,2.89.74.64.65,3.19.96,3.85.31.66,1.93,1.92,1.93,1.92,0,0-.84,0-.96.96-.12.95-.21,2.7-.96,2.89-.75.19-1.93-1.92-1.93-1.92,0,0-.8-2.06-.96-2.89-.16-.83-1.92-1.93-1.92-1.93,0,0-1.55.13-1.92,0-.38-.13-2.92.12-3.85.96-.93.85-3.41,1.24-3.85,1.92-.44.68-.96,2.89-.96,2.89l-1.92.96s-1.89-.33-1.93-1.92c-.04-1.6-.89-3.44-.13-4.63.75-1.19.13-2.11.13-2.11,0,0-.52-1.42-1.19-1.59-.66-.17-1.47-1.3-1.47-1.3l2.66-1.92,2.89-.96Z"/>
  <path id="nagano" class="" d="M363.3,367.39s2.01-2.45,1.93-2.89c-.09-.44,2.89-3.85,2.89-3.85,0,0,3.35,2.23,3.56,3.13.36,1.5,1.77-.45,3.12.19.62.29,2.2.52,2.2.52l3.02-3.2s1.56-.73,2.12-2.03c.77-1.77,3.86-2.28,3.86-2.28,0,0,1.33-.77,1.26.37-.09,1.36.68,3.29.68,3.29,0,0,.44,2.2,1.36,2.89.91.69.65,2.25.96,2.89.31.64.75,1.19,0,.96-.75-.23-3.02,1.34-4.12,2.24-1.82,1.49-2.81,1.83-3.58,2.57-.7.68-.28,1.54-.74,3.22-.46,1.68-.14,1.25.28,2.34.42,1.09,2.73,2.44,2.73,2.44,0,0,1.83,1.06,1.58.67-.25-.39.36-1.61.96-1.92.8-.42,1.93,1.92,1.93,1.92v3.85s-.55,1.9-.96,2.89c-.41.99.69.31.83,2.37.17,2.44.16,3.66.16,3.66l2.1,1.67.28,1.21s.65,1.36-.74,1.83c-1.67.56-2.38,1.15-3.59-.15-1.21-1.3-.87-1.25-1.93-.96-1.06.29-1.03-.19-1.93,0-.9.19-1.94.49-1.94.49,0,0,0-.37-2.18,1.09-2,1.33-1.65,1.31-1.65,1.31,0,0,.02,2.4-.96,3.85-1.2,1.77-.72.85-.62,2.87.09,1.96-.14,4.16-.59,5.37-.39,1.07-.96,2.57-1.37,4.36-.36,1.57-.39,1.22-3.09,2.24-1.42.54-1.2,1.85-2.68,3-1.3,1.01-2.8,1.65-3.63,2.28-.94.71-4.01-.85-4.4-.87-.39-.02-1.16.71-1.93.96-.76.25-1.89-2.35-1.89-2.35,0,0,.3-2.8.92-3.43,2.88-2.88,2.87-1.78,1.48-4.45-.48-.92-3.56-1.45-2.84-2.63.72-1.19,1.49-2.19.4-3.51-.46-.56-1.02-.33-1.63-2.09-.62-1.76-.7-1.73-2.22-2.72-1.52-.99-1-2.6-1-2.6,0,0-.04-.7.23-1.33.33-.77.81-.28,2.23-1.01,1-.51,3.08-2.33,3.08-2.33,0,0,1.2-1.8,1-2.57-.12-.46-1.27-1.22-1.27-1.22,0,0-.5.22-.6-1.26-.07-.91.59-1.43,1.15-3.09.56-1.66.49-2.53.96-2.89.47-.36,1.27-1.19.96-1.93-.31-.73-.96-1.92-.96-1.92l-.62-1.25,1.58-3,2.89-2.49s.58-1.82.68-2.79c.08-.71.28-3.95.28-3.95Z"/>
  <path id="yamanashi" class="" d="M381.49,420.08s.12,2.8,1.07,4.11c.95,1.31,2.36.97,2.89.96.53,0,1.04-5.19.96-5.78-.08-.59,2.17-2.54,1.93-2.89-.24-.35.58,1.72.96,1.92.39.2,3.05.67,3.05.67,0,0,.56-1.02.81-1.63.25-.61,2.89,0,2.89,0l4.49-.17s-2.85-1.4-2.32-1.92c.71-.7,2.2-1.65,2.92-1.85,3.73-1.07,2.45-1.27,3.22-2.66.18-.33.14-3.38.14-3.38,0,0-2.5-.54-3.29-1.64-1.37-1.91-2.27-2.81-2.27-2.81,0,0,.57-2.65.12-2.37-1.31.81-4.94-.52-4.94-.52l-2-2.17-3.45,1.18-1.28-.94s-.52-1.33-1.93-.96c-1.41.37-2.89,0-2.89,0l-3.85,1.93s-.84-.03-.96.96c-.28,2.22-.48,2.89-.96,3.85-.18.36-1.06,1.4-.96,1.92.1.53.02,1.53.38,1.9.37.38,1.64,1.84,1.64,1.84,0,0-.91,2.13-.09,3.96.82,1.84,1.16,5.06,1.47,5.54.94,1.48,2.28.93,2.28.93Z"/>
  <path id="toyama" class="" d="M336.34,364.5l.12-2.65s.13-.6,1.81-2.16c1.65-1.55,3.85-.96,3.85-.96l-.96,3.85s-.14.95,0,1.93c.14.97,2.1,2.16,2.89,2.89.79.73,2.68,1.19,3.85.96,1.18-.23,2.13-.79,2.89-1.92.76-1.14,1.86-1.46,1.93-2.89.07-1.43-.26-2.41.96-2.89,1.22-.48,2.89-1.93,2.89-1.93h2.89s1.23,1.54,1.93,1.93c.45.25.39,2.13.39,2.13,0,0-.28,1.45.58,2.69.86,1.24.96,1.89.96,2.89,0,3.13-.97,5.84-1.35,6.11-.38.27-2.8,2.23-3.21,3.49-.4,1.26-.52,2.09-2.19,1.96-1.67-.13-3.18.06-4.18-.7-.99-.76-2.33-1.07-3.53-1.23-1.19-.15-3.31-.71-3.56-.15-.25.56-.9.59-1,1.06-.1.47-.92,3.3-2.63,5.32-.89,1.05-1.18,1.1-2.44-.45-.94-1.15-1.93-1.93-1.93-1.93,0,0-2.89,3.24-2.89,2.89s-.21-3.75-.24-4.16c-.29-3.53-.9-6.41-.72-7.4.17-.99.64-2.69.64-2.69.36-.39.9-2.48.9-2.48l1.33-1.02.02-2.47Z"/>
  <path id="gifu" class="" d="M358.56,413.52c1.1,1.64,1.91,2.25.89,2.97-1.02.71-1.08,1.18-1.56,1.72-.68.76-1.1,2.2-1.24,3.17-.15,1-.27.59-1.58,1.14-2.04.86-1.46.61-2.91.48-.91-.08-.53-.8-2.34-.74-1.81.06-3.31,1.81-3.92,1.26-.61-.55-.89-.96-1.86-2.23-.97-1.27-1.8-3.6-2.89-3.85-1.09-.25-4.31.44-5.17.95-.97.57-2.09-.07-2.53.97-.39.92-2.57,1.45-2.23,2.77.79,3.04-.66,3.97-.66,3.97,0,0-.82-.25-1.93-.96-1.11-.71-1.93-1.93-1.93-1.93,0,0-1.49-1.72-1.92-.96-.43.76-1.93,1.92-1.93,1.92,0,0-1.65-2.83-.96-3.85.68-1.02,2.11-1.94,1.93-2.89-.18-.95.26-1.76-.02-2.38-.28-.62-1.02-.66-.94-1.47.08-.81-.38-1.35-.38-1.35,0,0-1.25-.79-1.55-1.54-.3-.75-.96-2.89-.96-2.89,0,0-.48-1.45.37-2.29.37-.37.59-.59,1.55-1.56,1.15-1.15,1.04-1.53,3.07-1.29,2.03.24,2.06.61,3.34.14,1.03-.38,1.39-.57,3.22-.78,1.83-.2,2.53-.31,2.89-.96.36-.66,1.4-.9.96-1.93-.43-1.03-1.93-2.89-1.93-2.89,0,0-1.93-.96-1.51-1.14.41-.17-.75-2.6-.42-2.71.34-.12,1.15-.4,1.15-.4,0,0,1.05-1.91.78-2.49-.27-.58.96-4.81.96-4.81l2.89-2.89s.7.92,1.93,1.93c.68.55.72,2.2,1.93.96,1.2-1.24,1.34-1.25,1.93-2.89.77-2.14,1.4-3.35,1.93-3.85.53-.5,2.89,0,2.89,0,0,0,2.29.31,3.85.96,1.56.65,1.92.74,2.89.96.97.22,3.24-.29,3.24-.29l1.82,3.54-.7,1.19s-.98.14-.95,1.3c.03,1.16,0,1.4-.73,2.53-.69,1.06-1.21,2.61-.75,3.28.46.67,1.69,1.72,1.69,1.72l-.72,2.14s-.35.85-1.93,1.92c-1.58,1.08-3.65,1.52-3.65,1.52l-.2,1.37c-.2,1.37.18,2.29.96,2.89.78.6,1.48.78,1.93,1.93.44,1.14.43,1.57,1.61,2.55,1.69,1.4.48,2.9.48,2.9,0,0-1.29,1.42-.16,1.91l1.99,1.22Z"/>
  <path id="ishikawa" class="" d="M318.04,383.76s5.43-4.23,5.78-4.81c.35-.59,2.6-3.23,2.89-3.85.29-.62,2.48-5.81,2.89-5.78.4.04.98-1.92,1.93-3.85.94-1.93,2.2-2.25,1.93-2.89-.27-.64-.96-4.81-.96-4.81,0,0,.19-.96,0-1.93-.19-.96-2.24-3.39-1.93-3.85.32-.46.89-3.18.96-3.85.07-.68,1.16-3.16.96-2.89-.04.06-.07.08-.08.07-.03-.02.32-.46,2-1.03,2.12-.71,2.05-.34,3.85-.96,1.8-.63,2.73-1.45,3.85-1.93,1.13-.47,3.55-2.48,4.82-2.89,1.26-.41,2.4-1.34,2.89-.96.49.38,1.93,1.93,1.93,1.93,0,0,.04,1.34-.96,1.92-1,.59-2.89,1.93-2.89,1.93,0,0,.23,1.3,0,1.92-.23.63-1.32,1.64-1.93,1.92-.61.29-1.93,0-1.93,0,0,0,.29,1.44-.96,1.93-1.25.48-1.93,1.93-1.93,1.93h-2.89l-.96.96-.96,1.93.96.96s3.37.53,2.89,0c-.48-.53,0-1.92,0-1.92l1.93.96v1.92l.96,1.93-.96.96h-1.93s-1.95.46-2.89,1.93c-.94,1.46-.8,1.84-.96,2.89-.16,1.05-.02,3.43-.02,3.43l-.94.42c-.42.19-2.19,5-1.93,5.78.26.78.96,10.59.96,10.59,0,0,0,1.11-.17,1.56-.17.44-1.09,3.23-.83,3.78.26.56,0,2.66,0,2.66l-1.9.66s-2.13.84-2.89-.96c-.76-1.8-.96-1.92-.96-1.92,0,0-5.93-.48-5.78,0,.15.48-1.17-.06-1.93-.96-.85-1.02-1.93-2.89-1.93-2.89v-1.92Z"/>
  <path id="shizuoka" class="" d="M362.34,429.97c.02,1.37.38-5.68.8-5.69.42,0,1.48,0,3.05-1.05.33-.22,2.89-1.92,2.89-1.92,0,0,1.59-2.73,2.89-2.89,1.3-.15,1.67-.18,1.93-.96.26-.78.96-2.52.96-2.89s.96-2.89.96-2.89c0,0,.36-3.97.72-3.59.37.38,1.32,1.47,1.05,2.32-.75,2.37.23,2.98.52,4.2.29,1.22.7,3.15.82,3.57.28.98.83,1.66,1.22,1.8.71.26,1.3-.38,1.45.37.14.75.08,3.24.68,3.49.6.25.2.87,1.39,1.21.96.27,1.14.64,1.99-.25.72-.75.75-5.41.75-5.41l1.93-2.89s.05,1.37.96,1.92c.91.56,1.23.33,2.56.58.78.15.87-1.12,1.3-1.54.42-.42,2.53.07,2.89,0,.36-.07,2.42.25,2.89,0,.47-.25,1.6-.17,1.6-.17,0,0,.89,2.31.32,3.06-.57.75-.45,1.38-.41,1.97.04.59.45,3.19.45,3.19l.81,1.13s1.07.44,2.03,4.29c.16.62,1.92,2.89,1.92,2.89,0,0-.42,2.62-.96,2.89-.54.27-1.38,1.64-1.92,1.92-.55.29-1,2.31-1.93,2.89-.92.58-.98.8-1.93,1.93-.95,1.12-2.37,3.42-2.89,2.89-.52-.53-3.14-2.6-2.89-2.89.25-.29-1.46-3.35-.96-3.85.5-.5.9-4.36.96-4.81.07-.45.96-2.89.96-2.89l1.93-.96v-2.89s1.77-.8-.96-.96c-2.73-.16-5.78,0-5.78,0,0,0-1.94.33-1.93.96.02.64-1.59.39-.96,1.93.63,1.54-.96,2.89-.96,2.89l-3.85.96-.96,1.92s.32.5-.96,1.92c-1.28,1.43-2.91,1.86-2.89,3.85.02,1.99,1.73,3.24.96,3.85-.77.62-2.36-.77-2.89-.96-.53-.19-4.67-.5-5.78-.96-1.11-.46-2.53,1.33-3.85.96-1.32-.36-3.03-.67-3.85-.96-.83-.29-1.93-.96-1.93-.96,0,0-1.09-.99-.96-1.92.12-.94,0-1.93,0-1.93,0,0-2.56.05-1.93.96.63.91-.29,5-.96,3.85-.75-1.26-1.22-2.77-1.22-2.77l.47-4.26s1.16-.25,3.64-1.64c2.45-1.37,3.87-2.32,3.85-2.89-.02-.57,0-2.29,0-1.93Z"/>
  <path id="aichi" class="" d="M333.45,429.97s-.46.14-.96-.96c-.5-1.11-2.36-2.99-1.93-2.89.43.11.96-1.44.96-1.93s-.53-2.66.06-3.11c.64-.48.82-.98,1.87-1.7,1.14-.78,2.68-1.08,2.89-.96.21.12,1.89-.98,1.93-.96.04.02,1.45-.32,1.93,0,.47.32,1.29-.18,1.82.63.53.81,2.87,4.99,3.25,4.78.38-.2.48,1.17,1.68.36,1.19-.81,3.08-.96,3.85-.96s1.41,1.01,1.93.96c.52-.05,3.45-1,3.89-1.39.44-.38,1.46,2.68,1.89,2.35.42-.33,1.23-.9,1.93-.96.6-.05,2.73,1.05,2.73,1.05l-.25.58c-.22,2.48-.16,1.89-.22,2.48-.22,2.4-.15,2.53-.35,4.75-.02.2-1.28.87-1.87,1.34-1.3,1.04-2.13,1.43-2.78,1.93-.64.5-3.08.79-3.04,1.34.04.55.19,1.02,0,1.92-.19.91-.49,2.13,0,2.89.49.76,1.16,2.12,1.16,2.12,0,0-3.02-.62-4.05-.19-1.03.43-3.57,1.51-4.81,1.93-1.24.41-4.82.96-4.82.96,0,0,.34-1.47.96-1.93.63-.45,4.51-1.57,4.82-1.92.31-.36,1.95.18,1.93-.96-.02-1.14,1.17-1.18,0-1.92-1.17-.74-1.93-1.93-1.93-1.93,0,0-2.1.51-1.93.96.17.45-.22,2.48-1.93,1.93-1.7-.56-3.87.08-3.85-.96.02-1.04-.8-3.21-.96-2.89-.16.33-.96.96-.96.96,0,0-.49.92,0,1.93.49,1.01,2.37.86,1.93,1.92-.44,1.07-1.73,1.16-1.93.96-.19-.2-1.84-1.21-1.93-1.92-.09-.71-1.08-2.25-.96-2.89.12-.63,1.36-1.46.96-1.92-.4-.46-2.23-2.65-1.93-2.89.31-.24.78-.09.96-.96.18-.88.96-1.93.96-1.93h-2.89Z"/>
  <path id="mie" class="" d="M328.63,436.71s-2.02,2.33-1.93,2.89c.1.56.36,2.41,0,2.89-.36.48-.48,1.69,0,1.92.48.23.71.5,1.93,1.93,1.21,1.43,1.36.67,2.89,1.93,1.53,1.25,2.2,1.92,2.89,1.93.69,0,3.18.24,2.89.96-.29.72.52.92,0,1.92-.52,1-2.34,2.34-1.93,2.89.41.55.12,2,0,1.93-.12-.08-1.22-.55-1.93-.96-.7-.41-2.72-1.67-2.89-.96-.17.7-2.43,2.11-3.85,2.89-1.42.78-2.32.08-3.85.96-1.53.88-2.8,1.13-2.89,1.93-.09.79-1.08,1.69-.96,1.92.12.23.04,2.5,0,2.89-.04.38.1,2.96-.96,2.89-1.06-.07-2.82.24-2.89.96-.07.72-1.35,1.63-1.93,2.89-.58,1.26-.66,2.53-.96,2.89-.3.36,0,1.92,0,1.92,0,0-1.7.74-1.93.75-.45.02.36-1.22-1.22-2.8-1.82-1.83-2.46-1.47-2.64-1.8-.4-.75,0-1.18,0-1.92,0-.74,1.5-2.6,1.93-2.89.93-.63.6.27,1.93-.96,1.1-1.03,1.09-1.93,1.93-1.92.84,0,2.02-.49,1.93-.96-.1-.47-1.68-4.36-.96-4.81.71-.45,2.22-1.57,1.93-1.93-.3-.35-.71-1.13-.96-1.92-.25-.79-.86-2.16-.96-2.89-.1-.75-.18-2.27.33-2.05.51.22,3.84.03,3.52-.84-.32-.88.63-1.38,0-1.93-.63-.55-2.81-1.58-3.19-1.8-.54-.31-2.01-.15-1.62-1.09,1.35-3.28.42-3.01.96-2.89-.42-.1-1.89-1.39-1.72-1.72.2-.39-.35-1.26-.21-2.13.2-1.29,1.74-2.31,2.05-2.45.8-.36,1.9-.44,2.49-.84.22-.15-.59-1.45,2.94-.61,1.32.32,3.72-3.36,3.72-3.36,0,0,.56-.95.55-1.57-.02-1,.42-2.05.44-2.65.02-.61.24-3.04.34-2.96.1.08-.3-.78-.74-.87-.43-.1,2.1-2.2,2.1-2.2l.56.18,2.26,2.41s.38.03,1.7,1.08c1.54,1.24,1.58,1.48,1.58,1.48,0,0,.95,1.36,1.21,1.77.26.41,0,1.93,0,1.93,0,0-1.52,1.15-1.93.96-.41-.19-.68.44-.96.96-.28.52-.96,3.85-.96,3.85Z"/>
  <path id="fukui" class="" d="M313.23,388.57s.03-1.06.96-1.92c.93-.87,3.85-2.89,3.85-2.89,0,0-.19,1.1,0,1.92.19.83,1.2,2.09,1.93,2.89,1.26,1.38,1.29.88,2.89.96,1.6.08,3.85,0,3.85,0,0,0,.93-.3,1.39.72.54,1.2,1.5,2.16,1.5,2.16h1.93l.42,2.71,1.93,1.68s.36,1.08,1.02,1.46c.66.38.31,1.54.31,1.54,0,0-.01,1.43-1.66,1.9-1.26.36-4.45.7-4.45.7,0,0-1.61.98-2.4.58-.79-.4-3.62-.52-3.85,0-.23.52-2.34,1.87-1.93,1.93.07,0,.09,0,.09,0,.01-.02-.82-.12-1.05.96-.27,1.29.69,4.05.15,2.64-.2-.52-2.7-1.88-2.82-2.46-.13-.59-2.14.78-2.14.78,0,0,1.15,1.54.96,1.92-.39.79-1.48,2.25-2.89,2.89-1.41.64-3.09.38-2.89.96.2.59-.3.42-.96.96-.66.54-1.36,1.12-1.93,1.92-.57.81-1.27,1.4-1.93,1.93-.65.53-1.15,1.36-1.34,1.06-.19-.3-3.06,1.72-3.47.87-.41-.85-.51-2.27-1.92-1.93s-1.93,0-1.93,0l-1.93-1.93s-1.45-1.58-1.1-2.24c.4-.76-.69-.96.14-1.61.83-.64,2.38,2.12,2.89,1.93.51-.19,1.69-2.38,1.93-1.93.23.45,2.89.96,2.89.96,0,0-.72.41.96-.96,1.68-1.38,2.08-.55,2.89-.96.81-.41-.9-1.97.96-1.93,1.86.05,2.64.87,2.89,0,.25-.87-.62-4.09,0-3.85.62.24,2.78.22,2.89.96.11.74.54,3.01.96.96.42-2.05.95-3.09.96-3.85,0-.76-1.67-2.45-1.93-2.89-.26-.44-1.76.89-1.93-.96-.16-1.86-.3-2.09-.96-2.89-.66-.8-1.35-1.41,0-1.93,1.35-.52,2.23-.59,2.89-1.92.65-1.34.96-3.85.96-3.85Z"/>
  <path id="shiga" class="" d="M304.56,429.97c.12-.64.7-2.31.96-3.85.26-1.54,0-2.89,0-2.89l-1.93-.96.96-1.93s-.13-1.49,0-1.93c.12-.43,1.89-1.56,2.89-2.89.98-1.3,2.89-2.53,2.89-2.53,0,0-.23-.6,1.86-1,1.36-.26,2.55-1.37,2.55-1.37,0,0,2.21-1.36.64-3.84-.26-.41,1.69-.89,1.69-.89,0,0,2.69,2.52,2.89,2.89.4.75.91,1.06.96,1.93.05.87.05.51.96.96.91.45,1.14,2.87,1.14,2.87,0,0,1.06.53.78.98-.28.44,0,1.93,0,1.93,0,0,0,1.12-.96,1.93-.96.81-.94.18-1.12,1.62-.18,1.44.62,2.99,1.12,3.19.5.2,1.24.36.96,1.93-.28,1.57-.96,5.78-.96,5.78l-1.75,2.26-2.1,1.59s-2.63-.72-2.89,0c-.26.72-2.38,1.28-2.38,1.28,0,0-1.22.08-1.8.52-.18.14-1.88-.41-2.68-.26-1.45.28-1.9-1.11-1.9-1.11,0,0-1.55-.06-1.84-.44s.52-.74.18-2.12c-.34-1.37-.18-2.69-.18-2.69,0,0-1.09-.33-.96-.96Z"/>
  <path id="kyoto" class="" d="M278.37,418.11s.43-.4,1.38-1.47c.95-1.07,2.91-1.56,2.67-3.04-.24-1.47-.31-2.12-1.37-1.67-1.06.45-2.81,1.76-2.81,1.76l-.63-2.01s.25-3.37.07-3.32c-.18.05-.32-.74.73-1.01,1.05-.27,2.61-.54,4.01-1.44,1.41-.9,1.99-.47,2.89-.96.9-.49,2.89-1.93,2.89-1.93,0,0-.11,1.14.96,1.93,1.07.79,2.96,1.23,1.92,1.92-1.04.69-2.91-.78-2.89.96.02,1.74-.75,3.22,0,3.85.75.64,1.45,1.47,1.92.96.47-.51,1.55-1.51,1.93-1.92.37-.41,1.93,0,1.93,0,0,0-.49.93-.21,1.7.15.41-.31,1.58,1.41,3.34.75.77.65,1.37,1.69,1.69,1.01.31,2.34.02,2.89,0,.55-.02,1.2,2.14,1.2,2.14l3.61-1.17-.02,1.69-.95,2.16,1.93.96s.17.89.06,2.45c-.17,2.41-1.16,3.44-1.18,4.05-.04.88.57.44,1.12,1.2.35.48-.44,1.06,0,1.92.44.87,0,2.89,0,2.89,0,0,.9.16,2.04.84,2.09,1.24-.23.2.62.6l4.62.44s-1.29.88-1.5,1.97c-.21,1.09,1.03,2.76-.96,1.92-1.99-.84-3.98,1.12-4.81.96-.84-.15-1.37-.31-1.93-.96-.56-.66-1.46-.72-1.93-2.89s-1.19-2.97-1.93-3.85c-.73-.88-1.46-.92-1.46-.92,0,0-1.66.18-2.4-.05-.73-.23-2.87-2.74-3.49-3.13-.46-.29.08-1.77-.36-2.65-.59-1.18-1.12-1.48-1.93-1.92-.81-.44-2.41-.94-2.89-.96-.48-.03-.24-.32-1.38-.73-1.55-.56-2.08-.77-2.84-1.2-2.6-1.49-4.58-4.04-4.58-4.04l-.06-1.07Z"/>
  <path id="nara" class="" d="M301.68,448.26s.07-.48.14-1.18c.09-1.07.14-2.63-.14-3.64-.46-1.67-.15-3.52-.15-3.52l.15-1.29s.71,2.45,2.3,3.26c2.06,1.04,1.93.55,2.97.11,1.13-.47,2.11-.68,2.11-.68,0,0,2.19-.15,2.46.41q.26.55.45.76c.85.94,1.27.95,1.27.95l-.9,3.46s.14.16.98.33c1.64.35,3.95,2.24,3.95,2.24l-.19,1.67s-.4.92-1.93.96c-1.32.03-1.98-.73-1.93.96.06,1.69.64,2.35.65,2.98,0,.64,1.01,2.41,1.01,2.41,0,0,.4.7-.19,1.19-.57.48-1.71.88-1.65,1.78.06.9,1.12,3.52,1.14,4.15.03.84-2.05.14-2.67,1.24-.91,1.61-2.34,2.48-3.1,2.61-.67.11-1.78,2.34-1.78,2.34l-4.96-.42s-1.56-.34-1.93-.96c-.37-.63-.65-1.77-.96-3.85-.32-2.08-1.42-4.36-.96-4.81.99-.99,1.13-1.98,1.84-2.16,1.83-.46,2.98-.73,2.98-.73,0,0-2.06-3.07-1.93-3.85.14-.78.39-1.65.39-1.65,0,0,.69-.91.85-1.51.15-.58-.27-3.58-.27-3.58Z"/>
  <path id="osaka" class="" d="M285.31,455s1.59.13,2.89-.96c1.3-1.1,1.92-.65,2.89-2.89.97-2.23,1.96-1.35,1.93-2.89-.04-1.54.04-2.87,0-3.85-.04-.98,0-2.89,0-2.89,0,0-.62-1.78-.29-3.03.33-1.25.38-2.19.29-2.75-.09-.56.12-1.47-.02-2.56-.2-1.53-.83-2.58-.83-2.58l.85.32s2.15,2.98,2.89,2.89c.74-.1,2.89,0,2.89,0,0,0,2.04,2.05,2.36,3.09.32,1.04.32,3.49.32,3.49,0,0-.18,1.61.07,2.45.21.71.42.69.33,2.08-.1,1.4-.23,2.68-.2,3.33.04.65.27,3.58.27,3.58l-1.23,2.19s-3.42-.02-3.85,0c-.82.04-1.68.24-1.68.24,0,0-1.79,1.58-2.51,1.56-.5-.02-2.19.22-2.19.22,0,0-1.79.16-2.76-.02-1.41-.26-2.44.62-2.82.84-.39.22-1.51-.92-1.51-.92l1.92-.96Z"/>
  <path id="wakayama" class="" d="M289.16,475.21s2.33,1.24,2.89,1.92c.56.68-.38,3.35,0,3.85.37.5,2.66,1.34,2.89,1.92.23.59,1.42,2.17,1.93,1.92.51-.24.41.89,1.93.96,1.51.08,3.45.93,3.85.96.4.03.7.06,1.93-.96,1.22-1.02,1.99-.82,2.89-1.92s1.49-.73,1.93-1.93c.43-1.19.78-3.82.78-3.82l-1.03-2.08-2.73-2.02.07-2.25s-5.54-.15-6.52-1.15c-.62-.64-.65-1.46-.65-1.46l-.56-2.93-.75-2.75-.34-1.57s.52-.48,1.19-1.67c.63-1.12,3.8-1.4,3.8-1.4,0,0-.46-.83-.87-1.39-1.65-2.25-1.05-3.42-1.05-3.42l-3.37-.14c-2.66,0-4.21,2.17-4.08,2,0,0-1.5-.2-2.18.07-.67.27-4.81,0-4.81,0l-2.89,1.93s.57,2.02.96,1.93c.39-.1.25.37.96.96.71.59,2.41,1.98,1.93,1.92-.48-.06-1.93.96-1.93.96,0,0-.71,1.4,0,1.92.71.53.96,1.93.96,1.93,0,0-1.22.76-1.93.96-.7.2-1.04-.29-.96.96.08,1.25,1.94,2.51,1.92,2.89-.02.38,2.04,1.28,1.93,1.92-.12.65,1.93.96,1.93.96Z"/>
  <path id="biwa" class="cls-2" d="M309.38,422.26s3.15-2.04,2.89-2.89c-.26-.85,0-.96,0-.96,0,0-.29-1.4,0-1.92.29-.52,1.73-.49,1.93-.96.19-.47.96-.96.96-.96,0,0,1.5-.21,1.93.96.42,1.18.4,1.76.96,1.93.56.16,1.37,1.12.96,1.93-.4.81.12,1.58-.96,1.92-1.09.35-2.49,1.49-2.89,1.92-.39.43-1.62,1.22-1.93,1.93-.31.7-1.93,1.92-1.93,1.92h-1.93v1.93l-.96,2.89-.96-.96-.2-3.06,1.17-3.68.96-1.92Z"/>
  <path id="hyogo" class="" d="M263.17,410.71s1.49-2.62,1.92-2.89c.43-.27,1.95.64,1.93,0-.03-.64,8.76.27,8.66,0-.1-.27,1.74-.46,1.93,0,.18.46,0,3.22,0,3.85s.28,2.48.96,1.93c.68-.56,2.89-1.93,2.89-1.93,0,0,.92.6.96,1.93.01.5.14,1.12-.96,1.92-1.11.81-2.37,1.35-2.42,1.88-.05.53-1.52.62-.47,1.98,1.05,1.36,1.98,2.41,2.89,2.89.91.48,1.73,1.21,2.87,1.58.96.31,2.1.98,2.9,1.31.8.34,2.42.67,2.89.96.47.29,1.55,1.37,1.93,1.92.37.56,0,1.1,0,1.93,0,.83.96,2.89.96,2.89,0,0-.14,1.98,0,2.89.14.91-.42,3.96-.96,4.81-.54.86-.39,1.53-1.93,1.92-1.54.4-3.6-.12-3.85.96-.25,1.08-2.23,2.22-2.89,1.93-.66-.3-2.38-.53-2.89-.96-.51-.43-1.97-.49-2.89-1.92-.91-1.43-2.89-2.89-2.89-2.89h-3.85s-5.57.47-6.74.96c-1.16.49-2.05,2.17-2.89.96-.84-1.2-1.93-3.85-1.93-3.85,0,0-.91-1.41-1.05-4.3-.06-1.25.39-2.83,2.01-4.37,1.41-1.33,2.71-2.94,2.89-3.85.26-1.36,0-2.4.56-3.42.41-.74,1.11-.83,1.57-1.81.54-1.14,1.15-2.07-.2-3.44-1.22-1.23-2.62-2.57-2.45-3.13.16-.56.53-2.64.53-2.64Z"/>
  <path id="hyogo" class="" d="M270.87,455.96s.96-1.66,1.93-2.89c.96-1.23,1.69-1.98,2.89-2.89,1.19-.91,3.85-2.89,3.85-2.89l1.93-.96s-1.65,2.1-1.93,2.89c-.28.79-1.92,2.89-1.92,2.89v1.92c0,.73.1,1.47.96,1.92.87.45.96,1.93.96,1.93,0,0-1.01.28-1.92.96-.91.68-2.21.51-1.93.96.28.45-1.38,1.66-1.92.96-.55-.69-1.93-2.89-1.93-2.89h-.96v-1.93Z"/>
  <path id="tottori" class="" d="M229.47,414.56s5.15.97,5.78,0c.63-.97.96-.96.96-.96h5.78s.26.84,1.92.96c1.67.12,4.3.61,4.81,0,.51-.61-.6-1.78.96-1.93,1.56-.14,2.67,1.16,3.85.96,1.18-.19,2.67-.27,3.85-.96,1.18-.69,3.22-2.89,3.85-2.89s3.22-1.15,3.22-1.15c-.94,2.09-.95,1.99-1.3,3.08-.2.64-1.08,1.85,0,2.89,1.08,1.04,2.89,2.89,2.89,2.89,0,0-.66,2.49-.96,2.89-.3.39-1.54,1.26-1.92,1.93-.39.66-2.2.99-3.85,1.92-1.66.93-3.66.71-3.85,0-.19-.71-.55-2.32-1.93-2.89-1.38-.57-3.3-2.19-2.89-1.92,0,0-1.52.75-1.93.96-.4.21-1.43,1.62-1.92,1.93-.49.3-2.91.43-2.89,0,.02-.43-.39-2.32-1.92-1.93-1.53.39-2.05-.12-2.89.96-.84,1.08-1.45.58-2.89,1.92-1.43,1.35-2.89,1.93-2.89,1.93,0,0-.54.86-1.11,1.53-.44.52-1.9,1.48-1.9,1.48,0,0-.1.54-.85.85-1.02.42-5.24-.14-4.81,0,.42.15-.06-.7,0-1.93.06-1.22.32-1.26,1.93-2.89,1.61-1.63,2.89-1.22,2.89-2.89s-.37-1.91,0-2.89c.37-.98,0-3.85,0-3.85Z"/>
  <path id="okayama" class="" d="M236,449.72l-2.17-4.46s-.36-.7-1.47-2.78c-1.32-2.49-.76-3.4-.85-4.28-.1-.88-1.07-2.46-1.07-2.46,0,0-1.05-2.3-.96-2.89.22-1.51,0-3.85,0-3.85l3.85-3.85s1.02-.35,1.93-.96c1.51-1.01,4.11-3.05,4.48-3.27.63-.39,2.02-.54,2.26-.58,1.4-.24,2.06,2.08,2.06,2.08h2.48s1.99-1.92,1.99-1.92l2.13-1.12,1.86,1.38s1.59.77,1.99,1.25c.4.48.79,1.61.96,2.17.17.57.84.75,1.69.61,1.11-.18,3.28-1.09,4.09-1.57.81-.48,2.15-1.27,2.15-1.27-.02,1.21-.23,3.2-.23,3.2,0,0-1.39,2.46-1.93,2.89-1.85,1.49-2.89,3.85-2.89,3.85,0,0-.4.65,0,2.56.4,1.92.6,2.59.95,3.21.36.63-.16-.13.52,1.19.67,1.32,1.41,2.66,1.41,2.66,0,0-2.01-.99-2.89,0-.88.99-1.96,2.04-2.89,2.89-.92.85-1.56.99-2.89,1.93-1.33.93-3.17,2.47-2.89,2.89.28.42-.57,1.96-2.89,1.93-2.32-.04-4.81,0-4.81,0l-.96-1.93-.96,1.93-2.13-.47-1.93-.96Z"/>
  <path id="shimane" class="" d="M183.2,444.02s2.91-1.12,3.91-2.5c1-1.39,4.88-6.05,5.78-6.74.9-.69,2.77-2.8,3.85-3.85,1.08-1.05,2.89-1.93,2.89-1.93l1.93-.96s3.39-3.32,3.85-3.85c.46-.53,2.2-1.49,2.89-1.92.68-.43,1.52-.76,1.93-.96.4-.2-.59-3.47,0-3.85.59-.39,1.98-1.64,1.93-1.93-.06-.29,3.85-1.92,3.85-1.92,0,0,1.63-2.01,2.89-1.93,1.26.09,3.33,1.19,3.85,0,.52-1.19,7.7,0,7.7,0l-.96,2.89s.29,2.37.08,3.56c-.4,2.17.62,3.02-.45,4.29-.83.98-2.63,1.9-2.93,2.2-.68.68-1.45,1.93-1.45,1.93,0,0,.27,2.15-.09,2.22-1.33.26-4.74.08-5.75.24-1.56.24-2.64-.69-2.89,0-.25.69-1.04,1.77-1.93,2.89-.58.74-.74.07-1.76.89-1.02.82-.94,1.21-.94,1.21,0,0,2.58,1.28,2.17,2.2-.13.28-3.62,2.16-3.62,2.16,0,0-1.29.86-3.12,1.21-1.83.36-4.7-.83-5.77-.56-.59.15-1.52-.13-2.37.59-.85.72-1.73,1.29-2.03,1.74-.25.37-.48.07-.85,1.15-.66,1.91,0,2.46-.61,3.29-.72.99-1.65,1.6-2.53,2.95-.75,1.16,0,3.2-.71,4.34-.6.97-1.12,2.7-1.93,2.89-1,.24-5.44-.22-5.44-.22,0,0-1.84-.47-1.3-1.21.53-.74.95-1.7.95-1.7,0,0-.51-.25-.95-.71-.44-.46-.92-.86-1.42-1.96-.59-1.3-.79-2.42-.28-3,.51-.58,1.64-3.13,1.64-3.13Z"/>
  <path id="hiroshima" class="" d="M196.66,459.53s2.58-2.1,2.97-2.61c.39-.51,2.89-2.89,2.89-2.89h1.93l1.93,1.92s-.6,3.77,0,3.85c.6.09,2.07,1.11,2.89.96.82-.15,4.14-1.88,3.85-1.93-.06,0-.09,0-.09,0,0-.02.43-.07,1.05-.95.76-1.11,3.19-2.38,2.89-1.93-.3.45-.53-.45.96,0,1.49.45,3.28.28,3.85,0,.57-.28,1.45-1.56,1.92-1.92.47-.37.96-.96.96-.96,0,0,2.43-.88,2.89-.96.46-.09,1.19.18,1.92.96.73.78,1.11,1.33,1.93.96.82-.37,2.21-1.66,2.89-1.92.67-.27,1.93-2.29,1.93-2.29l-1.64-3.05s-.93-1.36-1.24-2.37c-.19-.61-.88-1.19-.96-1.92-.2-1.8-.71-.96-.96-2.89-.05-.38.31-1.03,0-1.93-.73-2.15-1.29-2.31-1.61-3.2-.4-1.08-.43-1.81-.31-2.58.12-.75,0-2.89,0-2.89l-4.41.02-1.16-.24-6.34.24s-.95-.72-1.56-.02c-.62.69-1.22,2.52-1.93,2.89-.7.37-3.24,1.47-2.89,1.93.36.45,3.49,2.03,1.92,2.89-1.57.86-2.84,1.52-3.85,1.92-1.01.41-2.85,1.34-3.85.96-1-.38-2.76-.66-2.76-.66l-3.43.18s-.78.7-1.4,1.19c-.63.49-1.31.97-2.03,2.17-.53.89-.3,3.65-.96,3.85-.66.2-1.36,1.45-1.93,1.93-.57.47-.53,2.28-.62,3.17-.11,1.05-.19.8-.1,1.76.13,1.38,2.76,1.95,2.65,2.77-.12.82-.4,1.84,0,2.89.56,1.49,1.83.69,1.84.69Z"/>
  <path id="yamaguchi" class="" d="M159.19,459.81s-2.57-3.94-1.93-3.85c.64.09,1.83.55,2.89-.96,1.06-1.51,1.33-3.35,1.92-2.89.6.46,3.85,1.92,3.85,1.92,0,0,.34,2.29,1.92.96,1.59-1.33,1.81-1.24,2.89-1.93,1.08-.68,2.14-2.35,2.89-2.89.75-.54,1.93-1.93,1.93-1.93,0,0,1.91-.2,1.92-.96,0-.76-.29-1.54.96-2.89,1.25-1.35,4.07-.58,3.85-.96-.22-.39,1.05.12.96.96-.09.85-2.12,2.47-1.93,3.85.19,1.39.64,2.19.96,2.89.33.69,2.06.96,1.93,1.92-.13.96-1.42.88-.96,1.93.46,1.05,3.85.96,3.85.96l3.08-.09,1.73-2.8s.43.6.96.96c.53.37,1.86,1.47,1.93,1.92.07.45-.36,2.65,0,2.89.28.19.39,1.06.96.96.57-.1.83-.56,1.03.25.27,1.12.51,1.05-.06,2.64-.58,1.59,1.22,1.81.96,2.89-.26,1.08.99,2.5,0,2.89-.99.39-1.58.44-1.93.96-.35.52-1.58,1.32-.96,1.92.62.61,2.5,1.96,1.93,1.92-.58-.04-3.85-1.92-3.85-1.92l-2.89-.96s.05.07-1.93-1.93c-1.97-1.99-4-2.32-4.81-2.89-.82-.57-1.57-.71-1.93,0-.36.71-1.12.3-1.93.96-.81.66-4.81,0-4.81,0,0,0,.58,1.72,0,1.92-.58.2-2.89-1.92-2.89-1.92v1.92s-.21.63-.96.96c-.75.34-2.74,1.12-3.85,0-1.11-1.13-.73-1.26-1.93-1.93-1.19-.66-1.38-1.91-1.93-1.93-.55-.02-.28.66-.96.96-.68.3-2.07.16-1.92.96.14.8.59,1.59,0,1.93-.59.34-1.79-1.44-1.93-1.93-.13-.48-.14-1.64-.96-2.89-.82-1.25-.83-1.5,0-1.93.83-.42,1.73-2.97,1.93-2.89Z"/>
  <path id="ehime" class="" d="M193.85,489.66l4.81-3.85,3.85-.96s2.15-2.33,1.93-1.92c-.22.4,1.15-1.88,1.93-1.92.78-.05,1.89-.23,2.89-.96,1-.73,2.95-.73,2.89-1.93-.06-1.19-.67-6.61,0-6.74.67-.13,2.08.21,1.93-.96s.98-2.59.96-2.89c-.02-.3,1.93-.96,1.93-.96l1.92-3.85s.12.15.96.96c.85.81,3.75,4.25,3.85,4.81.11.57,1.1,2,2.89,1.93,1.79-.08,3.35-2.13,3.85-1.93.5.2,4.01,1.18,4.81.96.81-.21,3.85-2.89,3.85-2.89l1.8.9c.64,2.98.86,2.94,1.35,4.39.31.92-2.62.49-2.62.49,0,0-2.99-.2-5.41.67-2.34.84-5.36,1.19-6.86,1.26-1.23.06-.94.63-1.75,1.92-.99,1.58-2.08,3.91-2.29,4.96-.21,1.05-.61,1.59-1.26,2.45-1.01,1.34-1.72,1.47-2.22,2.22-.45.68-1.15,1.21-2.18,1.01-1.03-.2-1.67-.04-1.67-.04,0,0,.54,2.1.81,2.67.32.65.72,2.22.15,3.11-.58.9-1.84.4-2.23,1.19-.38.79-.49.58-1.17,1.71-.71,1.18-2.79,1.68-3.34,1.91-.56.23-.77,2.72-.45,3.37.42.88,2.23.07,2.36.57.12.5-.94,3.76-.94,3.76,0,0-2.39.51-3.85,0-1.46-.51-2.89-2.89-2.89-2.89,0,0-.33-.46,0-.96.33-.5-.96-2.89-.96-2.89l.96-1.93,1.93-1.93-.96-1.92s-1.57,2.37-1.93.96c-.36-1.41-.96-2.89-.96-2.89v-1.93l.96-1.92h-.96s-1.16-.94-1.93,0c-.76.94-2.44,3.19-2.89,2.89-.44-.3-2.89.96-2.89.96l-.96-.96Z"/>
  <path id="kochi" class="" d="M212.14,510.83h-2.89l1.93-2.89v-2.89s.4-.92.62-1.65c.12-.41.34-2.2.34-2.2,0,0-2.64.16-2.58-.77.07-1.03.07-3.31.65-3.08.59.23,2.89-.96,2.89-.96,0,0,1.03-2.4,1.93-2.89.9-.49,1.3-.52,1.93-.96.62-.44.12-3.14,0-2.89-.12.25-.96-2.89-.96-2.89h2.89l1.93-1.93,1.93-1.92.96-2.89s1.55-3.12,1.93-3.85c.38-.73,1.1-2.02,1.93-1.93.83.1,5.42-.56,5.78-.96.36-.4,5.78-.96,5.78-.96h2.89s2.37.09,2.89.96c.52.88,3.85,2.89,3.85,2.89l1.93-1.93h1.93s-.22,3.21.96,3.85c1.18.64,3.12.37,2.89.96-.23.6-.19,2.05-.26,3.16-.07,1.08-.58,1.42,1.46,1.45,2.47.04,3.72.19,3.72.19,0,0-1.48,1.95-2.04,2.9-.56.94-1.46,3.1-1.92,3.85-.46.75-1.1,2.28-.96,2.89.13.61-.96.96-.96.96,0,0-.55.35-1.93-1.92-1.38-2.27-.46-2.32-1.93-3.85-1.46-1.53-2.48-1.41-2.89-1.92-.4-.52-.98-2.05-2.89-1.93-1.91.13-3.85-.96-3.85-.96,0,0-2.78,1.2-2.89.96-.11-.24-1.64.16-2.89.96-1.25.81-2.05,1.4-1.93,1.93.13.53-.59.48-.96.96-.38.48-3.85.96-3.85.96,0,0-.64,1.4-.96,1.92-.17.29-.29.02-.28,0,.01,0,.1.17.28.95.41,1.75.04,2.46-.96,3.85-1,1.39-2.4,2.01-2.89,2.89-.49.88-.89-.41-.96.96-.08,1.38.53,2.75-.96,2.89-1.49.14-2.18.97-1.93,1.93.25.95.3,1.43,0,1.92-.3.49-.96.96-.96.96,0,0-.66,1.4,0,1.92.66.53,3.83,2.69,2.89,2.89-.94.2-5.21-.85-4.81-.96,0,0-1.49.21-1.92.96-.43.75-2.89,0-2.89,0l-.96-1.92Z"/>
  <path id="kagawa" class="" d="M239.1,458.85s3.42-.4,3.85-.96,2.88-1.38,3.85-2.89,1.14.05,2.89,0c1.74-.05,3.03.96,3.85,0,.82-.96,1.93-.96,1.93-.96,0,0,3.49,2.48,3.85,2.89.36.4,2.13,1.79,2.89,1.92.76.14,2.89.96,2.89.96l-.96,2.89s-.63-.81-1.84-1.84c-.32-.27-3.59.73-4.66.8-1.7.12-2.02-.08-2.76,1.2-.55.94-1.32,1.76-1.32,1.76l-2.52-.65-1.02-.59-3.81.45s-.8.93-1.75,1.45c-.84.46-2.85,1.48-2.85,1.48l-.58.75-1.93-.96s-1.17-1.87,0-2.89,2.31-2.93,1.93-2.89c-.39.04-1.93-1.93-1.93-1.93Z"/>
  <path id="tokushima" class="" d="M269.91,461.74c-.36,1.09-2.76,2.77-1.93,3.85.84,1.08,1.37,1.13,1.93,1.93.56.8.82,2.23.96,2.89.14.65.5,2.93.96,2.89.46-.04.96.96.96.96,0,0-4.01.65-4.81,1.93-.81,1.28-.85,2.66-1.93,2.89-1.08.23-2.32,1.61-2.89,1.93-.57.32-1.45,3.08-1.93,2.89-.47-.19-5.09-.22-5.09-.22.02-.78.02-.76.03-2.55,0-1.37.2-2.28.2-2.28,0,0-2.49-.4-2.83-.73-.57-.54-.81-3.49-.97-3.56-.88-.41-1.91-.29-1.91-.29,0,0-1.52,2.06-1.93,1.93-.4-.14-2.94-1.69-3.4-2.39-.23-.35-1.23-1.06-1.23-1.06l-1.84-.71-1.37-4.47s1.18-1.02,3.03-1.96c1.85-.93,1.73-1.82,2.89-1.92,1.15-.11,3.44-.63,3.85,0,.41.63,2.44.94,2.89.96.45.03,1.93-2.89,1.93-2.89,0,0,1.69.09,1.93,0,.71-.27,4.81-.96,4.81-.96l1.93,1.92.96-2.89.96-.96,3.85,1.93s.36-.12,0,.96Z"/>
  <path id="fukuoka" class="" d="M134.16,484.84s-.33-.68,0-1.92c.33-1.24,3.85-2.89,3.85-2.89,0,0,1.79,3.58,2.89,2.89,1.1-.69,1.47-1.97,1.93-2.89.45-.91,0-1.93,0-1.93l1.93-2.89s-.36-.33,0-.96c.36-.63-.35-1.2,1.93-1.92,2.27-.72,3.05.72,3.85,0,.8-.72,1.4-1.3,1.92-1.93.52-.63,3.16-.66,3.85,0,.69.65,2.51,1.82,2.89.96.38-.86.64-.42.96,0,.33.42.68,2.89.96,3.85.28.96,1.01,1.69,1.92,2.89.91,1.19.56,2.94,1.93,2.89,1.37-.05,1.93.96,1.93.96,0,0-.02,1.44-.27,2.14-.19.53.34.88-1.77.78-2.11-.1-2.73-.34-3.36.1-.64.44-1.03,2.04-2.31,2.76-1.28.71-2.14,1.32-2.23,2.12-.09.8.57,1.21.3,1.73s-1.1,1.3-1.01,2.12c.1.83.73,1.35,1.01,1.73.28.37.23,3.75,0,4.81-.08.38-3.04,0-3.85-.96-.81-.95-1.76-1.7-1.93-.96-.16.74-2.97.37-3.85,1.93-.89,1.56-3.24,4.23-2.89,4.81.36.59-.96-2.89-.96-2.89,0,0-1.23-2.3-.96-2.89.27-.59-.96-.96-.96-.96l-.96-.96s.64-1.52.96-1.92c.32-.41,1.16-1.98,1.93-1.93.77.06.52.03,1.93-.96,1.41-.99,1.71-.66,1.93-1.93.21-1.26-.96-2.89-.96-2.89,0,0-1.18-.71-1.93,0-.74.71-1.93,1.93-1.93,1.93l-1.93-1.93-.96-.96s-2.06-1.41-1.93-.96c.13.44-.96.96-.96.96l-1.92.96s-1.29-.44-.96-.96c.33-.52,0-1.93,0-1.93Z"/>
  <path id="oita" class="" d="M172.67,482.92s3.79-1.14,3.85-1.92c.06-.78,1.22-3.17,1.92-2.89.7.28,2.7,1.38,2.89,1.93.19.55.82,2.12.96,2.89.14.77-.33,2.26,0,2.89.33.63,1.5,2.22,0,2.89-1.5.66-2.89.96-2.89.96,0,0-.19.94-.96.96-.77.02-2.71,2.46-1.92,2.89.79.42,2.89.96,2.89.96l2.89-.96s.5.59.96.96c.46.38,1.56.54,1.93,0,.37-.54.1-2.58.96-1.92.87.65,1.89,1.55,1.92,1.92.04.38-1.88,1.73-1.92,2.89-.05,1.16-.22,1.42.96,1.92,1.18.51,1.57-.78,1.93.96.36,1.74-.72,1.66,0,2.89.72,1.23,1.3,2.53,1.93,2.89.63.36.75.47.96.96s-1.32,2.54-1.93,2.89c-.61.35-.94.53-1.63.83-.69.3-1.81.1-2.22-.47-.42-.57-.74-1.42-1.2-1.23-.56.24-2.65,1.83-2.65,1.83,0,0-3.29.47-4.81.96-1.04.34-.99-.07-1.64-.94-.26-.35-1.22-2.35-1.25-1.95-.03.4-1.93,1.93-1.93,1.93,0,0-1.54-.39-1.93-.96-.39-.57-.22.06-.96-1.92-.84-2.25-1.56-1.6-1.93-3.85-.37-2.28.56-2.89-.96-4.81-.84-1.06-1.1-2.73-1.55-2.84-.64-.15-3.27-.05-3.27-.05,0,0-1.06-1.67-.96-.29.1,1.39.96,4.14.96,4.14,0,0,1.58.19,1.08.56-.5.37-3.33,3.07-3.97,2.33-.61-.73-1.93-2.89-1.93-2.89v-4.81s-1.29-1.07-.96-1.93c.33-.86,1.06-2.51,1.06-2.51,0,0-1.21-1.17.51-2.41,2.2-1.6.76-.29,2.36-1.8.98-.93,1.49-2.19,2.09-2.06.6.12,3.62.12,3.62.12l.64-.3.32-2.58h3.85l1.93.96Z"/>
  <path id="saga" class="" d="M124.53,491.58c.62-.03,1.76.48,1.93-.96.16-1.44-1.36-2.69-.96-2.89.39-.2-1.31-.54,0-1.93,1.31-1.39,2.82-3.29,2.89-2.89.07.4,2.32.42,1.93.96-.39.54.67,2.31.96,2.89.29.58.17,1.71.96.96.79-.75,1.78-.76,1.78-.76,0,0,.46.55,1.11.76.64.21,2.38-1.23,2.38-1.23l.71-.75s2.37,1.08,2.68,1.97c.32.89,1.42,1.79,1.93,1.93.47.12,2.23-2.13,2.23-2.13,0,0,1.62.21,2.17,1.14.52.89.39,1.02.42,1.96.03.93-1.38,1.22-2.34,2.14-.99.95-2.11.72-2.8,1.75-.67,1-1.13,1.81-1.13,1.81,0,0-.12.89-.72,1.12-.6.23-.48-.08-1.17-.22-.68-.13-1.48-.81-1.48-.81,0,0,.13,0-.96.96-1.1.97-2.02-.33-1.92.96.1,1.29-.64,1.46,0,1.93.64.46,1.56.64,1.92,1.93.37,1.28,0,1.92,0,1.92,0,0-1.15-1.18-2.65-1.04-1.5.13-1,.35-2.17-.88-1.28-1.36-1.59-2.18-1.93-2.89-.35-.75-1.19-2.07-1.19-2.07,0,0-1.49-.27-2.18-.57-1.4-.62-2.69-2.77-2.69-2.77,0,0-.35-2.26.28-2.29Z"/>
  <path id="nagasaki" class="" d="M136.09,507.95c.6-.29,3.53.2,4.81.96,1.28.76,1.29,1.63,1.93,1.93.64.3.83,2,0,2.89-.83.89-4.81,2.89-4.81,2.89,0,0-3.53.26-2.89-.96.64-1.22,2.11-.8,1.92-1.92-.18-1.13-.96-2.89-.96-2.89,0,0-.51-1.31-.96-.96-.45.35-.11,1.49-1.93,1.93-1.82.43-2.68.39-2.89.96-.21.57-2.45,3.84-2.89,3.85-.43,0-2.78,3.84-2.89,1.92-.11-1.91.93-2.67.96-3.85.03-1.18.89-2.5,0-3.85-.89-1.35-2.15-2.05-2.89-2.89-.74-.84-3.39-2.74-2.89-2.89.5-.14,1.92-2.89,1.92-2.89v-1.93s1.43,1.56,1.93,1.93c.49.36-.21.19.96,1.92,1.17,1.73,2.31,2.4,1.93,2.89-.39.49.85.34.96.96.12.63,1.36,1.48,1.93.96.57-.52,2.73-.04,1.93-1.92-.81-1.89-2.31-2.24-1.93-2.89.39-.64-.96-1.92-.96-1.92,0,0-.44-1.84-1.93-1.93-1.48-.09-1.93-.96-1.93-.96,0,0-1.18-.79-1.93-.96-.74-.17-1.93-.96-1.93-.96,0,0-.36.5-.96,0-.61-.5-2.15-1.52-1.93-1.92.22-.41.97-2.45.96-2.89,0-.44.96-2.89.96-2.89l1.92.96,2.89.96s-.81,1.78,0,2.89c.81,1.11,1.93,1.93,1.93,1.93l1.9.66s.6-.12.99.31c.39.42.76,1.6,1.23,2.8.47,1.19,2.62,2.98,2.62,2.98,0,0,1.46-.13,1.93,0,.46.14,1.92.96,1.92.96,0,0-.37.38,0,.96.37.59-1.56,3.18-.96,2.89Z"/>
  <path id="kumamoto" class="" d="M146.68,526.24s.19,1.85-.96,2.89c-1.16,1.04-2.61.8-2.89,1.93-.28,1.12-.96,2.89-.96,2.89,2.27.28,2.14.36,3.85,0,1.41-.3,1.99-.53,2.89-.96.9-.43,1.4.63,1.93.96.29.18-.48.28,1.92.96,1.57.44,3.43,1.91,4.81.96,1.39-.94,1.05-2.11,2.89-2.2,1.81-.09,2.66-.41,3.21-.84.55-.43,1.61-2.65,1.61-2.65,0,0-.41-1.99-.46-2.69-.05-.69-.35-1.44-.81-3.28-.3-1.19-1.04-2.13-1.56-2.89-.37-.54-1.03-1.82-1.03-1.82l2.4-2.31s.94-.95,2.07-2.13c1.14-1.17,1.13-1.7,1.59-2.51.5-.88,1.64-2.68,1.64-2.68l.96-1.92-.96-1.93s-1.09-1.46-.96-1.93c.13-.46.06-1.66,0-2.89-.06-1.23-.4-.97-.96-1.93-.56-.95-1.05-2.86-1.93-2.89-1.08-.03-2.75.45-2.89,0-.13-.45-.96-.96-.96-.96l.96,4.81s1.78-.1.92.84c-.89.98-1.57,1.1-2.23,1.58-.52.38-1.01.92-1.33.65-1.69-1.42-1.73-2.98-2.18-3.07-.45-.09-1.41.07-2.54-.21-.67-.17-.69-.16-1.32-.75-.63-.59-.79-1.59-1.51-1.25-.85.4-1.45.8-2.25.99-.6.14-1.82.65-2.16,1.47-.34.83-.33.09-1.47,2.12-1.25,2.21-1.35,2.22-1.27,2.45.42,1.22.93,1.71,1.93,2.89.99,1.18,1.03,1.4,1.93,1.92.9.53,1.4.94.96,1.93-.43.98-.21,2.23-.96,2.89-.75.65-4.81,2.89-4.81,2.89,0,0,3.74.95,4.81,0,1.08-.95,3.05-2.53,2.89-1.93-.16.61-.3,1.22-.96,1.93-.66.7-1.91,1.14-1.93,1.93-.02.79-.63,2.06-.96,2.89-.34.83-.96,3.85-.96,3.85Z"/>
  <path id="kumamoto" class="" d="M138.98,523.35s0-1.16.96-1.93c.96-.77,1.93-.96,1.93-.96h2.89v1.93s-1.46,1.56-1.93,1.92c-.46.37-2.89.96-2.89.96l-.96-1.92Z"/>
  <path id="kumamoto" class="" d="M131.27,524.31s-.37-1.75.96-2.89c1.34-1.14,2.89-1.93,2.89-1.93,0,0,.55.31.96,0,.41-.31.6.22.96.96.37.74,1.19,1.93.96,2.89-.23.96-.96,2.89-.96,2.89,0,0-.46,1.94-.96,1.93-.5,0-1.16.93-1.93,1.92-.77.99-2.89,1.93-2.89,1.93,0,0-1.3-1.45-.96-1.93.34-.47.96-2.89.96-2.89v-2.89Z"/>
  <path id="miyagi" class="" d="M174.6,547.42s1.13,4.19,0,4.81-2.18,1.4-1.93,1.92c.25.53.3,1.58,0,2.89-.3,1.31.38,2.27-.96,2.89-1.35.62-4.63-1.21-4.63-1.21,0,0-.15-.48-.19-2.65-.02-1.03,0-4.81,0-4.81l-4.64-2.15s.21-.23-.24-1.05c-.45-.83-2.26-1.82-2.26-1.82l-2.49.21.96-2.89-3.45-3.99-.89-2.66-1.43-2.01,1.93.96,2.47.2s1.6-1.46,2.34-2.12c.74-.66,2.94.2,3.85-.96.91-1.17,2.39-2.51,1.93-3.85-.46-1.34-1.56-6.84-1.93-6.74-.37.09-1.92-2.89-1.92-2.89,0,0,1.38-1.53,1.92-1.93.55-.39,2.85-2.44,2.89-2.89.04-.44,1.71-2.51,1.92-2.89.53-.96.96-1.93.96-1.93l.96-1.92s1.46,2.63,1.94,2.57c.48-.07.82.6,1.35.16.44-.37,1.52-1.77,1.52-1.77l1.9,2.97s4.92-1.16,5.8-1.04c.88.12,2.7-2.14,2.89-1.93.18.21,1.3,1.93,1.93,1.93.96,0,2.08-.62,1.76-.23-.59.71-2.13,3.97-2.73,4.08-.6.11-1.61,1.36-1.93,1.93-.32.57-1.52,3.01-1.93,2.89-.4-.12.59,1.6,0,1.93-.59.33-2.81,3.45-2.89,4.81-.08,1.37-.75,1.76-.96,3.85-.21,2.09-2.17,4.33-1.92,5.78.24,1.44-.7,1.59-.96,2.89-.26,1.3-.96,8.67-.96,8.67Z"/>
  <path id="kagoshima" class="" d="M137.05,564.75c-.29-.22-.6-3.25-.96-3.85-.21-.36-1.93-1.93-1.93-1.93,0,0-.41-1.31.96-.96l3.85.96s-.64-1.68,0-2.89c.64-1.21,1.74-.81,1.93-1.92s0-2.46,0-2.89-2.02-2.42-1.93-2.89c.1-.46-1.19-1.56-1.93-1.93-.73-.37-1.92-1.92-1.92-1.92,0,0,1.74-1.2,1.92-1.92.18-.72.37-2.49,0-2.89-.37-.39-.96-.96-.96-.96v-1.92l-.96-1.93s1.01.35,1.92,0c.92-.34,2.29-1.03,2.89-.96.6.07,1.93,0,1.93,0l2.41.23,3-.64s1.86-1.07,2.3-.56c1.03,1.2,2.89,1.92,2.89,1.92,0,0,.4.45,1.28,1.76.5.75.04.79.64,2.09.61,1.3,1.05,2.1,1.93,2.89.88.79,1.93,1.93,1.93,1.93l-.96,2.89s2.56-.55,2.89,0c.33.55,1.71,1.31,1.92,1.93.4,1.16.72.95,1.44,1.33,1.33.69,1.5.69,1.5.69l1.87.87v3.85s-.12,2.77.19,3.61c.15.4-2.48-.7-3.07-.72-.6-.02-1.97.48-1.93.96.05.48,0,1.93,0,1.93,0,0,1.78.59,1.93.96.24.6,0,3.85,0,3.85,0,0-.05.04-.96,0-.92-.04-.74-.23-1.92.96-1.18,1.19-1.66,2.02-2.89,2.89-1.23.87-1.93,0-1.93,0l-1.93.96-1.93,1.93s-1.4.28-1.92,0c-.41-.22,2.14-4.22,1.92-3.85-.02.03-.03.05-.03.05,0,0,.9-1.56.99-1.97.11-.45.96-2.89.96-2.89v-3.85s-.7-.81-.96-1.92c-.26-1.12,0-2.89,0-2.89h-3.85v-2.89h2.89s.31.75.96.96c.66.21.96-.96.96-.96l.96-1.93s-1.48.28-1.93-.96c-.44-1.24-1.93-1.93-1.93-1.93l-1.93.96s-1.13,4.24-.96,4.81c.16.58-.96,1.93-.96,1.93,0,0-1.41-.4-.96.96.44,1.36.75,2.41.96,2.89.21.48-1.13.81,0,1.93,1.13,1.12.25,2.83.96,2.89.71.06,2.04.59,1.93.96-.12.38.66,1.28,0,1.93-.66.64-3.38,1.28-3.85.96-.47-.32-.96-1.93-.96-1.93,0,0-.22-2.35-.96-1.92-.74.42-4.81.96-4.81.96,0,0-2.57.24-2.89,0Z"/>
  <path id="okinawa" class="" d="M248.38,264.5l3.85-.96.96-1.93,1.93-1.92-3.85-2.89h2.89s2.36,2.37,2.89,1.92c.53-.44,2.89-1.92,2.89-1.92l1.92-3.85,1.93-2.89s1.59.9,1.93,1.92c.34,1.03-.75,3.28-.96,3.85-.21.57-.03,2.58-.96,2.89-.94.31-2.39,2.22-2.89,1.93-.5-.3-2.27.34-2.89.96l-2.89,2.89s-.47.62-1.93.96c-1.45.34-.85.08-.96.96-.12.89.96,1.93.96,1.93,0,0-3.2.33-2.89.96.31.63-.96,3.85-.96,3.85l1.92.96-1.92,1.92h-1.93l-1.92-1.92,1.92-2.89.96-1.92-.96-2.89.96-1.92Z"/>
  <polyline class="cls-1" points="368.29 176.8 253.24 176.8 186.82 243.23 186.82 341.36"/>
</svg>